{
.formatVersion = 3;
axes = (
{
name = Weight;
tag = wght;
}
);
classes = (
{
code = "Kacyr kacyr vecyr zhecyr yucyr Elcyr Decyr gecyr decyr elcyr icyr ishortcyr shacyr shchacyr tsecyr igravecyr hardcyr softcyr zecyr";
name = locl;
},
{
code = "Kacyr.loclBGR kacyr.loclBGR vecyr.loclBGR zhecyr.loclBGR yucyr.loclBGR Elcyr.loclBGR Decyr.loclBGR gecyr.loclBGR decyr.loclBGR elcyr.loclBGR icyr.loclBGR ishortcyr.loclBGR shacyr.loclBGR shchacyr.loclBGR tsecyr.loclBGR igravecyr.loclBGR hardcyr.loclBGR softcyr.loclBGR zecyr.loclBGR";
name = locl2;
}
);
familyName = Ruzland;
customParameters = (
{
name = glyphOrder;
value = (
.notdef,
.null,
CR,
space,
exclam,
quotedbl,
numbersign,
dollar,
percent,
ampersand,
quotesingle,
parenleft,
parenright,
asterisk,
plus,
comma,
hyphen,
period,
slash,
zero,
one,
two,
three,
four,
five,
six,
seven,
eight,
nine,
colon,
semicolon,
less,
equal,
greater,
question,
at,
A,
B,
C,
D,
E,
F,
G,
H,
I,
J,
K,
L,
M,
N,
O,
P,
Q,
R,
S,
T,
U,
V,
W,
X,
Y,
Z,
bracketleft,
backslash,
bracketright,
asciicircum,
underscore,
grave,
a,
b,
c,
d,
e,
f,
g,
h,
i,
j,
k,
l,
m,
n,
o,
p,
q,
r,
s,
t,
u,
v,
w,
x,
y,
z,
braceleft,
bar,
braceright,
asciitilde,
exclamdown,
cent,
sterling,
currency,
yen,
brokenbar,
section,
dieresis,
copyright,
ordfeminine,
guillemotleft,
logicalnot,
registered,
macron,
degree,
plusminus,
twosuperior,
threesuperior,
acute,
mu,
paragraph,
periodcentered,
cedilla,
onesuperior,
ordmasculine,
guillemotright,
onequarter,
onehalf,
threequarters,
questiondown,
Agrave,
Aacute,
Acircumflex,
Atilde,
Adieresis,
Aring,
AE,
Ccedilla,
Egrave,
Eacute,
Ecircumflex,
Edieresis,
Igrave,
Iacute,
Icircumflex,
Idieresis,
Eth,
Ntilde,
Ograve,
Oacute,
Ocircumflex,
Otilde,
Odieresis,
multiply,
Oslash,
Ugrave,
Uacute,
Ucircumflex,
Udieresis,
Yacute,
Thorn,
germandbls,
agrave,
aacute,
acircumflex,
atilde,
adieresis,
aring,
ae,
ccedilla,
egrave,
eacute,
ecircumflex,
edieresis,
igrave,
iacute,
icircumflex,
idieresis,
eth,
ntilde,
ograve,
oacute,
ocircumflex,
otilde,

glyphs = (
{
glyphname = .notdef;
layers = (
{
layerId = "5F7E89D3-0E96-4E8F-898E-E76CB8D7C13D";
shapes = (
{
closed = 1;
nodes = (
(269,0,l),
(1237,0,l),
(1237,1210,l),
(269,1210,l)
);
},
{
closed = 1;
nodes = (
(299,30,l),
(299,1180,l),
(1207,1180,l),
(1207,30,l)
);
}
);
width = 1593;
},
{
layerId = "D9C3C1F3-1F14-4B11-A064-AC4F771295DD";
shapes = (
{
closed = 1;
nodes = (
(269,0,l),
(1237,0,l),
(1237,1210,l),
(269,1210,l)
);
},
{
closed = 1;
nodes = (
(299,30,l),
(299,1180,l),
(1207,1180,l),
(1207,30,l)
);
}
);
width = 1593;
},
{
layerId = "F307D2A1-D493-44D9-89F1-438E1120FCB6";
shapes = (
{
closed = 1;
nodes = (
(269,0,l),
(1237,0,l),
(1237,1210,l),
(269,1210,l)
);
},
{
closed = 1;
nodes = (
(299,30,l),
(299,1180,l),
(1207,1180,l),
(1207,30,l)
);
}
);
width = 1593;
},
{
layerId = "4443E9CB-80E0-4C5A-B41E-D517E8EFB53E";
shapes = (
{
closed = 1;
nodes = (
(269,0,l),
(1237,0,l),
(1237,1210,l),
(269,1210,l)
);
},
{
closed = 1;
nodes = (
(299,30,l),
(299,1180,l),
(1207,1180,l),
(1207,30,l)
);
}
);
width = 1593;
}
);
},
{
glyphname = exclam;
layers = (
{
layerId = "5F7E89D3-0E96-4E8F-898E-E76CB8D7C13D";
shapes = (
{
closed = 1;
nodes = (
(171,1356,l),
(171,743,l),
(235,446,l),
(449,446,l),
(513,743,l),
(513,1356,l)
);
},
{
closed = 1;
nodes = (
(145,39,o),
(239,-21,o),
(339,-21,cs),
(441,-21,o),
(541,33,o),
(538,153,c),
(538,262,o),
(461,328,o),
(339,328,cs),
(227,328,o),
(145,262,o),
(145,153,cs)
);
}
);
width = 682;
},
{
layerId = "D9C3C1F3-1F14-4B11-A064-AC4F771295DD";
shapes = (
{
closed = 1;
nodes = (
(201,1356,l),
(201,722,l),
(255,410,l),
(430,410,l),
(484,722,l),
(484,1356,l)
);
},
{
closed = 1;
nodes = (
(172,35,o),
(248,-22,o),
(340,-22,cs),
(432,-22,o),
(513,32,o),
(511,131,c),
(511,227,o),
(444,285,o),
(340,285,cs),
(241,285,o),
(172,227,o),
(172,131,cs)
);
}
);
width = 682;
},
{
layerId = "F307D2A1-D493-44D9-89F1-438E1120FCB6";
shapes = (
{
closed = 1;
nodes = (
(246,1356,l),
(246,691,l),
(285,356,l),
(401,356,l),
(440,691,l),
(440,1356,l)
);
},
{
closed = 1;
nodes = (
(212,29,o),
(262,-24,o),
(342,-24,cs),
(418,-24,o),
(471,30,o),
(471,98,cs),
(471,174,o),
(418,220,o),
(342,220,cs),
(262,220,o),
(212,174,o),
(212,98,cs)
);
}
);
width = 682;
},
{
layerId = "4443E9CB-80E0-4C5A-B41E-D517E8EFB53E";
shapes = (
{
closed = 1;
nodes = (
(270,1356,l),
(270,675,l),
(300,328,l),
(386,328,l),
(417,675,l),
(417,1356,l)
);
},
{
closed = 1;
nodes = (
(233,26,o),
(269,-25,o),
(343,-25,cs),
(411,-25,o),
(449,29,o),
(450,81,c),
(450,146,o),
(405,186,o),
(343,186,cs),
(273,186,o),
(233,146,o),
(233,81,cs)
);
}
);
width = 682;
}
);
unicode = 33;
},
{
glyphname = quotedbl;
layers = (
{
layerId = "5F7E89D3-0E96-4E8F-898E-E76CB8D7C13D";
shapes = (
{
closed = 1;
nodes = (
(319,1356,l),
(319,907,l),
(522,907,l),
(600,1356,l)
);
},
{
closed = 1;
nodes = (
(641,1356,l),
(641,907,l),
(844,907,l),
(922,1356,l)
);
}
);
width = 1338;
},
{
layerId = "D9C3C1F3-1F14-4B11-A064-AC4F771295DD";
shapes = (
{
closed = 1;
nodes = (
(265,1356,l),
(265,933,l),
(431,933,l),
(505,1356,l)
);
},
{
closed = 1;
nodes = (
(574,1356,l),
(574,933,l),
(740,933,l),
(814,1356,l)
);
}
);
width = 1137;
},
{
layerId = "F307D2A1-D493-44D9-89F1-438E1120FCB6";
shapes = (
{
closed = 1;
nodes = (
(184,1356,l),
(184,972,l),
(294,972,l),
(362,1356,l)
);
},
{
closed = 1;
nodes = (
(474,1356,l),
(474,972,l),
(584,972,l),
(652,1356,l)
);
}
);
width = 836;
},
{
layerId = "4443E9CB-80E0-4C5A-B41E-D517E8EFB53E";
shapes = (
{
closed = 1;
nodes = (
(142,1356,l),
(142,993,l),
(223,993,l),
(288,1356,l)
);
},
{
closed = 1;
nodes = (
(423,1356,l),
(423,993,l),
(503,993,l),
(568,1356,l)
);
}
);
width = 680;
}
);
unicode = 34;
},
{
glyphname = numbersign;
layers = (
{
layerId = "5F7E89D3-0E96-4E8F-898E-E76CB8D7C13D";
shapes = (
{
closed = 1;
nodes = (
(516,370,l),
(447,86,l),
(704,86,l),
(771,370,l),
(862,370,l),
(920,604,l),
(831,604,l),
(877,771,l),
(967,771,l),
(1027,1005,l),
(936,1005,l),
(1004,1268,l),
(747,1268,l),
(679,1005,l),
(513,1005,l),
(578,1268,l),
(322,1268,l),
(254,1005,l),
(153,1005,l),
(99,771,l),
(196,771,l),
(154,604,l),
(51,604,l),
(-5,370,l),
(93,370,l),
(22,86,l),
(279,86,l),
(350,370,l)
);
},
{
closed = 1;
nodes = (
(409,604,l),
(451,771,l),
(620,771,l),
(578,604,l)
);
}
);
width = 1024;
},
{
layerId = "D9C3C1F3-1F14-4B11-A064-AC4F771295DD";
shapes = (
{
closed = 1;
nodes = (
(532,393,l),
(458,96,l),
(674,96,l),
(748,393,l),
(863,393,l),
(913,589,l),
(798,589,l),
(851,786,l),
(969,786,l),
(1020,982,l),
(901,982,l),
(973,1259,l),
(756,1259,l),
(684,982,l),
(497,982,l),
(567,1259,l),
(351,1259,l),
(279,982,l),
(154,982,l),
(108,786,l),
(229,786,l),
(179,589,l),
(50,589,l),
(3,393,l),
(128,393,l),
(53,96,l),
(270,96,l),
(345,393,l)
);
},
{
closed = 1;
nodes = (
(395,589,l),
(445,786,l),
(634,786,l),
(584,589,l)
);
}
);
width = 1024;
},
{
layerId = "F307D2A1-D493-44D9-89F1-438E1120FCB6";
shapes = (
{
closed = 1;
nodes = (
(556,428,l),
(475,111,l),
(629,111,l),
(713,428,l),
(865,428,l),
(902,567,l),
(749,567,l),
(812,808,l),
(972,808,l),
(1009,947,l),
(848,947,l),
(926,1245,l),
(769,1245,l),
(691,947,l),
(473,947,l),
(550,1245,l),
(394,1245,l),
(316,947,l),
(155,947,l),
(122,808,l),
(279,808,l),
(217,567,l),
(48,567,l),
(15,428,l),
(180,428,l),
(99,111,l),
(256,111,l),
(337,428,l)
);
},
{
closed = 1;
nodes = (
(374,567,l),
(436,808,l),
(655,808,l),
(593,567,l)
);
}
);
width = 1024;
},
{
layerId = "4443E9CB-80E0-4C5A-B41E-D517E8EFB53E";
shapes = (
{
closed = 1;
nodes = (
(568,447,l),
(484,119,l),
(605,119,l),
(694,447,l),
(866,447,l),
(896,556,l),
(723,556,l),
(791,819,l),
(974,819,l),
(1003,928,l),
(820,928,l),
(901,1238,l),
(776,1238,l),
(695,928,l),
(461,928,l),
(541,1238,l),
(417,1238,l),
(336,928,l),
(156,928,l),
(129,819,l),
(305,819,l),
(237,556,l),
(47,556,l),
(21,447,l),
(207,447,l),
(123,119,l),
(249,119,l),
(333,447,l)
);
},
{
closed = 1;
nodes = (
(363,556,l),
(431,819,l),
(666,819,l),
(598,556,l)
);
}
);
width = 1024;
}
);
unicode = 35;
},
{
glyphname = dollar;
layers = (
{
layerId = "5F7E89D3-0E96-4E8F-898E-E76CB8D7C13D";
shapes = (
{
closed = 1;
nodes = (
(380,-194,l),
(642,-194,l),
(642,-12,l),
(872,30,o),
(1011,166,o),
(1008,427,c),
(1006,667,o),
(843,753,o),
(642,825,c),
(642,1089,l),
(719,1075,o),
(800,1048,o),
(839,1032,c),
(923,1306,l),
(860,1337,o),
(781,1368,o),
(642,1379,c),
(642,1549,l),
(380,1549,l),
(380,1372,l),
(165,1334,o),
(17,1210,o),
(17,958,cs),
(17,707,o),
(200,605,o),
(380,544,c),
(380,260,l),
(262,271,o),
(173,299,o),
(126,328,c),
(31,45,l),
(95,14,o),
(216,-21,o),
(380,-26,c)
);
},
{
closed = 1;
nodes = (
(518,498,l),
(556,486,o),
(669,457,o),
(669,381,cs),
(669,317,o),
(642,264,o),
(518,254,c)
);
},
{
closed = 1;
nodes = (
(501,873,l),
(446,894,o),
(359,922,o),
(356,990,c),
(356,1047,o),
(351,1102,o),
(501,1103,c)
);
}
);
width = 1024;
},
{
layerId = "D9C3C1F3-1F14-4B11-A064-AC4F771295DD";
shapes = (
{
closed = 1;
nodes = (
(399,-194,l),
(617,-194,l),
(617,-13,l),
(851,26,o),
(985,162,o),
(983,405,c),
(983,641,o),
(808,729,o),
(617,804,c),
(617,1140,l),
(710,1128,o),
(790,1103,o),
(834,1083,c),
(907,1311,l),
(831,1347,o),
(742,1371,o),
(617,1379,c),
(617,1549,l),
(399,1549,l),
(399,1373,l),
(176,1339,o),
(42,1215,o),
(42,982,cs),
(42,737,o),
(222,641,o),
(399,575,c),
(399,211,l),
(272,220,o),
(181,250,o),
(129,279,c),
(48,44,l),
(115,11,o),
(238,-21,o),
(399,-26,c)
);
},
{
closed = 1;
nodes = (
(526,529,l),
(596,501,o),
(704,460,o),
(704,370,cs),
(704,279,o),
(653,221,o),
(526,209,c)
);
},
{
closed = 1;
nodes = (
(489,852,l),
(421,881,o),
(323,920,o),
(321,1007,c),
(321,1090,o),
(353,1143,o),
(489,1148,c)
);
}
);
width = 1024;
},
{
layerId = "F307D2A1-D493-44D9-89F1-438E1120FCB6";
shapes = (
{
closed = 1;
nodes = (
(428,-194,l),
(580,-194,l),
(580,-15,l),
(820,20,o),
(946,156,o),
(946,372,c),
(949,602,o),
(756,693,o),
(580,773,c),
(580,1216,l),
(697,1208,o),
(775,1185,o),
(827,1160,c),
(883,1319,l),
(788,1362,o),
(683,1376,o),
(580,1379,c),
(580,1549,l),
(428,1549,l),
(428,1375,l),
(193,1347,o),
(79,1222,o),
(79,1018,cs),
(79,782,o),
(255,695,o),
(428,621,c),
(428,137,l),
(287,144,o),
(193,176,o),
(133,205,c),
(73,43,l),
(145,6,o),
(271,-21,o),
(428,-26,c)
);
},
{
closed = 1;
nodes = (
(538,575,l),
(656,524,o),
(757,465,o),
(757,353,cs),
(757,222,o),
(670,157,o),
(538,142,c)
);
},
{
closed = 1;
nodes = (
(471,821,l),
(383,861,o),
(269,917,o),
(269,1033,cs),
(269,1154,o),
(356,1205,o),
(471,1216,c)
);
}
);
width = 1024;
},
{
layerId = "4443E9CB-80E0-4C5A-B41E-D517E8EFB53E";
shapes = (
{
closed = 1;
nodes = (
(443,-194,l),
(560,-194,l),
(560,-16,l),
(804,17,o),
(925,153,o),
(926,355,c),
(932,581,o),
(729,674,o),
(560,757,c),
(560,1255,l),
(690,1249,o),
(767,1227,o),
(823,1200,c),
(871,1323,l),
(765,1370,o),
(652,1379,o),
(560,1379,c),
(560,1549,l),
(443,1549,l),
(443,1376,l),
(202,1351,o),
(99,1226,o),
(99,1037,cs),
(99,806,o),
(272,723,o),
(443,645,c),
(443,99,l),
(295,105,o),
(199,138,o),
(135,167,c),
(86,42,l),
(160,3,o),
(288,-21,o),
(443,-26,c)
);
},
{
closed = 1;
nodes = (
(544,599,l),
(687,536,o),
(785,468,o),
(785,344,cs),
(785,192,o),
(679,124,o),
(544,107,c)
);
},
{
closed = 1;
nodes = (
(462,805,l),
(363,851,o),
(241,915,o),
(242,1046,c),
(242,1187,o),
(358,1237,o),
(462,1251,c)
);
}
);
width = 1024;
}
);
unicode = 36;
},
{
glyphname = percent;
layers = (
{
layerId = "5F7E89D3-0E96-4E8F-898E-E76CB8D7C13D";
shapes = (
{
closed = 1;
nodes = (
(161,808,o),
(319,721,o),
(553,721,cs),
(779,721,o),
(943,808,o),
(943,1050,cs),
(943,1289,o),
(779,1379,o),
(553,1379,cs),
(319,1379,o),
(161,1280,o),
(161,1050,cs)
);
},
{
closed = 1;
nodes = (
(458,1165,o),
(494,1181,o),
(553,1181,cs),
(610,1181,o),
(643,1165,o),
(643,1050,cs),
(643,934,o),
(611,918,o),
(553,918,cs),
(473,918,o),
(458,976,o),
(458,1050,cs)
);
},
{
closed = 1;
nodes = (
(1335,87,o),
(1496,0,o),
(1726,0,cs),
(1953,0,o),
(2115,87,o),
(2115,329,cs),
(2115,569,o),
(1953,658,o),
(1726,658,cs),
(1496,658,o),
(1335,561,o),
(1335,329,cs)
);
},
{
closed = 1;
nodes = (
(1631,445,o),
(1665,462,o),
(1726,462,cs),
(1783,462,o),
(1816,443,o),
(1816,329,cs),
(1816,237,o),
(1802,196,o),
(1726,196,cs),
(1645,196,o),
(1631,254,o),
(1631,329,cs)
);
},
{
closed = 1;
nodes = (
(1385,1378,l),
(666,33,l),
(855,-76,l),
(1573,1256,l)
);
}
);
width = 2276;
},
{
layerId = "D9C3C1F3-1F14-4B11-A064-AC4F771295DD";
shapes = (
{
closed = 1;
nodes = (
(150,810,o),
(301,721,o),
(518,721,cs),
(730,721,o),
(886,810,o),
(886,1050,cs),
(886,1288,o),
(730,1379,o),
(518,1379,cs),
(301,1379,o),
(150,1279,o),
(150,1050,cs)
);
},
{
closed = 1;
nodes = (
(396,1166,o),
(430,1210,o),
(518,1210,cs),
(605,1210,o),
(638,1166,o),
(638,1050,cs),
(638,934,o),
(605,889,o),
(518,889,cs),
(427,889,o),
(396,949,o),
(396,1050,cs)
);
},
{
closed = 1;
nodes = (
(1163,89,o),
(1316,0,o),
(1531,0,cs),
(1744,0,o),
(1898,89,o),
(1898,329,cs),
(1898,568,o),
(1744,658,o),
(1531,658,cs),
(1316,658,o),
(1163,559,o),
(1163,329,cs)
);
},
{
closed = 1;
nodes = (
(1409,445,o),
(1442,490,o),
(1531,490,cs),
(1618,490,o),
(1651,445,o),
(1651,329,cs),
(1651,213,o),
(1618,168,o),
(1531,168,cs),
(1440,168,o),
(1409,228,o),
(1409,329,cs)
);
},
{
closed = 1;
nodes = (
(1372,1379,l),
(498,48,l),
(656,-56,l),
(1530,1269,l)
);
}
);
width = 2048;
},
{
layerId = "F307D2A1-D493-44D9-89F1-438E1120FCB6";
shapes = (
{
closed = 1;
nodes = (
(133,813,o),
(274,721,o),
(466,721,cs),
(657,721,o),
(801,813,o),
(801,1050,cs),
(801,1287,o),
(657,1379,o),
(466,1379,cs),
(274,1379,o),
(133,1277,o),
(133,1050,cs)
);
},
{
closed = 1;
nodes = (
(303,1167,o),
(334,1253,o),
(466,1253,cs),
(598,1253,o),
(630,1168,o),
(630,1050,cs),
(630,934,o),
(596,846,o),
(466,846,cs),
(358,846,o),
(303,909,o),
(303,1050,cs)
);
},
{
closed = 1;
nodes = (
(905,92,o),
(1046,0,o),
(1238,0,cs),
(1430,0,o),
(1573,92,o),
(1573,329,cs),
(1573,566,o),
(1430,658,o),
(1238,658,cs),
(1046,658,o),
(905,556,o),
(905,329,cs)
);
},
{
closed = 1;
nodes = (
(1076,445,o),
(1107,532,o),
(1238,532,cs),
(1370,532,o),
(1403,448,o),
(1403,329,cs),
(1403,177,o),
(1342,126,o),
(1238,126,cs),
(1133,126,o),
(1076,189,o),
(1076,329,cs)
);
},
{
closed = 1;
nodes = (
(1353,1381,l),
(246,70,l),
(357,-26,l),
(1465,1288,l)
);
}
);
width = 1706;
},
{
layerId = "4443E9CB-80E0-4C5A-B41E-D517E8EFB53E";
shapes = (
{
closed = 1;
nodes = (
(124,815,o),
(260,721,o),
(439,721,cs),
(619,721,o),
(757,815,o),
(757,1050,cs),
(757,1286,o),
(619,1379,o),
(439,1379,cs),
(260,1379,o),
(124,1276,o),
(124,1050,cs)
);
},
{
closed = 1;
nodes = (
(255,1168,o),
(285,1276,o),
(439,1276,cs),
(594,1276,o),
(626,1169,o),
(626,1050,cs),
(626,934,o),
(591,823,o),
(439,823,cs),
(322,823,o),
(255,888,o),
(255,1050,cs)
);
},
{
closed = 1;
nodes = (
(771,94,o),
(906,0,o),
(1087,0,cs),
(1268,0,o),
(1404,94,o),
(1404,329,cs),
(1404,565,o),
(1268,658,o),
(1087,658,cs),
(906,658,o),
(771,554,o),
(771,329,cs)
);
},
{
closed = 1;
nodes = (
(903,445,o),
(933,554,o),
(1087,554,cs),
(1241,554,o),
(1274,450,o),
(1274,329,cs),
(1274,158,o),
(1199,104,o),
(1087,104,cs),
(974,104,o),
(903,168,o),
(903,329,cs)
);
},
{
closed = 1;
nodes = (
(1343,1382,l),
(115,81,l),
(203,-11,l),
(1431,1298,l)
);
}
);
width = 1529;
}
);
unicode = 37;
},
{
glyphname = ampersand;
layers = (
{
layerId = "5F7E89D3-0E96-4E8F-898E-E76CB8D7C13D";
shapes = (
{
closed = 1;
nodes = (
(162,96,o),
(373,-28,o),
(671,-28,cs),
(867,-28,o),
(1016,-22,o),
(1230,145,c),
(1299,86,o),
(1453,1,o),
(1525,-28,c),
(1705,212,l),
(1660,234,o),
(1486,328,o),
(1447,361,c),
(1502,413,o),
(1587,483,o),
(1667,614,c),
(1430,753,l),
(1366,648,o),
(1287,574,o),
(1223,509,c),
(1141,556,o),
(1069,626,o),
(962,768,c),
(1082,812,o),
(1250,925,o),
(1250,1107,cs),
(1250,1246,o),
(1149,1383,o),
(873,1383,cs),
(580,1383,o),
(444,1220,o),
(444,1079,cs),
(444,990,o),
(499,877,o),
(574,815,c),
(316,702,o),
(162,541,o),
(162,351,cs)
);
},
{
closed = 1;
nodes = (
(875,228,o),
(763,247,o),
(694,247,cs),
(592,247,o),
(490,281,o),
(490,407,cs),
(490,490,o),
(574,585,o),
(711,622,c),
(786,510,o),
(909,410,o),
(1018,324,c)
);
},
{
closed = 1;
nodes = (
(769,1107,o),
(842,1150,o),
(884,1150,cs),
(957,1150,o),
(1004,1129,o),
(1004,1075,cs),
(1004,1031,o),
(964,946,o),
(854,911,c),
(806,960,o),
(769,1019,o),
(769,1060,cs)
);
}
);
width = 1781;
},
{
layerId = "D9C3C1F3-1F14-4B11-A064-AC4F771295DD";
shapes = (
{
closed = 1;
nodes = (
(162,105,o),
(380,-27,o),
(665,-27,cs),
(872,-27,o),
(1019,12,o),
(1187,148,c),
(1264,79,o),
(1393,5,o),
(1465,-27,c),
(1616,170,l),
(1558,197,o),
(1429,270,o),
(1360,328,c),
(1420,390,o),
(1510,496,o),
(1571,610,c),
(1373,722,l),
(1320,618,o),
(1246,521,o),
(1182,457,c),
(1078,538,o),
(980,641,o),
(876,786,c),
(1028,853,o),
(1162,970,o),
(1162,1121,cs),
(1162,1250,o),
(1070,1382,o),
(810,1382,cs),
(543,1382,o),
(426,1232,o),
(426,1098,cs),
(426,1003,o),
(481,900,o),
(553,826,c),
(321,717,o),
(162,552,o),
(162,357,cs)
);
},
{
closed = 1;
nodes = (
(904,215,o),
(785,200,o),
(689,200,cs),
(555,200,o),
(433,258,o),
(433,394,cs),
(433,509,o),
(537,610,o),
(669,666,c),
(749,551,o),
(887,410,o),
(1015,300,c)
);
},
{
closed = 1;
nodes = (
(694,1142,o),
(754,1187,o),
(819,1187,cs),
(906,1187,o),
(949,1154,o),
(949,1088,cs),
(949,1041,o),
(905,963,o),
(781,909,c),
(730,969,o),
(694,1032,o),
(694,1085,cs)
);
}
);
width = 1706;
},
{
layerId = "F307D2A1-D493-44D9-89F1-438E1120FCB6";
shapes = (
{
closed = 1;
nodes = (
(162,119,o),
(390,-26,o),
(656,-26,cs),
(880,-26,o),
(1023,63,o),
(1123,153,c),
(1212,69,o),
(1303,11,o),
(1375,-26,c),
(1483,107,l),
(1405,142,o),
(1344,183,o),
(1229,279,c),
(1297,355,o),
(1395,515,o),
(1427,604,c),
(1288,676,l),
(1251,573,o),
(1184,442,o),
(1121,379,c),
(984,511,o),
(847,664,o),
(747,813,c),
(947,914,o),
(1030,1037,o),
(1030,1142,cs),
(1030,1256,o),
(952,1381,o),
(715,1381,cs),
(487,1381,o),
(399,1250,o),
(399,1127,cs),
(399,1022,o),
(454,934,o),
(521,843,c),
(329,739,o),
(162,569,o),
(162,366,cs)
);
},
{
closed = 1;
nodes = (
(948,196,o),
(818,130,o),
(682,130,cs),
(499,130,o),
(347,223,o),
(347,374,cs),
(347,538,o),
(481,648,o),
(606,732,c),
(694,612,o),
(854,410,o),
(1011,264,c)
);
},
{
closed = 1;
nodes = (
(582,1195,o),
(622,1242,o),
(722,1242,cs),
(830,1242,o),
(867,1191,o),
(867,1107,cs),
(867,1056,o),
(816,989,o),
(672,906,c),
(616,982,o),
(582,1051,o),
(582,1123,cs)
);
}
);
width = 1593;
},
{
layerId = "4443E9CB-80E0-4C5A-B41E-D517E8EFB53E";
shapes = (
{
closed = 1;
nodes = (
(162,126,o),
(395,-25,o),
(651,-25,cs),
(884,-25,o),
(1025,90,o),
(1090,156,c),
(1185,64,o),
(1257,14,o),
(1329,-25,c),
(1414,74,l),
(1326,113,o),
(1300,138,o),
(1161,253,c),
(1233,336,o),
(1335,525,o),
(1353,601,c),
(1244,652,l),
(1215,549,o),
(1152,401,o),
(1089,339,c),
(936,497,o),
(778,676,o),
(680,827,c),
(905,946,o),
(962,1072,o),
(962,1153,cs),
(962,1259,o),
(891,1380,o),
(666,1380,cs),
(458,1380,o),
(385,1259,o),
(385,1142,cs),
(385,1032,o),
(440,951,o),
(505,852,c),
(333,750,o),
(162,578,o),
(162,371,cs)
);
},
{
closed = 1;
nodes = (
(971,186,o),
(835,94,o),
(678,94,cs),
(470,94,o),
(303,204,o),
(303,364,cs),
(303,553,o),
(452,668,o),
(573,766,c),
(665,644,o),
(837,410,o),
(1009,245,c)
);
},
{
closed = 1;
nodes = (
(524,1223,o),
(554,1271,o),
(672,1271,cs),
(791,1271,o),
(825,1211,o),
(825,1117,cs),
(825,1064,o),
(770,1002,o),
(615,904,c),
(557,989,o),
(524,1061,o),
(524,1143,cs)
);
}
);
width = 1534;
}
);
unicode = 38;
},
{
glyphname = quotesingle;
layers = (
{
layerId = "5F7E89D3-0E96-4E8F-898E-E76CB8D7C13D";
shapes = (
{
closed = 1;
nodes = (
(188,1356,l),
(188,907,l),
(392,907,l),
(470,1356,l)
);
}
);
width = 702;
},
{
layerId = "D9C3C1F3-1F14-4B11-A064-AC4F771295DD";
shapes = (
{
closed = 1;
nodes = (
(164,1356,l),
(164,933,l),
(330,933,l),
(404,1356,l)
);
}
);
width = 569;
},
{
layerId = "F307D2A1-D493-44D9-89F1-438E1120FCB6";
shapes = (
{
closed = 1;
nodes = (
(128,1356,l),
(128,972,l),
(237,972,l),
(305,1356,l)
);
}
);
width = 369;
},
{
layerId = "4443E9CB-80E0-4C5A-B41E-D517E8EFB53E";
shapes = (
{
closed = 1;
nodes = (
(109,1356,l),
(109,993,l),
(189,993,l),
(254,1356,l)
);
}
);
width = 265;
}
);
unicode = 39;
},
{
glyphname = parenleft;
layers = (
{
layerId = "5F7E89D3-0E96-4E8F-898E-E76CB8D7C13D";
shapes = (
{
closed = 1;
nodes = (
(673,-284,l),
(589,-179,o),
(526,-51,o),
(487,80,cs),
(449,209,o),
(426,345,o),
(426,471,cs),
(426,601,o),
(445,737,o),
(482,868,cs),
(517,999,o),
(582,1127,o),
(668,1237,c),
(453,1379,l),
(323,1247,o),
(232,1093,o),
(176,933,cs),
(119,772,o),
(96,612,o),
(96,471,cs),
(96,326,o),
(119,163,o),
(175,7,c),
(229,-150,o),
(314,-302,o),
(445,-426,c)
);
}
);
width = 682;
},
{
layerId = "D9C3C1F3-1F14-4B11-A064-AC4F771295DD";
shapes = (
{
closed = 1;
nodes = (
(652,-306,l),
(560,-198,o),
(493,-65,o),
(451,71,cs),
(409,206,o),
(387,346,o),
(387,471,cs),
(387,602,o),
(405,740,o),
(445,875,cs),
(484,1010,o),
(552,1143,o),
(648,1260,c),
(474,1379,l),
(343,1247,o),
(252,1092,o),
(196,933,cs),
(139,773,o),
(116,612,o),
(116,471,cs),
(116,326,o),
(139,163,o),
(195,7,cs),
(250,-150,o),
(336,-302,o),
(467,-426,c)
);
}
);
width = 682;
},
{
layerId = "F307D2A1-D493-44D9-89F1-438E1120FCB6";
shapes = (
{
closed = 1;
nodes = (
(620,-339,l),
(516,-226,o),
(444,-86,o),
(397,58,cs),
(349,201,o),
(328,347,o),
(328,471,cs),
(328,603,o),
(345,745,o),
(390,886,cs),
(434,1027,o),
(507,1167,o),
(618,1295,c),
(506,1379,l),
(373,1247,o),
(282,1091,o),
(226,933,cs),
(169,775,o),
(146,612,o),
(146,471,cs),
(146,326,o),
(169,163,o),
(225,7,cs),
(281,-150,o),
(369,-302,o),
(500,-426,c)
);
}
);
width = 682;
},
{
layerId = "4443E9CB-80E0-4C5A-B41E-D517E8EFB53E";
shapes = (
{
closed = 1;
nodes = (
(604,-356,l),
(493,-240,o),
(418,-97,o),
(369,51,c),
(318,198,o),
(297,348,o),
(297,471,cs),
(297,604,o),
(314,748,o),
(361,892,cs),
(408,1036,o),
(483,1179,o),
(603,1314,c),
(522,1379,l),
(388,1247,o),
(297,1090,o),
(241,933,cs),
(184,776,o),
(161,612,o),
(161,471,cs),
(161,326,o),
(184,163,o),
(240,7,cs),
(297,-150,o),
(386,-302,o),
(517,-426,c)
);
}
);
width = 682;
}
);
unicode = 40;
},
{
glyphname = parenright;
layers = (
{
layerId = "5F7E89D3-0E96-4E8F-898E-E76CB8D7C13D";
shapes = (
{
closed = 1;
nodes = (
(237,-426,l),
(368,-302,o),
(453,-150,o),
(509,7,cs),
(563,163,o),
(586,326,o),
(586,471,cs),
(586,612,o),
(563,772,o),
(507,933,c),
(450,1093,o),
(359,1247,o),
(229,1379,c),
(14,1237,l),
(102,1127,o),
(165,999,o),
(202,868,cs),
(239,737,o),
(256,601,o),
(256,471,cs),
(256,345,o),
(235,209,o),
(196,80,cs),
(158,-51,o),
(93,-179,o),
(9,-284,c)
);
}
);
width = 682;
},
{
layerId = "D9C3C1F3-1F14-4B11-A064-AC4F771295DD";
shapes = (
{
closed = 1;
nodes = (
(215,-426,l),
(346,-302,o),
(432,-150,o),
(488,7,cs),
(543,163,o),
(566,326,o),
(566,471,cs),
(566,612,o),
(543,773,o),
(487,933,cs),
(430,1092,o),
(339,1247,o),
(208,1379,c),
(34,1260,l),
(131,1143,o),
(198,1010,o),
(238,875,cs),
(278,740,o),
(295,602,o),
(295,471,cs),
(295,346,o),
(274,206,o),
(232,71,cs),
(190,-65,o),
(122,-198,o),
(30,-306,c)
);
}
);
width = 682;
},
{
layerId = "F307D2A1-D493-44D9-89F1-438E1120FCB6";
shapes = (
{
closed = 1;
nodes = (
(182,-426,l),
(313,-302,o),
(401,-150,o),
(457,7,cs),
(513,163,o),
(536,326,o),
(536,471,cs),
(536,612,o),
(513,775,o),
(457,933,cs),
(400,1091,o),
(309,1247,o),
(176,1379,c),
(64,1295,l),
(175,1167,o),
(247,1026,o),
(292,886,cs),
(337,745,o),
(354,603,o),
(354,471,cs),
(354,347,o),
(333,201,o),
(286,58,cs),
(238,-86,o),
(166,-226,o),
(62,-339,c)
);
}
);
width = 682;
},
{
layerId = "4443E9CB-80E0-4C5A-B41E-D517E8EFB53E";
shapes = (
{
closed = 1;
nodes = (
(165,-426,l),
(296,-302,o),
(385,-150,o),
(441,7,c),
(498,163,o),
(521,326,o),
(521,471,cs),
(521,612,o),
(498,776,o),
(442,933,cs),
(385,1090,o),
(294,1247,o),
(160,1379,c),
(79,1314,l),
(198,1179,o),
(273,1034,o),
(320,892,cs),
(368,748,o),
(385,604,o),
(385,471,cs),
(385,348,o),
(364,198,o),
(314,51,cs),
(263,-97,o),
(189,-240,o),
(78,-356,c)
);
}
);
width = 682;
}
);
unicode = 41;
},
{
glyphname = asterisk;
layers = (
{
layerId = "5F7E89D3-0E96-4E8F-898E-E76CB8D7C13D";
shapes = (
{
closed = 1;
nodes = (
(433,1437,l),
(299,1358,l),
(351,1270,l),
(447,1199,l),
(350,1235,l),
(233,1235,l),
(233,1082,l),
(347,1082,l),
(441,1115,l),
(360,1062,l),
(302,963,l),
(433,887,l),
(491,984,l),
(507,1082,l),
(536,970,l),
(585,883,l),
(721,959,l),
(673,1039,l),
(580,1118,l),
(684,1082,l),
(791,1082,l),
(791,1232,l),
(678,1232,l),
(569,1199,l),
(656,1264,l),
(714,1365,l),
(582,1437,l),
(528,1344,l),
(509,1249,l),
(486,1354,l)
);
}
);
width = 1024;
},
{
layerId = "D9C3C1F3-1F14-4B11-A064-AC4F771295DD";
shapes = (
{
closed = 1;
nodes = (
(419,1423,l),
(287,1347,l),
(346,1249,l),
(450,1162,l),
(328,1197,l),
(206,1197,l),
(206,1046,l),
(326,1046,l),
(442,1079,l),
(350,1007,l),
(287,906,l),
(419,831,l),
(479,931,l),
(506,1046,l),
(547,920,l),
(603,826,l),
(734,900,l),
(682,987,l),
(579,1081,l),
(706,1046,l),
(818,1046,l),
(818,1195,l),
(701,1195,l),
(566,1162,l),
(665,1247,l),
(727,1352,l),
(597,1423,l),
(539,1325,l),
(508,1214,l),
(477,1332,l)
);
}
);
width = 1024;
},
{
layerId = "F307D2A1-D493-44D9-89F1-438E1120FCB6";
shapes = (
{
closed = 1;
nodes = (
(398,1402,l),
(269,1330,l),
(338,1217,l),
(454,1107,l),
(295,1140,l),
(166,1140,l),
(166,992,l),
(295,992,l),
(443,1025,l),
(335,925,l),
(264,820,l),
(398,747,l),
(461,852,l),
(505,992,l),
(563,845,l),
(630,740,l),
(753,812,l),
(695,909,l),
(578,1025,l),
(739,992,l),
(858,992,l),
(858,1140,l),
(735,1140,l),
(561,1107,l),
(678,1222,l),
(746,1332,l),
(619,1402,l),
(556,1297,l),
(507,1162,l),
(463,1299,l)
);
}
);
width = 1024;
},
{
layerId = "4443E9CB-80E0-4C5A-B41E-D517E8EFB53E";
shapes = (
{
closed = 1;
nodes = (
(387,1391,l),
(260,1321,l),
(334,1201,l),
(456,1078,l),
(278,1110,l),
(145,1110,l),
(145,964,l),
(279,964,l),
(444,997,l),
(327,883,l),
(252,776,l),
(387,704,l),
(452,811,l),
(504,964,l),
(571,806,l),
(644,696,l),
(763,767,l),
(702,869,l),
(577,996,l),
(756,964,l),
(879,964,l),
(879,1111,l),
(752,1111,l),
(558,1078,l),
(685,1209,l),
(756,1322,l),
(630,1391,l),
(565,1283,l),
(506,1135,l),
(456,1282,l)
);
}
);
width = 1024;
}
);
unicode = 42;
},
{
glyphname = plus;
layers = (
{
layerId = "5F7E89D3-0E96-4E8F-898E-E76CB8D7C13D";
shapes = (
{
closed = 1;
nodes = (
(121,792,l),
(121,513,l),
(443,513,l),
(443,176,l),
(732,176,l),
(732,513,l),
(1053,513,l),
(1053,792,l),
(732,792,l),
(732,1129,l),
(443,1129,l),
(443,792,l)
);
}
);
width = 1175;
},
{
layerId = "D9C3C1F3-1F14-4B11-A064-AC4F771295DD";
shapes = (
{
closed = 1;
nodes = (
(122,769,l),
(122,536,l),
(463,536,l),
(463,186,l),
(703,186,l),
(703,536,l),
(1044,536,l),
(1044,769,l),
(703,769,l),
(703,1118,l),
(463,1118,l),
(463,769,l)
);
}
);
width = 1167;
},
{
layerId = "F307D2A1-D493-44D9-89F1-438E1120FCB6";
shapes = (
{
closed = 1;
nodes = (
(124,734,l),
(124,571,l),
(493,571,l),
(493,201,l),
(660,201,l),
(660,571,l),
(1030,571,l),
(1030,734,l),
(660,734,l),
(660,1102,l),
(493,1102,l),
(493,734,l)
);
}
);
width = 1155;
},
{
layerId = "4443E9CB-80E0-4C5A-B41E-D517E8EFB53E";
shapes = (
{
closed = 1;
nodes = (
(125,715,l),
(125,590,l),
(508,590,l),
(508,209,l),
(637,209,l),
(637,590,l),
(1023,590,l),
(1023,715,l),
(637,715,l),
(637,1094,l),
(508,1094,l),
(508,715,l)
);
}
);
width = 1149;
}
);
unicode = 43;
},
{
glyphname = comma;
layers = (
{
layerId = "5F7E89D3-0E96-4E8F-898E-E76CB8D7C13D";
shapes = (
{
closed = 1;
nodes = (
(68,98,o),
(84,58,o),
(115,34,cs),
(145,10,o),
(174,-5,o),
(201,-7,c),
(192,-42,o),
(173,-74,o),
(147,-103,cs),
(120,-132,o),
(91,-149,o),
(62,-156,c),
(156,-285,l),
(263,-251,o),
(467,-170,o),
(467,105,cs),
(467,224,o),
(393,322,o),
(256,322,cs),
(155,322,o),
(68,268,o),
(68,156,cs)
);
}
);
width = 512;
},
{
layerId = "D9C3C1F3-1F14-4B11-A064-AC4F771295DD";
shapes = (
{
closed = 1;
nodes = (
(96,79,o),
(111,43,o),
(140,21,cs),
(169,-1,o),
(199,-11,o),
(229,-8,c),
(224,-44,o),
(208,-78,o),
(182,-110,cs),
(156,-142,o),
(124,-163,o),
(87,-174,c),
(165,-287,l),
(272,-255,o),
(447,-169,o),
(447,76,cs),
(447,191,o),
(378,275,o),
(259,275,cs),
(171,275,o),
(96,224,o),
(96,130,cs)
);
}
);
width = 512;
},
{
layerId = "F307D2A1-D493-44D9-89F1-438E1120FCB6";
shapes = (
{
closed = 1;
nodes = (
(138,50,o),
(151,20,o),
(178,1,cs),
(205,-17,o),
(236,-20,o),
(271,-9,c),
(272,-47,o),
(260,-84,o),
(235,-121,cs),
(210,-157,o),
(173,-184,o),
(124,-201,c),
(179,-290,l),
(285,-261,o),
(417,-168,o),
(417,33,cs),
(417,141,o),
(356,205,o),
(264,205,cs),
(195,205,o),
(138,158,o),
(138,91,cs)
);
}
);
width = 512;
},
{
layerId = "4443E9CB-80E0-4C5A-B41E-D517E8EFB53E";
shapes = (
{
closed = 1;
nodes = (
(160,35,o),
(172,8,o),
(198,-9,cs),
(224,-25,o),
(256,-25,o),
(293,-10,c),
(297,-49,o),
(287,-87,o),
(263,-127,c),
(238,-165,o),
(199,-195,o),
(144,-215,c),
(186,-292,l),
(292,-264,o),
(402,-167,o),
(402,10,cs),
(402,115,o),
(345,169,o),
(267,169,cs),
(207,169,o),
(160,124,o),
(160,70,cs)
);
}
);
width = 512;
}
);
unicode = 44;
},
{
glyphname = hyphen;
layers = (
{
layerId = "5F7E89D3-0E96-4E8F-898E-E76CB8D7C13D";
shapes = (
{
closed = 1;
nodes = (
(73,701,l),
(73,412,l),
(609,412,l),
(609,701,l)
);
}
);
width = 682;
},
{
layerId = "D9C3C1F3-1F14-4B11-A064-AC4F771295DD";
shapes = (
{
closed = 1;
nodes = (
(77,678,l),
(77,438,l),
(605,438,l),
(605,678,l)
);
}
);
width = 682;
},
{
layerId = "F307D2A1-D493-44D9-89F1-438E1120FCB6";
shapes = (
{
closed = 1;
nodes = (
(83,643,l),
(83,477,l),
(599,477,l),
(599,643,l)
);
}
);
width = 682;
},
{
layerId = "4443E9CB-80E0-4C5A-B41E-D517E8EFB53E";
shapes = (
{
closed = 1;
nodes = (
(86,624,l),
(86,498,l),
(596,498,l),
(596,624,l)
);
}
);
width = 682;
}
);
unicode = (45,173);
},
{
glyphname = period;
layers = (
{
layerId = "5F7E89D3-0E96-4E8F-898E-E76CB8D7C13D";
shapes = (
{
closed = 1;
nodes = (
(59,39,o),
(153,-21,o),
(253,-21,cs),
(355,-21,o),
(454,33,o),
(451,153,c),
(451,262,o),
(375,328,o),
(253,328,cs),
(139,328,o),
(59,262,o),
(59,153,cs)
);
}
);
width = 512;
},
{
layerId = "D9C3C1F3-1F14-4B11-A064-AC4F771295DD";
shapes = (
{
closed = 1;
nodes = (
(86,35,o),
(162,-22,o),
(254,-22,cs),
(346,-22,o),
(427,32,o),
(425,131,c),
(425,227,o),
(358,285,o),
(254,285,cs),
(154,285,o),
(86,227,o),
(86,131,cs)
);
}
);
width = 512;
},
{
layerId = "F307D2A1-D493-44D9-89F1-438E1120FCB6";
shapes = (
{
closed = 1;
nodes = (
(126,29,o),
(176,-24,o),
(256,-24,cs),
(333,-24,o),
(386,30,o),
(386,98,cs),
(386,174,o),
(333,220,o),
(256,220,cs),
(176,220,o),
(126,174,o),
(126,98,cs)
);
}
);
width = 512;
},
{
layerId = "4443E9CB-80E0-4C5A-B41E-D517E8EFB53E";
shapes = (
{
closed = 1;
nodes = (
(147,26,o),
(183,-25,o),
(257,-25,cs),
(326,-25,o),
(364,29,o),
(365,81,c),
(365,146,o),
(320,186,o),
(257,186,cs),
(187,186,o),
(147,146,o),
(147,81,cs)
);
}
);
width = 512;
}
);
unicode = 46;
},
{
glyphname = slash;
layers = (
{
layerId = "5F7E89D3-0E96-4E8F-898E-E76CB8D7C13D";
shapes = (
{
closed = 1;
nodes = (
(382,1376,l),
(-86,-319,l),
(197,-383,l),
(656,1311,l)
);
}
);
width = 569;
},
{
layerId = "D9C3C1F3-1F14-4B11-A064-AC4F771295DD";
shapes = (
{
closed = 1;
nodes = (
(428,1377,l),
(-81,-272,l),
(146,-338,l),
(650,1312,l)
);
}
);
width = 569;
},
{
layerId = "F307D2A1-D493-44D9-89F1-438E1120FCB6";
shapes = (
{
closed = 1;
nodes = (
(497,1379,l),
(-73,-201,l),
(69,-271,l),
(641,1313,l)
);
}
);
width = 569;
},
{
layerId = "4443E9CB-80E0-4C5A-B41E-D517E8EFB53E";
shapes = (
{
closed = 1;
nodes = (
(584,1380,l),
(-120,-164,l),
(-23,-236,l),
(688,1314,l)
);
}
);
width = 569;
}
);
unicode = 47;
},
{
glyphname = zero;
layers = (
{
layerId = "5F7E89D3-0E96-4E8F-898E-E76CB8D7C13D";
shapes = (
{
closed = 1;
nodes = (
(63,190,o),
(235,-29,o),
(514,-29,cs),
(768,-29,o),
(961,150,o),
(961,676,cs),
(961,1195,o),
(766,1383,o),
(513,1383,cs),
(216,1383,o),
(63,1143,o),
(63,676,cs)
);
},
{
closed = 1;
nodes = (
(402,954,o),
(400,1110,o),
(513,1110,cs),
(611,1110,o),
(622,987,o),
(622,676,cs),
(622,402,o),
(626,243,o),
(513,243,cs),
(401,243,o),
(402,366,o),
(402,676,cs)
);
}
);
width = 1024;
},
{
layerId = "D9C3C1F3-1F14-4B11-A064-AC4F771295DD";
shapes = (
{
closed = 1;
nodes = (
(70,216,o),
(215,-28,o),
(512,-28,cs),
(809,-28,o),
(954,216,o),
(954,677,cs),
(954,1138,o),
(809,1382,o),
(512,1382,cs),
(215,1382,o),
(70,1138,o),
(70,677,cs)
);
},
{
closed = 1;
nodes = (
(349,989,o),
(367,1156,o),
(512,1156,cs),
(656,1156,o),
(675,989,o),
(675,677,cs),
(675,365,o),
(657,198,o),
(512,198,cs),
(368,198,o),
(349,365,o),
(349,677,cs)
);
}
);
width = 1024;
},
{
layerId = "F307D2A1-D493-44D9-89F1-438E1120FCB6";
shapes = (
{
closed = 1;
nodes = (
(80,255,o),
(185,-26,o),
(509,-26,cs),
(870,-26,o),
(944,315,o),
(944,678,cs),
(944,1052,o),
(874,1381,o),
(511,1381,cs),
(214,1381,o),
(80,1130,o),
(80,678,cs)
);
},
{
closed = 1;
nodes = (
(270,1042,o),
(318,1225,o),
(511,1225,cs),
(723,1225,o),
(755,992,o),
(755,678,cs),
(755,309,o),
(704,130,o),
(511,130,cs),
(318,130,o),
(270,364,o),
(270,678,cs)
);
}
);
width = 1024;
},
{
layerId = "4443E9CB-80E0-4C5A-B41E-D517E8EFB53E";
shapes = (
{
closed = 1;
nodes = (
(85,276,o),
(170,-25,o),
(507,-25,cs),
(902,-25,o),
(939,366,o),
(939,679,cs),
(939,1008,o),
(908,1380,o),
(510,1380,cs),
(213,1380,o),
(85,1126,o),
(85,679,cs)
);
},
{
closed = 1;
nodes = (
(229,1070,o),
(292,1261,o),
(510,1261,cs),
(758,1261,o),
(796,994,o),
(796,679,cs),
(796,280,o),
(729,95,o),
(510,95,cs),
(292,95,o),
(229,363,o),
(229,679,cs)
);
}
);
width = 1024;
}
);
unicode = 48;
},
{
glyphname = one;
layers = (
{
layerId = "5F7E89D3-0E96-4E8F-898E-E76CB8D7C13D";
shapes = (
{
closed = 1;
nodes = (
(139,270,l),
(139,0,l),
(957,0,l),
(957,270,l),
(710,270,l),
(710,1358,l),
(511,1358,l),
(67,1011,l),
(191,822,l),
(291,884,l),
(401,1000,l),
(394,840,l),
(394,270,l)
);
}
);
width = 1024;
},
{
layerId = "D9C3C1F3-1F14-4B11-A064-AC4F771295DD";
shapes = (
{
closed = 1;
nodes = (
(138,227,l),
(138,0,l),
(934,0,l),
(934,227,l),
(670,227,l),
(670,1358,l),
(516,1358,l),
(63,1016,l),
(170,857,l),
(322,956,l),
(422,1064,l),
(409,921,l),
(409,227,l)
);
}
);
width = 1024;
},
{
layerId = "F307D2A1-D493-44D9-89F1-438E1120FCB6";
shapes = (
{
closed = 1;
nodes = (
(137,163,l),
(137,0,l),
(900,0,l),
(900,163,l),
(610,163,l),
(610,1358,l),
(524,1358,l),
(57,1023,l),
(139,909,l),
(369,1064,l),
(454,1160,l),
(432,1042,l),
(432,163,l)
);
}
);
width = 1024;
},
{
layerId = "4443E9CB-80E0-4C5A-B41E-D517E8EFB53E";
shapes = (
{
closed = 1;
nodes = (
(136,130,l),
(136,0,l),
(883,0,l),
(883,130,l),
(579,130,l),
(579,1358,l),
(528,1358,l),
(54,1027,l),
(123,936,l),
(394,1120,l),
(470,1209,l),
(444,1105,l),
(444,130,l)
);
}
);
width = 1024;
}
);
unicode = 49;
},
{
glyphname = two;
layers = (
{
layerId = "5F7E89D3-0E96-4E8F-898E-E76CB8D7C13D";
shapes = (
{
closed = 1;
nodes = (
(869,1258,o),
(679,1383,o),
(456,1383,cs),
(300,1383,o),
(176,1331,o),
(38,1232,c),
(172,995,l),
(244,1058,o),
(294,1091,o),
(376,1091,cs),
(478,1091,o),
(530,1017,o),
(530,922,cs),
(530,708,o),
(396,463,o),
(46,178,c),
(46,0,l),
(852,0,l),
(852,270,l),
(567,270,l),
(412,234,l),
(412,241,l),
(524,320,l),
(647,458,o),
(869,712,o),
(869,1008,cs)
);
}
);
width = 1024;
},
{
layerId = "D9C3C1F3-1F14-4B11-A064-AC4F771295DD";
shapes = (
{
closed = 1;
nodes = (
(874,1261,o),
(694,1382,o),
(474,1382,cs),
(315,1382,o),
(187,1329,o),
(62,1236,c),
(174,1042,l),
(246,1103,o),
(319,1142,o),
(411,1142,cs),
(526,1142,o),
(595,1069,o),
(595,956,cs),
(595,704,o),
(337,376,o),
(52,135,c),
(52,0,l),
(877,0,l),
(877,227,l),
(526,227,l),
(377,197,l),
(377,204,l),
(486,285,l),
(646,466,o),
(874,738,o),
(874,1020,cs)
);
}
);
width = 1024;
},
{
layerId = "F307D2A1-D493-44D9-89F1-438E1120FCB6";
shapes = (
{
closed = 1;
nodes = (
(882,1266,o),
(716,1381,o),
(501,1381,cs),
(337,1381,o),
(203,1326,o),
(98,1242,c),
(177,1112,l),
(249,1171,o),
(356,1218,o),
(464,1218,cs),
(598,1218,o),
(693,1147,o),
(693,1007,cs),
(693,698,o),
(248,246,o),
(61,70,c),
(61,0,l),
(915,0,l),
(915,163,l),
(464,163,l),
(325,142,l),
(325,149,l),
(429,233,l),
(645,478,o),
(882,777,o),
(882,1038,cs)
);
}
);
width = 1024;
},
{
layerId = "4443E9CB-80E0-4C5A-B41E-D517E8EFB53E";
shapes = (
{
closed = 1;
nodes = (
(886,1269,o),
(727,1380,o),
(515,1380,cs),
(348,1380,o),
(211,1324,o),
(117,1245,c),
(179,1148,l),
(251,1206,o),
(376,1257,o),
(492,1257,cs),
(635,1257,o),
(743,1187,o),
(743,1034,cs),
(743,695,o),
(202,179,o),
(66,36,c),
(66,0,l),
(935,0,l),
(935,130,l),
(432,130,l),
(298,113,l),
(298,120,l),
(399,206,l),
(644,484,o),
(886,798,o),
(886,1047,cs)
);
}
);
width = 1024;
}
);
unicode = 50;
},
{
glyphname = three;
layers = (
{
layerId = "5F7E89D3-0E96-4E8F-898E-E76CB8D7C13D";
shapes = (
{
closed = 1;
nodes = (
(270,245,o),
(181,274,o),
(105,306,c),
(14,39,l),
(94,-6,o),
(275,-28,o),
(391,-28,cs),
(703,-28,o),
(902,106,o),
(902,424,cs),
(902,675,o),
(755,777,o),
(597,807,c),
(498,811,l),
(638,913,l),
(848,1163,l),
(848,1356,l),
(88,1356,l),
(88,1086,l),
(335,1086,l),
(483,1095,l),
(397,1012,l),
(195,779,l),
(195,587,l),
(312,587,ls),
(501,587,o),
(575,535,o),
(575,414,cs),
(575,330,o),
(542,245,o),
(382,245,cs)
);
}
);
width = 1024;
},
{
layerId = "D9C3C1F3-1F14-4B11-A064-AC4F771295DD";
shapes = (
{
closed = 1;
nodes = (
(286,200,o),
(198,227,o),
(125,259,c),
(51,35,l),
(131,-5,o),
(282,-27,o),
(402,-27,cs),
(701,-27,o),
(914,115,o),
(914,420,cs),
(914,661,o),
(759,782,o),
(576,801,c),
(487,798,l),
(602,884,l),
(859,1210,l),
(859,1356,l),
(97,1356,l),
(97,1129,l),
(408,1129,l),
(554,1141,l),
(462,1057,l),
(222,756,l),
(222,612,l),
(355,612,ls),
(552,612,o),
(644,548,o),
(644,407,cs),
(644,295,o),
(571,200,o),
(398,200,cs)
);
}
);
width = 1024;
},
{
layerId = "F307D2A1-D493-44D9-89F1-438E1120FCB6";
shapes = (
{
closed = 1;
nodes = (
(310,133,o),
(223,157,o),
(155,188,c),
(106,29,l),
(186,-4,o),
(293,-26,o),
(418,-26,cs),
(698,-26,o),
(932,129,o),
(932,414,cs),
(932,640,o),
(765,789,o),
(544,792,c),
(470,778,l),
(548,841,l),
(875,1280,l),
(875,1356,l),
(111,1356,l),
(111,1193,l),
(517,1193,l),
(660,1210,l),
(560,1125,l),
(263,722,l),
(263,649,l),
(420,649,ls),
(629,649,o),
(747,568,o),
(747,397,cs),
(747,242,o),
(614,133,o),
(422,133,cs)
);
}
);
width = 1024;
},
{
layerId = "4443E9CB-80E0-4C5A-B41E-D517E8EFB53E";
shapes = (
{
closed = 1;
nodes = (
(322,98,o),
(236,121,o),
(170,151,c),
(135,26,l),
(215,-3,o),
(299,-25,o),
(426,-25,cs),
(696,-25,o),
(941,136,o),
(941,411,cs),
(941,629,o),
(768,793,o),
(528,787,c),
(461,768,l),
(520,818,l),
(883,1316,l),
(883,1356,l),
(118,1356,l),
(118,1226,l),
(574,1226,l),
(714,1246,l),
(610,1160,l),
(285,705,l),
(285,669,l),
(454,669,ls),
(669,669,o),
(800,578,o),
(800,392,cs),
(800,214,o),
(637,98,o),
(434,98,cs)
);
}
);
width = 1024;
}
);
unicode = 51;
},
{
glyphname = four;
layers = (
{
layerId = "5F7E89D3-0E96-4E8F-898E-E76CB8D7C13D";
shapes = (
{
closed = 1;
nodes = (
(1024,351,l),
(1024,600,l),
(866,600,l),
(866,1356,l),
(578,1356,l),
(23,548,l),
(23,351,l),
(560,351,l),
(560,0,l),
(866,0,l),
(866,351,l)
);
},
{
closed = 1;
nodes = (
(560,801,l),
(560,600,l),
(429,600,l),
(328,599,l),
(379,665,l),
(490,815,l),
(554,960,l)
);
}
);
width = 1024;
},
{
layerId = "D9C3C1F3-1F14-4B11-A064-AC4F771295DD";
shapes = (
{
closed = 1;
nodes = (
(1012,374,l),
(1012,584,l),
(842,584,l),
(842,1356,l),
(617,1356,l),
(20,525,l),
(20,374,l),
(587,374,l),
(587,0,l),
(842,0,l),
(842,374,l)
);
},
{
closed = 1;
nodes = (
(587,854,l),
(587,584,l),
(403,584,l),
(284,577,l),
(356,653,l),
(521,874,l),
(591,1011,l)
);
}
);
width = 1024;
},
{
layerId = "F307D2A1-D493-44D9-89F1-438E1120FCB6";
shapes = (
{
closed = 1;
nodes = (
(994,408,l),
(994,560,l),
(806,560,l),
(806,1356,l),
(676,1356,l),
(15,490,l),
(15,408,l),
(628,408,l),
(628,0,l),
(806,0,l),
(806,408,l)
);
},
{
closed = 1;
nodes = (
(628,934,l),
(628,560,l),
(364,560,l),
(218,544,l),
(321,635,l),
(568,963,l),
(646,1088,l)
);
}
);
width = 1024;
},
{
layerId = "4443E9CB-80E0-4C5A-B41E-D517E8EFB53E";
shapes = (
{
closed = 1;
nodes = (
(985,425,l),
(985,548,l),
(787,548,l),
(787,1356,l),
(707,1356,l),
(12,471,l),
(12,425,l),
(650,425,l),
(650,0,l),
(787,0,l),
(787,425,l)
);
},
{
closed = 1;
nodes = (
(650,975,l),
(650,548,l),
(343,548,l),
(184,527,l),
(302,626,l),
(593,1009,l),
(675,1128,l)
);
}
);
width = 1024;
}
);
unicode = 52;
},
{
glyphname = five;
layers = (
{
layerId = "5F7E89D3-0E96-4E8F-898E-E76CB8D7C13D";
shapes = (
{
closed = 1;
nodes = (
(290,264,o),
(230,292,o),
(168,316,c),
(78,42,l),
(155,6,o),
(281,-28,o),
(412,-28,cs),
(743,-28,o),
(945,127,o),
(945,443,c),
(947,701,o),
(788,879,o),
(518,894,c),
(433,882,l),
(433,1050,l),
(862,1050,l),
(862,1356,l),
(153,1356,l),
(153,611,l),
(315,619,l),
(528,637,o),
(615,571,o),
(615,458,cs),
(615,372,o),
(583,264,o),
(402,264,cs)
);
}
);
width = 1024;
},
{
layerId = "D9C3C1F3-1F14-4B11-A064-AC4F771295DD";
shapes = (
{
closed = 1;
nodes = (
(284,213,o),
(221,235,o),
(158,259,c),
(84,33,l),
(161,0,o),
(272,-27,o),
(400,-27,cs),
(714,-27,o),
(928,130,o),
(928,436,cs),
(928,695,o),
(763,861,o),
(491,872,c),
(403,863,l),
(403,1104,l),
(861,1104,l),
(861,1356,l),
(167,1356,l),
(167,637,l),
(335,645,ls),
(551,656,o),
(656,581,o),
(656,441,cs),
(656,311,o),
(576,213,o),
(396,213,cs)
);
}
);
width = 1024;
},
{
layerId = "F307D2A1-D493-44D9-89F1-438E1120FCB6";
shapes = (
{
closed = 1;
nodes = (
(275,137,o),
(207,150,o),
(143,174,c),
(93,19,l),
(170,-9,o),
(258,-26,o),
(382,-26,cs),
(670,-26,o),
(903,134,o),
(903,426,c),
(900,686,o),
(726,834,o),
(450,839,c),
(358,835,l),
(358,1185,l),
(860,1185,l),
(860,1356,l),
(188,1356,l),
(188,676,l),
(365,684,l),
(586,684,o),
(718,596,o),
(718,416,cs),
(718,220,o),
(565,137,o),
(387,137,cs)
);
}
);
width = 1024;
},
{
layerId = "4443E9CB-80E0-4C5A-B41E-D517E8EFB53E";
shapes = (
{
closed = 1;
nodes = (
(270,98,o),
(200,106,o),
(135,130,c),
(98,12,l),
(175,-14,o),
(251,-25,o),
(373,-25,cs),
(647,-25,o),
(890,136,o),
(890,421,c),
(886,681,o),
(706,820,o),
(428,822,c),
(334,821,l),
(334,1227,l),
(859,1227,l),
(859,1356,l),
(199,1356,l),
(199,697,l),
(380,705,l),
(605,698,o),
(750,604,o),
(750,403,cs),
(750,173,o),
(559,98,o),
(382,98,cs)
);
}
);
width = 1024;
}
);
unicode = 53;
},
{
glyphname = six;
layers = (
{
layerId = "5F7E89D3-0E96-4E8F-898E-E76CB8D7C13D";
shapes = (
{
closed = 1;
nodes = (
(981,197,o),
(793,-28,o),
(505,-28,cs),
(213,-28,o),
(35,172,o),
(35,505,cs),
(35,1045,o),
(401,1284,o),
(779,1356,c),
(801,1356,l),
(869,1107,l),
(555,1029,o),
(412,956,o),
(362,752,c),
(436,817,o),
(518,861,o),
(582,861,cs),
(836,861,o),
(981,683,o),
(981,447,cs)
);
},
{
closed = 1;
nodes = (
(665,530,o),
(614,586,o),
(505,586,cs),
(410,586,o),
(364,508,o),
(353,490,c),
(348,467,o),
(349,461,o),
(349,446,cs),
(349,335,o),
(375,247,o),
(511,247,cs),
(623,247,o),
(665,323,o),
(665,415,cs)
);
}
);
width = 1024;
},
{
layerId = "D9C3C1F3-1F14-4B11-A064-AC4F771295DD";
shapes = (
{
closed = 1;
nodes = (
(970,192,o),
(798,-27,o),
(510,-27,cs),
(223,-27,o),
(48,165,o),
(48,488,cs),
(48,980,o),
(359,1289,o),
(765,1356,c),
(787,1356,l),
(842,1149,l),
(531,1085,o),
(367,947,o),
(321,721,c),
(385,788,o),
(467,841,o),
(567,841,cs),
(826,841,o),
(970,673,o),
(970,432,cs)
);
},
{
closed = 1;
nodes = (
(707,545,o),
(647,614,o),
(506,614,cs),
(405,614,o),
(339,548,o),
(312,499,c),
(307,471,o),
(308,462,o),
(308,443,cs),
(308,326,o),
(354,200,o),
(514,200,cs),
(644,200,o),
(707,295,o),
(707,408,cs)
);
}
);
width = 1024;
},
{
layerId = "F307D2A1-D493-44D9-89F1-438E1120FCB6";
shapes = (
{
closed = 1;
nodes = (
(954,184,o),
(806,-26,o),
(517,-26,cs),
(238,-26,o),
(68,155,o),
(68,462,cs),
(68,883,o),
(296,1297,o),
(744,1356,c),
(766,1356,l),
(802,1212,l),
(495,1169,o),
(300,934,o),
(260,674,c),
(309,744,o),
(391,811,o),
(544,811,cs),
(811,811,o),
(954,658,o),
(954,410,cs)
);
},
{
closed = 1;
nodes = (
(770,568,o),
(696,656,o),
(507,656,cs),
(398,656,o),
(301,608,o),
(250,512,c),
(245,477,o),
(246,463,o),
(246,438,cs),
(246,313,o),
(322,130,o),
(519,130,cs),
(676,130,o),
(770,253,o),
(770,397,cs)
);
}
);
width = 1024;
},
{
layerId = "4443E9CB-80E0-4C5A-B41E-D517E8EFB53E";
shapes = (
{
closed = 1;
nodes = (
(943,179,o),
(811,-25,o),
(522,-25,cs),
(248,-25,o),
(81,148,o),
(81,445,cs),
(81,818,o),
(254,1302,o),
(730,1356,c),
(752,1356,l),
(775,1254,l),
(471,1225,o),
(255,925,o),
(219,643,c),
(258,715,o),
(340,791,o),
(529,791,cs),
(801,791,o),
(943,648,o),
(943,395,cs)
);
},
{
closed = 1;
nodes = (
(812,593,o),
(718,684,o),
(508,684,cs),
(393,684,o),
(276,648,o),
(209,521,c),
(204,481,o),
(205,464,o),
(205,435,cs),
(205,208,o),
(318,83,o),
(522,83,cs),
(710,83,o),
(812,192,o),
(812,390,cs)
);
}
);
width = 1024;
}
);
unicode = 54;
},
{
glyphname = seven;
layers = (
{
layerId = "5F7E89D3-0E96-4E8F-898E-E76CB8D7C13D";
shapes = (
{
closed = 1;
nodes = (
(139,0,l),
(459,0,l),
(969,1267,l),
(969,1356,l),
(81,1356,l),
(81,1043,l),
(414,1043,l),
(577,1047,l),
(496,882,l)
);
}
);
width = 1024;
},
{
layerId = "D9C3C1F3-1F14-4B11-A064-AC4F771295DD";
shapes = (
{
closed = 1;
nodes = (
(148,0,l),
(414,0,l),
(964,1280,l),
(964,1356,l),
(72,1356,l),
(72,1100,l),
(509,1100,l),
(657,1110,l),
(571,973,l)
);
}
);
width = 1024;
},
{
layerId = "F307D2A1-D493-44D9-89F1-438E1120FCB6";
shapes = (
{
closed = 1;
nodes = (
(161,0,l),
(347,0,l),
(957,1299,l),
(957,1356,l),
(58,1356,l),
(58,1185,l),
(651,1185,l),
(777,1205,l),
(683,1110,l)
);
}
);
width = 1024;
},
{
layerId = "4443E9CB-80E0-4C5A-B41E-D517E8EFB53E";
shapes = (
{
closed = 1;
nodes = (
(168,0,l),
(312,0,l),
(953,1309,l),
(953,1356,l),
(51,1356,l),
(51,1229,l),
(724,1229,l),
(839,1254,l),
(741,1181,l)
);
}
);
width = 1024;
}
);
unicode = 55;
},
{
glyphname = eight;
layers = (
{
layerId = "5F7E89D3-0E96-4E8F-898E-E76CB8D7C13D";
shapes = (
{
closed = 1;
nodes = (
(143,622,o),
(38,534,o),
(38,339,cs),
(38,115,o),
(217,-28,o),
(508,-28,cs),
(790,-28,o),
(988,130,o),
(988,368,cs),
(988,528,o),
(891,650,o),
(757,720,c),
(885,802,o),
(945,902,o),
(945,1044,cs),
(945,1249,o),
(789,1383,o),
(522,1383,cs),
(233,1383,o),
(81,1213,o),
(81,1013,cs),
(81,860,o),
(165,779,o),
(261,687,c)
);
},
{
closed = 1;
nodes = (
(553,533,o),
(673,466,o),
(673,369,cs),
(673,292,o),
(635,247,o),
(511,247,cs),
(437,247,o),
(338,280,o),
(338,395,cs),
(338,487,o),
(383,544,o),
(449,582,c)
);
},
{
closed = 1;
nodes = (
(485,844,o),
(392,894,o),
(392,1003,cs),
(392,1069,o),
(409,1110,o),
(517,1110,cs),
(601,1110,o),
(649,1061,o),
(649,978,cs),
(649,918,o),
(637,855,o),
(582,805,c)
);
}
);
width = 1024;
},
{
layerId = "D9C3C1F3-1F14-4B11-A064-AC4F771295DD";
shapes = (
{
closed = 1;
nodes = (
(152,614,o),
(52,517,o),
(52,335,cs),
(52,122,o),
(222,-27,o),
(505,-27,cs),
(788,-27,o),
(973,133,o),
(973,364,cs),
(973,531,o),
(868,642,o),
(728,717,c),
(856,799,o),
(934,902,o),
(934,1053,cs),
(934,1248,o),
(778,1382,o),
(523,1382,cs),
(246,1382,o),
(91,1221,o),
(91,1022,cs),
(91,862,o),
(186,777,o),
(299,691,c)
);
},
{
closed = 1;
nodes = (
(582,546,o),
(713,476,o),
(713,362,cs),
(713,257,o),
(642,200,o),
(510,200,cs),
(399,200,o),
(302,262,o),
(302,379,cs),
(302,486,o),
(376,559,o),
(460,604,c)
);
},
{
closed = 1;
nodes = (
(458,840,o),
(350,895,o),
(350,1018,cs),
(350,1094,o),
(394,1156,o),
(518,1156,cs),
(616,1156,o),
(686,1097,o),
(686,999,cs),
(686,923,o),
(656,853,o),
(575,789,c)
);
}
);
width = 1024;
},
{
layerId = "F307D2A1-D493-44D9-89F1-438E1120FCB6";
shapes = (
{
closed = 1;
nodes = (
(165,602,o),
(73,492,o),
(73,329,cs),
(73,133,o),
(230,-26,o),
(500,-26,cs),
(785,-26,o),
(951,138,o),
(951,358,cs),
(951,536,o),
(834,630,o),
(684,713,c),
(813,794,o),
(918,902,o),
(918,1067,cs),
(918,1246,o),
(762,1381,o),
(525,1381,cs),
(266,1381,o),
(106,1233,o),
(106,1036,cs),
(106,865,o),
(217,774,o),
(356,697,c)
);
},
{
closed = 1;
nodes = (
(625,565,o),
(773,491,o),
(773,351,cs),
(773,204,o),
(653,130,o),
(509,130,cs),
(342,130,o),
(248,235,o),
(248,355,cs),
(248,484,o),
(365,581,o),
(476,637,c)
);
},
{
closed = 1;
nodes = (
(417,834,o),
(287,896,o),
(287,1040,cs),
(287,1131,o),
(371,1225,o),
(519,1225,cs),
(638,1225,o),
(742,1151,o),
(742,1031,cs),
(742,931,o),
(684,850,o),
(564,765,c)
);
}
);
width = 1024;
},
{
layerId = "4443E9CB-80E0-4C5A-B41E-D517E8EFB53E";
shapes = (
{
closed = 1;
nodes = (
(172,596,o),
(84,479,o),
(84,326,cs),
(84,139,o),
(234,-25,o),
(497,-25,cs),
(783,-25,o),
(940,141,o),
(940,355,cs),
(940,539,o),
(817,624,o),
(661,711,c),
(790,791,o),
(910,902,o),
(910,1074,cs),
(910,1245,o),
(754,1380,o),
(526,1380,cs),
(276,1380,o),
(114,1239,o),
(114,1043,cs),
(114,867,o),
(233,772,o),
(386,700,c)
);
},
{
closed = 1;
nodes = (
(648,575,o),
(804,499,o),
(804,345,cs),
(804,176,o),
(659,94,o),
(508,94,cs),
(312,94,o),
(220,221,o),
(220,343,cs),
(220,483,o),
(359,592,o),
(484,654,c)
);
},
{
closed = 1;
nodes = (
(395,831,o),
(254,897,o),
(254,1051,cs),
(254,1151,o),
(359,1261,o),
(520,1261,cs),
(649,1261,o),
(771,1179,o),
(771,1047,cs),
(771,935,o),
(698,848,o),
(558,753,c)
);
}
);
width = 1024;
}
);
unicode = 56;
},
{
glyphname = nine;
layers = (
{
layerId = "5F7E89D3-0E96-4E8F-898E-E76CB8D7C13D";
shapes = (
{
closed = 1;
nodes = (
(43,1159,o),
(231,1384,o),
(519,1384,cs),
(811,1384,o),
(989,1184,o),
(989,851,cs),
(989,311,o),
(623,72,o),
(245,0,c),
(223,0,l),
(155,249,l),
(469,327,o),
(612,400,o),
(662,604,c),
(588,539,o),
(506,495,o),
(442,495,cs),
(188,495,o),
(43,673,o),
(43,909,cs)
);
},
{
closed = 1;
nodes = (
(359,826,o),
(410,770,o),
(519,770,cs),
(614,770,o),
(660,848,o),
(671,866,c),
(676,889,o),
(675,895,o),
(675,910,cs),
(675,1021,o),
(649,1109,o),
(513,1109,cs),
(401,1109,o),
(359,1033,o),
(359,941,cs)
);
}
);
width = 1024;
},
{
layerId = "D9C3C1F3-1F14-4B11-A064-AC4F771295DD";
shapes = (
{
closed = 1;
nodes = (
(54,1164,o),
(226,1383,o),
(514,1383,cs),
(801,1383,o),
(976,1191,o),
(976,868,cs),
(976,376,o),
(665,67,o),
(259,0,c),
(237,0,l),
(182,207,l),
(493,271,o),
(657,409,o),
(703,635,c),
(639,568,o),
(557,515,o),
(457,515,cs),
(198,515,o),
(54,683,o),
(54,924,cs)
);
},
{
closed = 1;
nodes = (
(317,811,o),
(377,742,o),
(518,742,cs),
(619,742,o),
(685,808,o),
(712,857,c),
(717,885,o),
(716,894,o),
(716,913,cs),
(716,1030,o),
(670,1156,o),
(510,1156,cs),
(380,1156,o),
(317,1061,o),
(317,948,cs)
);
}
);
width = 1024;
},
{
layerId = "F307D2A1-D493-44D9-89F1-438E1120FCB6";
shapes = (
{
closed = 1;
nodes = (
(70,1172,o),
(218,1382,o),
(507,1382,cs),
(786,1382,o),
(956,1201,o),
(956,894,cs),
(956,473,o),
(728,59,o),
(280,0,c),
(258,0,l),
(222,144,l),
(529,187,o),
(724,422,o),
(764,682,c),
(715,612,o),
(633,545,o),
(480,545,cs),
(213,545,o),
(70,698,o),
(70,946,cs)
);
},
{
closed = 1;
nodes = (
(254,788,o),
(328,700,o),
(517,700,cs),
(626,700,o),
(723,748,o),
(774,844,c),
(779,879,o),
(778,893,o),
(778,918,cs),
(778,1043,o),
(702,1226,o),
(505,1226,cs),
(348,1226,o),
(254,1103,o),
(254,959,cs)
);
}
);
width = 1024;
},
{
layerId = "4443E9CB-80E0-4C5A-B41E-D517E8EFB53E";
shapes = (
{
closed = 1;
nodes = (
(81,1177,o),
(213,1381,o),
(502,1381,cs),
(776,1381,o),
(943,1208,o),
(943,911,cs),
(943,538,o),
(770,54,o),
(294,0,c),
(272,0,l),
(249,102,l),
(553,131,o),
(769,431,o),
(805,713,c),
(766,641,o),
(684,565,o),
(495,565,cs),
(223,565,o),
(81,708,o),
(81,961,cs)
);
},
{
closed = 1;
nodes = (
(212,763,o),
(306,672,o),
(516,672,cs),
(631,672,o),
(748,708,o),
(815,835,c),
(820,875,o),
(819,892,o),
(819,921,cs),
(819,1148,o),
(706,1273,o),
(502,1273,cs),
(314,1273,o),
(212,1164,o),
(212,966,cs)
);
}
);
width = 1024;
}
);
unicode = 57;
},
{
glyphname = colon;
layers = (
{
layerId = "5F7E89D3-0E96-4E8F-898E-E76CB8D7C13D";
shapes = (
{
closed = 1;
nodes = (
(183,683,o),
(275,624,o),
(377,624,cs),
(479,624,o),
(579,678,o),
(576,798,c),
(576,907,o),
(499,973,o),
(377,973,cs),
(261,973,o),
(183,907,o),
(183,798,cs)
);
},
{
closed = 1;
nodes = (
(183,38,o),
(275,-21,o),
(377,-21,cs),
(479,-21,o),
(579,33,o),
(576,153,c),
(576,262,o),
(499,328,o),
(377,328,cs),
(261,328,o),
(183,262,o),
(183,153,cs)
);
}
);
width = 757;
},
{
layerId = "D9C3C1F3-1F14-4B11-A064-AC4F771295DD";
shapes = (
{
closed = 1;
nodes = (
(172,727,o),
(248,670,o),
(340,670,cs),
(432,670,o),
(513,724,o),
(511,823,c),
(511,919,o),
(444,977,o),
(340,977,cs),
(240,977,o),
(172,919,o),
(172,823,cs)
);
},
{
closed = 1;
nodes = (
(172,35,o),
(248,-22,o),
(340,-22,cs),
(432,-22,o),
(513,32,o),
(511,131,c),
(511,227,o),
(444,285,o),
(340,285,cs),
(240,285,o),
(172,227,o),
(172,131,cs)
);
}
);
width = 682;
},
{
layerId = "F307D2A1-D493-44D9-89F1-438E1120FCB6";
shapes = (
{
closed = 1;
nodes = (
(155,793,o),
(208,739,o),
(284,739,cs),
(361,739,o),
(414,793,o),
(414,861,cs),
(414,937,o),
(361,983,o),
(284,983,cs),
(208,983,o),
(155,937,o),
(155,861,cs)
);
},
{
closed = 1;
nodes = (
(155,30,o),
(208,-24,o),
(284,-24,cs),
(361,-24,o),
(414,30,o),
(414,98,cs),
(414,174,o),
(361,220,o),
(284,220,cs),
(208,220,o),
(155,174,o),
(155,98,cs)
);
}
);
width = 569;
},
{
layerId = "4443E9CB-80E0-4C5A-B41E-D517E8EFB53E";
shapes = (
{
closed = 1;
nodes = (
(146,827,o),
(187,775,o),
(255,775,cs),
(324,775,o),
(363,829,o),
(364,881,c),
(364,946,o),
(318,986,o),
(255,986,cs),
(192,986,o),
(146,946,o),
(146,881,cs)
);
},
{
closed = 1;
nodes = (
(146,27,o),
(187,-25,o),
(255,-25,cs),
(324,-25,o),
(363,29,o),
(364,81,c),
(364,146,o),
(318,186,o),
(255,186,cs),
(192,186,o),
(146,146,o),
(146,81,cs)
);
}
);
width = 510;
}
);
unicode = 58;
},
{
glyphname = semicolon;
layers = (
{
layerId = "5F7E89D3-0E96-4E8F-898E-E76CB8D7C13D";
shapes = (
{
closed = 1;
nodes = (
(178,98,o),
(194,58,o),
(224,34,cs),
(255,10,o),
(284,-5,o),
(310,-7,c),
(301,-42,o),
(282,-74,o),
(256,-103,c),
(228,-132,o),
(200,-149,o),
(172,-156,c),
(266,-285,l),
(373,-251,o),
(577,-170,o),
(577,105,cs),
(577,224,o),
(504,322,o),
(365,322,cs),
(267,322,o),
(178,268,o),
(178,156,cs)
);
},
{
closed = 1;
nodes = (
(169,684,o),
(263,624,o),
(363,624,cs),
(465,624,o),
(565,678,o),
(562,798,c),
(562,907,o),
(485,973,o),
(363,973,cs),
(249,973,o),
(169,907,o),
(169,798,cs)
);
}
);
width = 757;
},
{
layerId = "D9C3C1F3-1F14-4B11-A064-AC4F771295DD";
shapes = (
{
closed = 1;
nodes = (
(171,79,o),
(186,43,o),
(215,21,cs),
(244,-1,o),
(274,-11,o),
(304,-8,c),
(299,-44,o),
(283,-78,o),
(257,-110,cs),
(231,-142,o),
(199,-163,o),
(162,-174,c),
(240,-287,l),
(347,-255,o),
(522,-169,o),
(522,76,cs),
(522,191,o),
(453,275,o),
(334,275,cs),
(246,275,o),
(171,224,o),
(171,130,cs)
);
},
{
closed = 1;
nodes = (
(170,727,o),
(246,670,o),
(338,670,cs),
(430,670,o),
(511,724,o),
(509,823,c),
(509,919,o),
(442,977,o),
(338,977,cs),
(238,977,o),
(170,919,o),
(170,823,cs)
);
}
);
width = 682;
},
{
layerId = "F307D2A1-D493-44D9-89F1-438E1120FCB6";
shapes = (
{
closed = 1;
nodes = (
(161,50,o),
(174,20,o),
(201,1,cs),
(228,-17,o),
(259,-20,o),
(295,-9,c),
(296,-47,o),
(284,-84,o),
(259,-121,cs),
(235,-157,o),
(198,-184,o),
(147,-201,c),
(201,-290,l),
(308,-261,o),
(440,-168,o),
(440,33,cs),
(440,141,o),
(376,205,o),
(287,205,cs),
(215,205,o),
(161,158,o),
(161,91,cs)
);
},
{
closed = 1;
nodes = (
(171,792,o),
(221,739,o),
(301,739,cs),
(377,739,o),
(430,793,o),
(430,861,cs),
(430,937,o),
(377,983,o),
(301,983,cs),
(221,983,o),
(171,937,o),
(171,861,cs)
);
}
);
width = 569;
},
{
layerId = "4443E9CB-80E0-4C5A-B41E-D517E8EFB53E";
shapes = (
{
closed = 1;
nodes = (
(156,35,o),
(168,8,o),
(194,-9,cs),
(220,-25,o),
(251,-25,o),
(290,-10,c),
(294,-49,o),
(285,-87,o),
(260,-127,cs),
(237,-165,o),
(197,-195,o),
(139,-215,c),
(180,-292,l),
(287,-264,o),
(398,-167,o),
(398,10,cs),
(398,115,o),
(336,169,o),
(262,169,cs),
(199,169,o),
(156,124,o),
(156,70,cs)
);
},
{
closed = 1;
nodes = (
(172,826,o),
(208,775,o),
(281,775,cs),
(349,775,o),
(388,829,o),
(389,881,c),
(389,946,o),
(343,986,o),
(281,986,cs),
(212,986,o),
(172,946,o),
(172,881,cs)
);
}
);
width = 510;
}
);
unicode = (59,894);
},
{
glyphname = less;
layers = (
{
layerId = "5F7E89D3-0E96-4E8F-898E-E76CB8D7C13D";
shapes = (
{
closed = 1;
nodes = (
(120,526,l),
(960,86,l),
(1090,311,l),
(633,567,l),
(445,624,l),
(635,690,l),
(1082,950,l),
(948,1172,l),
(120,716,l)
);
}
);
width = 1175;
},
{
layerId = "D9C3C1F3-1F14-4B11-A064-AC4F771295DD";
shapes = (
{
closed = 1;
nodes = (
(110,548,l),
(943,111,l),
(1053,300,l),
(576,564,l),
(386,623,l),
(578,691,l),
(1044,959,l),
(931,1148,l),
(110,691,l)
);
}
);
width = 1167;
},
{
layerId = "F307D2A1-D493-44D9-89F1-438E1120FCB6";
shapes = (
{
closed = 1;
nodes = (
(95,581,l),
(918,148,l),
(997,283,l),
(490,560,l),
(298,621,l),
(492,693,l),
(987,972,l),
(906,1112,l),
(95,654,l)
);
}
);
width = 1155;
},
{
layerId = "4443E9CB-80E0-4C5A-B41E-D517E8EFB53E";
shapes = (
{
closed = 1;
nodes = (
(87,598,l),
(905,168,l),
(968,274,l),
(446,558,l),
(253,620,l),
(448,694,l),
(957,979,l),
(893,1093,l),
(87,634,l)
);
}
);
width = 1149;
}
);
unicode = 60;
},
{
glyphname = equal;
layers = (
{
layerId = "5F7E89D3-0E96-4E8F-898E-E76CB8D7C13D";
shapes = (
{
closed = 1;
nodes = (
(120,995,l),
(120,715,l),
(1056,715,l),
(1056,995,l)
);
},
{
closed = 1;
nodes = (
(120,590,l),
(120,312,l),
(1056,312,l),
(1056,590,l)
);
}
);
width = 1175;
},
{
layerId = "D9C3C1F3-1F14-4B11-A064-AC4F771295DD";
shapes = (
{
closed = 1;
nodes = (
(122,957,l),
(122,724,l),
(1046,724,l),
(1046,957,l)
);
},
{
closed = 1;
nodes = (
(122,581,l),
(122,349,l),
(1046,349,l),
(1046,581,l)
);
}
);
width = 1167;
},
{
layerId = "F307D2A1-D493-44D9-89F1-438E1120FCB6";
shapes = (
{
closed = 1;
nodes = (
(125,900,l),
(125,738,l),
(1031,738,l),
(1031,900,l)
);
},
{
closed = 1;
nodes = (
(125,567,l),
(125,405,l),
(1031,405,l),
(1031,567,l)
);
}
);
width = 1155;
},
{
layerId = "4443E9CB-80E0-4C5A-B41E-D517E8EFB53E";
shapes = (
{
closed = 1;
nodes = (
(127,870,l),
(127,745,l),
(1023,745,l),
(1023,870,l)
);
},
{
closed = 1;
nodes = (
(127,560,l),
(127,434,l),
(1023,434,l),
(1023,560,l)
);
}
);
width = 1149;
}
);
unicode = 61;
},
{
glyphname = greater;
layers = (
{
layerId = "5F7E89D3-0E96-4E8F-898E-E76CB8D7C13D";
shapes = (
{
closed = 1;
nodes = (
(1055,736,l),
(215,1177,l),
(85,952,l),
(545,694,l),
(734,638,l),
(543,569,l),
(95,313,l),
(224,84,l),
(1055,545,l)
);
}
);
width = 1175;
},
{
layerId = "D9C3C1F3-1F14-4B11-A064-AC4F771295DD";
shapes = (
{
closed = 1;
nodes = (
(1057,711,l),
(223,1151,l),
(114,961,l),
(593,695,l),
(783,637,l),
(591,567,l),
(124,302,l),
(233,109,l),
(1057,567,l)
);
}
);
width = 1167;
},
{
layerId = "F307D2A1-D493-44D9-89F1-438E1120FCB6";
shapes = (
{
closed = 1;
nodes = (
(1060,674,l),
(235,1112,l),
(158,974,l),
(665,697,l),
(856,635,l),
(663,564,l),
(167,285,l),
(246,146,l),
(1060,600,l)
);
}
);
width = 1155;
},
{
layerId = "4443E9CB-80E0-4C5A-B41E-D517E8EFB53E";
shapes = (
{
closed = 1;
nodes = (
(1062,654,l),
(241,1091,l),
(181,981,l),
(702,698,l),
(894,634,l),
(700,562,l),
(190,276,l),
(253,166,l),
(1062,617,l)
);
}
);
width = 1149;
}
);
unicode = 62;
},
{
glyphname = question;
layers = (
{
layerId = "5F7E89D3-0E96-4E8F-898E-E76CB8D7C13D";
shapes = (
{
closed = 1;
nodes = (
(604,446,l),
(604,586,o),
(668,643,o),
(796,706,c),
(963,793,o),
(988,904,o),
(988,1050,cs),
(988,1330,o),
(722,1386,o),
(540,1383,c),
(367,1383,o),
(202,1352,o),
(65,1250,c),
(199,1008,l),
(247,1065,o),
(420,1110,o),
(492,1110,cs),
(581,1110,o),
(646,1100,o),
(646,1000,cs),
(646,931,o),
(531,876,o),
(479,857,c),
(310,751,o),
(298,589,o),
(313,446,c)
);
},
{
closed = 1;
nodes = (
(274,36,o),
(366,-21,o),
(468,-21,cs),
(570,-21,o),
(668,33,o),
(665,153,c),
(665,262,o),
(588,328,o),
(468,328,cs),
(353,328,o),
(274,262,o),
(274,153,cs)
);
}
);
width = 1101;
},
{
layerId = "D9C3C1F3-1F14-4B11-A064-AC4F771295DD";
shapes = (
{
closed = 1;
nodes = (
(543,410,l),
(543,561,o),
(620,628,o),
(735,701,cs),
(874,788,o),
(928,893,o),
(928,1053,cs),
(928,1293,o),
(716,1384,o),
(506,1382,c),
(346,1382,o),
(203,1351,o),
(70,1260,c),
(175,1059,l),
(239,1112,o),
(375,1156,o),
(461,1156,cs),
(564,1156,o),
(645,1131,o),
(645,1013,cs),
(645,915,o),
(530,853,o),
(460,801,cs),
(326,704,o),
(291,566,o),
(306,410,c)
);
},
{
closed = 1;
nodes = (
(266,33,o),
(341,-22,o),
(434,-22,cs),
(526,-22,o),
(606,32,o),
(604,131,c),
(604,227,o),
(537,285,o),
(434,285,cs),
(333,285,o),
(266,227,o),
(266,131,cs)
);
}
);
width = 1024;
},
{
layerId = "F307D2A1-D493-44D9-89F1-438E1120FCB6";
shapes = (
{
closed = 1;
nodes = (
(451,356,l),
(451,523,o),
(548,605,o),
(644,693,cs),
(741,780,o),
(838,877,o),
(838,1057,cs),
(838,1237,o),
(707,1381,o),
(455,1381,cs),
(314,1381,o),
(204,1350,o),
(78,1275,c),
(139,1135,l),
(227,1183,o),
(308,1225,o),
(414,1225,cs),
(538,1225,o),
(644,1178,o),
(644,1033,cs),
(644,891,o),
(529,818,o),
(431,717,cs),
(350,634,o),
(281,531,o),
(296,356,c)
);
},
{
closed = 1;
nodes = (
(254,29,o),
(303,-24,o),
(383,-24,cs),
(460,-24,o),
(513,30,o),
(513,98,cs),
(513,174,o),
(460,220,o),
(383,220,cs),
(303,220,o),
(254,174,o),
(254,98,cs)
);
}
);
width = 909;
},
{
layerId = "4443E9CB-80E0-4C5A-B41E-D517E8EFB53E";
shapes = (
{
closed = 1;
nodes = (
(404,328,l),
(404,503,o),
(511,593,o),
(597,689,c),
(672,776,o),
(792,869,o),
(792,1059,cs),
(792,1208,o),
(702,1379,o),
(428,1380,c),
(298,1380,o),
(205,1349,o),
(82,1283,c),
(120,1174,l),
(221,1220,o),
(273,1261,o),
(389,1261,cs),
(525,1261,o),
(643,1203,o),
(643,1043,cs),
(643,879,o),
(528,799,o),
(416,674,c),
(362,598,o),
(276,512,o),
(291,328,c)
);
},
{
closed = 1;
nodes = (
(248,27,o),
(283,-25,o),
(356,-25,cs),
(426,-25,o),
(465,29,o),
(466,81,c),
(466,146,o),
(420,186,o),
(356,186,cs),
(288,186,o),
(248,146,o),
(248,81,cs)
);
}
);
width = 849;
}
);
unicode = 63;
},
{
glyphname = at;
layers = (
{
layerId = "5F7E89D3-0E96-4E8F-898E-E76CB8D7C13D";
shapes = (
{
closed = 1;
nodes = (
(1240,864,l),
(1184,806,l),
(1135,847,o),
(1075,875,o),
(978,875,cs),
(719,875,o),
(506,601,o),
(504,316,c),
(504,160,o),
(605,59,o),
(732,59,cs),
(895,59,o),
(977,134,o),
(1058,247,c),
(1066,247,l),
(1055,99,o),
(1168,59,o),
(1297,59,cs),
(1618,59,o),
(1856,279,o),
(1856,589,cs),
(1856,1029,o),
(1512,1310,o),
(1026,1310,cs),
(525,1310,o),
(91,958,o),
(98,426,c),
(98,-92,o),
(432,-385,o),
(957,-385,cs),
(1082,-385,o),
(1210,-368,o),
(1329,-315,c),
(1257,-92,l),
(1180,-122,o),
(1084,-143,o),
(986,-143,cs),
(534,-143,o),
(356,92,o),
(356,435,cs),
(356,784,o),
(630,1068,o),
(1026,1068,cs),
(1336,1068,o),
(1597,956,o),
(1597,606,cs),
(1597,375,o),
(1503,293,o),
(1396,293,cs),
(1344,293,o),
(1316,320,o),
(1319,392,c),
(1322,400,o),
(1326,400,o),
(1325,396,c),
(1418,864,l)
);
},
{
closed = 1;
nodes = (
(1066,420,l),
(1016,343,o),
(954,293,o),
(891,293,cs),
(811,293,o),
(786,342,o),
(786,408,cs),
(786,504,o),
(872,640,o),
(1003,640,cs),
(1054,640,o),
(1081,631,o),
(1111,612,c)
);
}
);
width = 1918;
},
{
layerId = "D9C3C1F3-1F14-4B11-A064-AC4F771295DD";
shapes = (
{
closed = 1;
nodes = (
(1253,860,l),
(1193,802,l),
(1138,845,o),
(1082,871,o),
(991,871,cs),
(730,871,o),
(509,583,o),
(509,301,cs),
(509,144,o),
(610,40,o),
(735,40,cs),
(895,40,o),
(990,135,o),
(1070,247,c),
(1077,247,l),
(1058,86,o),
(1155,40,o),
(1285,40,cs),
(1593,40,o),
(1831,279,o),
(1831,581,cs),
(1831,1016,o),
(1485,1295,o),
(1011,1295,cs),
(516,1295,o),
(91,947,o),
(95,420,c),
(95,-91,o),
(444,-383,o),
(952,-383,cs),
(1073,-383,o),
(1186,-368,o),
(1302,-317,c),
(1243,-131,l),
(1166,-162,o),
(1068,-182,o),
(980,-182,cs),
(529,-182,o),
(311,61,o),
(311,430,cs),
(311,802,o),
(605,1094,o),
(1007,1094,cs),
(1347,1094,o),
(1617,947,o),
(1617,591,cs),
(1617,350,o),
(1490,235,o),
(1359,235,cs),
(1311,235,o),
(1285,258,o),
(1285,315,cs),
(1285,334,o),
(1289,356,o),
(1294,383,cs),
(1389,860,l)
);
},
{
closed = 1;
nodes = (
(1083,424,l),
(1024,322,o),
(937,235,o),
(860,235,cs),
(772,235,o),
(743,291,o),
(743,367,cs),
(743,499,o),
(853,675,o),
(1009,675,cs),
(1065,675,o),
(1096,663,o),
(1131,634,c)
);
}
);
width = 1905;
},
{
layerId = "F307D2A1-D493-44D9-89F1-438E1120FCB6";
shapes = (
{
closed = 1;
nodes = (
(1272,854,l),
(1207,796,l),
(1142,842,o),
(1092,865,o),
(1010,865,cs),
(747,865,o),
(513,556,o),
(517,279,c),
(517,120,o),
(618,12,o),
(739,12,cs),
(895,12,o),
(1009,136,o),
(1088,247,c),
(1094,247,l),
(1062,67,o),
(1136,12,o),
(1267,12,cs),
(1556,12,o),
(1794,279,o),
(1794,569,cs),
(1794,997,o),
(1444,1273,o),
(988,1273,cs),
(502,1273,o),
(91,930,o),
(91,411,cs),
(91,-90,o),
(462,-380,o),
(945,-380,cs),
(1060,-380,o),
(1150,-368,o),
(1261,-320,c),
(1222,-190,l),
(1145,-222,o),
(1044,-241,o),
(971,-241,cs),
(521,-241,o),
(243,15,o),
(243,422,cs),
(243,829,o),
(567,1133,o),
(979,1133,cs),
(1363,1133,o),
(1647,933,o),
(1647,569,cs),
(1647,313,o),
(1471,148,o),
(1304,148,cs),
(1262,148,o),
(1239,165,o),
(1234,200,cs),
(1229,235,o),
(1234,290,o),
(1247,363,c),
(1345,854,l)
);
},
{
closed = 1;
nodes = (
(1108,430,l),
(1036,290,o),
(911,148,o),
(813,148,cs),
(713,148,o),
(678,215,o),
(678,306,cs),
(678,491,o),
(824,728,o),
(1018,728,cs),
(1082,728,o),
(1118,711,o),
(1161,667,c)
);
}
);
width = 1886;
},
{
layerId = "4443E9CB-80E0-4C5A-B41E-D517E8EFB53E";
shapes = (
{
closed = 1;
nodes = (
(1282,851,l),
(1214,793,l),
(1144,840,o),
(1097,862,o),
(1020,862,cs),
(756,862,o),
(515,542,o),
(521,268,c),
(521,108,o),
(622,-2,o),
(741,-2,cs),
(895,-2,o),
(1019,137,o),
(1097,247,c),
(1103,247,l),
(1064,57,o),
(1126,-2,o),
(1258,-2,cs),
(1536,-2,o),
(1774,279,o),
(1774,563,cs),
(1774,987,o),
(1422,1262,o),
(976,1262,cs),
(495,1262,o),
(91,921,o),
(89,406,c),
(89,-89,o),
(471,-378,o),
(941,-378,cs),
(1053,-378,o),
(1131,-368,o),
(1239,-322,c),
(1211,-221,l),
(1134,-253,o),
(1032,-272,o),
(966,-272,cs),
(517,-272,o),
(208,-9,o),
(208,418,cs),
(208,843,o),
(547,1154,o),
(965,1154,cs),
(1371,1154,o),
(1662,926,o),
(1662,558,cs),
(1662,293,o),
(1461,103,o),
(1275,103,cs),
(1236,103,o),
(1215,117,o),
(1207,140,c),
(1200,184,o),
(1205,256,o),
(1222,353,c),
(1322,851,l)
);
},
{
closed = 1;
nodes = (
(1121,433,l),
(1042,274,o),
(898,103,o),
(788,103,cs),
(682,103,o),
(644,176,o),
(644,274,cs),
(644,487,o),
(809,756,o),
(1023,756,cs),
(1091,756,o),
(1129,736,o),
(1176,684,c)
);
}
);
width = 1876;
}
);
unicode = 64;
},
{
glyphname = A;
layers = (
{
layerId = "5F7E89D3-0E96-4E8F-898E-E76CB8D7C13D";
shapes = (
{
closed = 1;
nodes = (
(40,0,l),
(392,0,l),
(486,243,l),
(974,243,l),
(1067,0,l),
(1439,0,l),
(881,1356,l),
(596,1356,l)
);
},
{
closed = 1;
nodes = (
(597,514,l),
(666,686,l),
(728,880,l),
(738,880,l),
(797,687,l),
(865,514,l)
);
}
);
width = 1479;
},
{
layerId = "D9C3C1F3-1F14-4B11-A064-AC4F771295DD";
shapes = (
{
closed = 1;
nodes = (
(40,0,l),
(327,0,l),
(450,288,l),
(1013,288,l),
(1135,0,l),
(1439,0,l),
(844,1356,l),
(633,1356,l)
);
},
{
closed = 1;
nodes = (
(547,515,l),
(667,787,l),
(729,964,l),
(737,964,l),
(798,789,l),
(917,515,l)
);
}
);
width = 1479;
},
{
layerId = "F307D2A1-D493-44D9-89F1-438E1120FCB6";
shapes = (
{
closed = 1;
nodes = (
(40,0,l),
(230,0,l),
(396,355,l),
(1071,355,l),
(1237,0,l),
(1439,0,l),
(789,1356,l),
(688,1356,l)
);
},
{
closed = 1;
nodes = (
(472,517,l),
(678,939,l),
(731,1091,l),
(735,1091,l),
(787,943,l),
(995,517,l)
);
}
);
width = 1479;
},
{
layerId = "4443E9CB-80E0-4C5A-B41E-D517E8EFB53E";
shapes = (
{
closed = 1;
nodes = (
(40,0,l),
(180,0,l),
(368,390,l),
(1101,390,l),
(1289,0,l),
(1439,0,l),
(760,1356,l),
(717,1356,l)
);
},
{
closed = 1;
nodes = (
(433,518,l),
(684,1018,l),
(732,1157,l),
(734,1157,l),
(781,1023,l),
(1035,518,l)
);
}
);
width = 1479;
}
);
unicode = 65;
},
{
glyphname = B;
layers = (
{
layerId = "5F7E89D3-0E96-4E8F-898E-E76CB8D7C13D";
shapes = (
{
closed = 1;
nodes = (
(1222,1311,o),
(943,1376,o),
(645,1376,cs),
(479,1376,o),
(319,1361,o),
(207,1347,c),
(207,9,l),
(379,-25,o),
(627,-20,o),
(687,-20,cs),
(982,-20,o),
(1262,96,o),
(1267,378,c),
(1267,589,o),
(1143,701,o),
(966,714,c),
(966,727,l),
(1157,757,o),
(1222,899,o),
(1222,1032,cs)
);
},
{
closed = 1;
nodes = (
(540,554,l),
(651,554,ls),
(771,554,o),
(902,542,o),
(902,404,cs),
(902,295,o),
(795,258,o),
(674,258,cs),
(626,258,o),
(558,255,o),
(540,269,c)
);
},
{
closed = 1;
nodes = (
(540,810,l),
(540,1091,l),
(573,1096,o),
(622,1097,o),
(677,1097,cs),
(752,1097,o),
(875,1077,o),
(875,967,cs),
(875,902,o),
(830,829,o),
(768,816,cs),
(733,809,o),
(707,810,o),
(657,810,cs)
);
}
);
width = 1366;
},
{
layerId = "D9C3C1F3-1F14-4B11-A064-AC4F771295DD";
shapes = (
{
closed = 1;
nodes = (
(1219,1310,o),
(942,1375,o),
(675,1375,cs),
(510,1375,o),
(319,1362,o),
(210,1346,c),
(210,9,l),
(358,-21,o),
(600,-19,o),
(694,-19,cs),
(979,-19,o),
(1261,99,o),
(1264,381,c),
(1264,591,o),
(1127,699,o),
(955,715,c),
(955,726,l),
(1146,760,o),
(1219,904,o),
(1219,1036,cs)
);
},
{
closed = 1;
nodes = (
(486,577,l),
(661,577,ls),
(804,577,o),
(963,561,o),
(963,395,cs),
(963,264,o),
(834,213,o),
(691,213,cs),
(635,213,o),
(511,212,o),
(486,225,c)
);
},
{
closed = 1;
nodes = (
(486,791,l),
(486,1135,l),
(522,1140,o),
(595,1142,o),
(668,1142,cs),
(793,1142,o),
(928,1119,o),
(928,983,cs),
(928,875,o),
(825,824,o),
(735,796,c),
(699,791,o),
(639,791,o),
(599,791,cs)
);
}
);
width = 1366;
},
{
layerId = "F307D2A1-D493-44D9-89F1-438E1120FCB6";
shapes = (
{
closed = 1;
nodes = (
(1215,1308,o),
(941,1373,o),
(720,1373,cs),
(557,1373,o),
(319,1363,o),
(215,1344,c),
(215,9,l),
(327,-15,o),
(560,-17,o),
(704,-17,cs),
(974,-17,o),
(1260,104,o),
(1260,386,cs),
(1260,594,o),
(1103,696,o),
(938,717,c),
(938,724,l),
(1129,764,o),
(1215,912,o),
(1215,1042,cs)
);
},
{
closed = 1;
nodes = (
(405,612,l),
(676,612,ls),
(853,612,o),
(1055,589,o),
(1055,381,cs),
(1055,217,o),
(893,146,o),
(717,146,cs),
(649,146,o),
(441,147,o),
(405,159,c)
);
},
{
closed = 1;
nodes = (
(405,763,l),
(405,1201,l),
(445,1206,o),
(555,1210,o),
(654,1210,cs),
(854,1210,o),
(1008,1182,o),
(1008,1007,cs),
(1008,835,o),
(825,779,o),
(686,766,cs),
(653,763,o),
(537,763,o),
(512,763,cs)
);
}
);
width = 1366;
},
{
layerId = "4443E9CB-80E0-4C5A-B41E-D517E8EFB53E";
shapes = (
{
closed = 1;
nodes = (
(1213,1307,o),
(940,1372,o),
(744,1372,cs),
(582,1372,o),
(319,1364,o),
(218,1343,c),
(218,9,l),
(311,-12,o),
(539,-16,o),
(709,-16,cs),
(971,-16,o),
(1259,107,o),
(1258,389,c),
(1258,596,o),
(1091,694,o),
(929,718,c),
(929,723,l),
(1120,766,o),
(1213,916,o),
(1213,1045,cs)
);
},
{
closed = 1;
nodes = (
(363,631,l),
(684,631,ls),
(879,631,o),
(1102,603,o),
(1102,374,cs),
(1102,192,o),
(924,111,o),
(730,111,cs),
(656,111,o),
(405,113,o),
(363,125,c)
);
},
{
closed = 1;
nodes = (
(363,749,l),
(363,1235,l),
(405,1240,o),
(534,1245,o),
(647,1245,cs),
(886,1245,o),
(1049,1215,o),
(1049,1019,cs),
(1049,814,o),
(825,755,o),
(660,751,c),
(629,749,o),
(485,749,o),
(467,749,cs)
);
}
);
width = 1366;
}
);
unicode = 66;
},
{
glyphname = C;
layers = (
{
layerId = "5F7E89D3-0E96-4E8F-898E-E76CB8D7C13D";
shapes = (
{
closed = 1;
nodes = (
(1347,378,l),
(1237,328,o),
(1132,278,o),
(1005,278,cs),
(685,278,o),
(521,379,o),
(521,681,cs),
(521,902,o),
(646,1078,o),
(965,1078,cs),
(1056,1078,o),
(1169,1068,o),
(1333,987,c),
(1419,1289,l),
(1210,1378,o),
(1073,1383,o),
(956,1383,cs),
(448,1383,o),
(151,1083,o),
(151,681,cs),
(151,181,o),
(460,-28,o),
(994,-28,cs),
(1041,-28,o),
(1221,-25,o),
(1434,88,c)
);
}
);
width = 1554;
},
{
layerId = "D9C3C1F3-1F14-4B11-A064-AC4F771295DD";
shapes = (
{
closed = 1;
nodes = (
(1306,337,l),
(1199,273,o),
(1059,225,o),
(932,225,cs),
(630,225,o),
(444,358,o),
(444,680,cs),
(444,969,o),
(614,1131,o),
(898,1131,cs),
(1031,1131,o),
(1157,1096,o),
(1284,1028,c),
(1367,1272,l),
(1211,1348,o),
(1056,1382,o),
(887,1382,cs),
(459,1382,o),
(140,1124,o),
(140,680,cs),
(140,186,o),
(446,-27,o),
(909,-27,cs),
(1036,-27,o),
(1224,10,o),
(1387,103,c)
);
}
);
width = 1479;
},
{
layerId = "F307D2A1-D493-44D9-89F1-438E1120FCB6";
shapes = (
{
closed = 1;
nodes = (
(1245,275,l),
(1142,190,o),
(950,146,o),
(823,146,cs),
(548,146,o),
(329,327,o),
(329,678,cs),
(329,1070,o),
(566,1210,o),
(798,1210,cs),
(993,1210,o),
(1139,1138,o),
(1211,1090,c),
(1289,1247,l),
(1212,1303,o),
(1030,1381,o),
(783,1381,cs),
(475,1381,o),
(124,1185,o),
(124,678,cs),
(124,194,o),
(425,-26,o),
(781,-26,cs),
(1029,-26,o),
(1229,62,o),
(1316,126,c)
);
}
);
width = 1366;
},
{
layerId = "4443E9CB-80E0-4C5A-B41E-D517E8EFB53E";
shapes = (
{
closed = 1;
nodes = (
(1213,243,l),
(1112,147,o),
(893,105,o),
(766,105,cs),
(506,105,o),
(269,311,o),
(269,677,cs),
(269,1122,o),
(541,1251,o),
(747,1251,cs),
(973,1251,o),
(1130,1160,o),
(1173,1122,c),
(1249,1234,l),
(1213,1279,o),
(1017,1380,o),
(730,1380,cs),
(483,1380,o),
(116,1217,o),
(116,677,cs),
(116,198,o),
(414,-25,o),
(715,-25,cs),
(1025,-25,o),
(1232,89,o),
(1279,138,c)
);
}
);
width = 1307;
}
);
unicode = 67;
},
{
glyphname = D;
layers = (
{
layerId = "5F7E89D3-0E96-4E8F-898E-E76CB8D7C13D";
shapes = (
{
closed = 1;
nodes = (
(193,-2,l),
(272,-10,o),
(567,-24,o),
(599,-24,cs),
(1179,-24,o),
(1374,329,o),
(1374,690,cs),
(1374,1090,o),
(1173,1376,o),
(644,1376,cs),
(565,1376,o),
(308,1372,o),
(193,1356,c)
);
},
{
closed = 1;
nodes = (
(898,1070,o),
(1005,905,o),
(1005,685,cs),
(1005,481,o),
(935,284,o),
(643,284,c),
(693,284,o),
(562,285,o),
(540,291,c),
(540,1068,l),
(577,1070,o),
(646,1070,o),
(676,1070,cs)
);
}
);
width = 1479;
},
{
layerId = "D9C3C1F3-1F14-4B11-A064-AC4F771295DD";
shapes = (
{
closed = 1;
nodes = (
(200,-2,l),
(270,-10,o),
(530,-22,o),
(620,-22,cs),
(1174,-22,o),
(1373,328,o),
(1373,689,cs),
(1373,1088,o),
(1162,1375,o),
(645,1375,cs),
(527,1375,o),
(311,1372,o),
(200,1356,c)
);
},
{
closed = 1;
nodes = (
(938,1123,o),
(1069,942,o),
(1069,686,cs),
(1069,455,o),
(980,231,o),
(649,231,cs),
(624,231,o),
(510,233,o),
(486,238,c),
(486,1118,l),
(522,1121,o),
(605,1123,o),
(666,1123,cs)
);
}
);
width = 1479;
},
{
layerId = "F307D2A1-D493-44D9-89F1-438E1120FCB6";
shapes = (
{
closed = 1;
nodes = (
(211,-2,l),
(267,-10,o),
(474,-19,o),
(651,-19,cs),
(1167,-19,o),
(1371,327,o),
(1371,687,cs),
(1371,1085,o),
(1146,1373,o),
(646,1373,cs),
(470,1373,o),
(315,1372,o),
(211,1356,c)
);
},
{
closed = 1;
nodes = (
(998,1203,o),
(1165,998,o),
(1165,687,cs),
(1165,416,o),
(1047,151,o),
(658,151,cs),
(521,151,o),
(432,155,o),
(405,159,c),
(405,1193,l),
(440,1198,o),
(544,1203,o),
(651,1203,cs)
);
}
);
width = 1479;
},
{
layerId = "4443E9CB-80E0-4C5A-B41E-D517E8EFB53E";
shapes = (
{
closed = 1;
nodes = (
(217,-2,l),
(265,-10,o),
(445,-17,o),
(667,-17,cs),
(1163,-17,o),
(1370,326,o),
(1370,686,cs),
(1370,1083,o),
(1138,1372,o),
(647,1372,cs),
(440,1372,o),
(317,1372,o),
(217,1356,c)
);
},
{
closed = 1;
nodes = (
(1029,1244,o),
(1214,1027,o),
(1214,688,cs),
(1214,395,o),
(1082,110,o),
(663,110,cs),
(468,110,o),
(392,115,o),
(363,118,c),
(363,1232,l),
(398,1238,o),
(512,1244,o),
(643,1244,cs)
);
}
);
width = 1479;
}
);
unicode = 68;
},
{
glyphname = E;
layers = (
{
layerId = "5F7E89D3-0E96-4E8F-898E-E76CB8D7C13D";
shapes = (
{
closed = 1;
nodes = (
(215,1356,l),
(215,0,l),
(1296,0,l),
(1296,309,l),
(564,309,l),
(564,523,l),
(1232,523,l),
(1232,831,l),
(564,831,l),
(564,1047,l),
(1287,1047,l),
(1287,1356,l)
);
}
);
width = 1443;
},
{
layerId = "D9C3C1F3-1F14-4B11-A064-AC4F771295DD";
shapes = (
{
closed = 1;
nodes = (
(210,1356,l),
(210,0,l),
(1212,0,l),
(1212,252,l),
(497,252,l),
(497,558,l),
(1148,558,l),
(1148,809,l),
(497,809,l),
(497,1104,l),
(1203,1104,l),
(1203,1356,l)
);
}
);
width = 1366;
},
{
layerId = "F307D2A1-D493-44D9-89F1-438E1120FCB6";
shapes = (
{
closed = 1;
nodes = (
(202,1356,l),
(202,0,l),
(1086,0,l),
(1086,166,l),
(396,166,l),
(396,610,l),
(1022,610,l),
(1022,776,l),
(396,776,l),
(396,1189,l),
(1077,1189,l),
(1077,1356,l)
);
}
);
width = 1251;
},
{
layerId = "4443E9CB-80E0-4C5A-B41E-D517E8EFB53E";
shapes = (
{
closed = 1;
nodes = (
(198,1356,l),
(198,0,l),
(1021,0,l),
(1021,122,l),
(344,122,l),
(344,637,l),
(957,637,l),
(957,759,l),
(344,759,l),
(344,1233,l),
(1012,1233,l),
(1012,1356,l)
);
}
);
width = 1191;
}
);
unicode = 69;
},
{
glyphname = F;
layers = (
{
layerId = "5F7E89D3-0E96-4E8F-898E-E76CB8D7C13D";
shapes = (
{
closed = 1;
nodes = (
(215,1356,l),
(215,0,l),
(565,0,l),
(565,499,l),
(1183,499,l),
(1183,810,l),
(565,810,l),
(565,1047,l),
(1263,1047,l),
(1263,1356,l)
);
}
);
width = 1326;
},
{
layerId = "D9C3C1F3-1F14-4B11-A064-AC4F771295DD";
shapes = (
{
closed = 1;
nodes = (
(210,1356,l),
(210,0,l),
(497,0,l),
(497,536,l),
(1105,536,l),
(1105,789,l),
(497,789,l),
(497,1104,l),
(1171,1104,l),
(1171,1356,l)
);
}
);
width = 1251;
},
{
layerId = "F307D2A1-D493-44D9-89F1-438E1120FCB6";
shapes = (
{
closed = 1;
nodes = (
(202,1356,l),
(202,0,l),
(395,0,l),
(395,591,l),
(988,591,l),
(988,757,l),
(395,757,l),
(395,1189,l),
(1033,1189,l),
(1033,1356,l)
);
}
);
width = 1139;
},
{
layerId = "4443E9CB-80E0-4C5A-B41E-D517E8EFB53E";
shapes = (
{
closed = 1;
nodes = (
(198,1356,l),
(198,0,l),
(343,0,l),
(343,620,l),
(927,620,l),
(927,741,l),
(343,741,l),
(343,1233,l),
(962,1233,l),
(962,1356,l)
);
}
);
width = 1081;
}
);
unicode = 70;
},
{
glyphname = G;
layers = (
{
layerId = "5F7E89D3-0E96-4E8F-898E-E76CB8D7C13D";
shapes = (
{
closed = 1;
nodes = (
(920,732,l),
(920,489,l),
(1208,489,l),
(1208,317,l),
(1125,270,o),
(1017,278,o),
(982,278,cs),
(703,278,o),
(517,392,o),
(517,671,cs),
(517,933,o),
(646,1078,o),
(994,1078,cs),
(1089,1078,o),
(1217,1052,o),
(1346,989,c),
(1444,1293,l),
(1266,1369,o),
(1088,1383,o),
(955,1383,cs),
(509,1383,o),
(147,1160,o),
(147,683,cs),
(147,216,o),
(463,-28,o),
(944,-28,cs),
(1050,-28,o),
(1242,-32,o),
(1489,105,c),
(1489,732,l)
);
}
);
width = 1669;
},
{
layerId = "D9C3C1F3-1F14-4B11-A064-AC4F771295DD";
shapes = (
{
closed = 1;
nodes = (
(884,713,l),
(884,508,l),
(1195,508,l),
(1195,276,l),
(1122,235,o),
(1003,225,o),
(933,225,cs),
(644,225,o),
(444,358,o),
(444,674,cs),
(444,990,o),
(629,1131,o),
(931,1131,cs),
(1063,1131,o),
(1200,1091,o),
(1313,1038,c),
(1396,1285,l),
(1247,1353,o),
(1070,1382,o),
(901,1382,cs),
(474,1382,o),
(140,1126,o),
(140,681,cs),
(140,209,o),
(451,-27,o),
(904,-27,cs),
(1043,-27,o),
(1243,-5,o),
(1428,105,c),
(1428,713,l)
);
}
);
width = 1593;
},
{
layerId = "F307D2A1-D493-44D9-89F1-438E1120FCB6";
shapes = (
{
closed = 1;
nodes = (
(830,684,l),
(830,536,l),
(1176,536,l),
(1176,214,l),
(1117,182,o),
(982,146,o),
(860,146,cs),
(556,146,o),
(334,307,o),
(334,678,cs),
(334,1076,o),
(604,1210,o),
(836,1210,cs),
(1024,1210,o),
(1175,1149,o),
(1263,1112,c),
(1324,1273,l),
(1218,1329,o),
(1043,1381,o),
(820,1381,cs),
(422,1381,o),
(129,1075,o),
(129,678,cs),
(129,198,o),
(433,-26,o),
(844,-26,cs),
(1032,-26,o),
(1245,35,o),
(1337,105,c),
(1337,684,l)
);
}
);
width = 1479;
},
{
layerId = "4443E9CB-80E0-4C5A-B41E-D517E8EFB53E";
shapes = (
{
closed = 1;
nodes = (
(802,669,l),
(802,550,l),
(1166,550,l),
(1166,182,l),
(1114,154,o),
(971,105,o),
(822,105,cs),
(511,105,o),
(277,280,o),
(277,680,cs),
(277,1120,o),
(591,1251,o),
(787,1251,cs),
(1003,1251,o),
(1162,1179,o),
(1237,1150,c),
(1287,1267,l),
(1203,1317,o),
(1029,1380,o),
(778,1380,cs),
(395,1380,o),
(123,1048,o),
(123,676,cs),
(123,192,o),
(424,-25,o),
(813,-25,cs),
(1026,-25,o),
(1246,56,o),
(1290,105,c),
(1290,669,l)
);
}
);
width = 1420;
}
);
unicode = 71;
},
{
glyphname = H;
layers = (
{
layerId = "5F7E89D3-0E96-4E8F-898E-E76CB8D7C13D";
shapes = (
{
closed = 1;
nodes = (
(1105,529,l),
(1105,0,l),
(1454,0,l),
(1454,1356,l),
(1105,1356,l),
(1105,834,l),
(563,834,l),
(563,1356,l),
(215,1356,l),
(215,0,l),
(563,0,l),
(563,529,l)
);
}
);
width = 1669;
},
{
layerId = "D9C3C1F3-1F14-4B11-A064-AC4F771295DD";
shapes = (
{
closed = 1;
nodes = (
(1096,560,l),
(1096,0,l),
(1383,0,l),
(1383,1356,l),
(1096,1356,l),
(1096,811,l),
(496,811,l),
(496,1356,l),
(210,1356,l),
(210,0,l),
(496,0,l),
(496,560,l)
);
}
);
width = 1593;
},
{
layerId = "F307D2A1-D493-44D9-89F1-438E1120FCB6";
shapes = (
{
closed = 1;
nodes = (
(1083,606,l),
(1083,0,l),
(1277,0,l),
(1277,1356,l),
(1083,1356,l),
(1083,776,l),
(396,776,l),
(396,1356,l),
(202,1356,l),
(202,0,l),
(396,0,l),
(396,606,l)
);
}
);
width = 1479;
},
{
layerId = "4443E9CB-80E0-4C5A-B41E-D517E8EFB53E";
shapes = (
{
closed = 1;
nodes = (
(1076,630,l),
(1076,0,l),
(1223,0,l),
(1223,1356,l),
(1076,1356,l),
(1076,757,l),
(345,757,l),
(345,1356,l),
(198,1356,l),
(198,0,l),
(345,0,l),
(345,630,l)
);
}
);
width = 1420;
}
);
unicode = 72;
},
{
glyphname = I;
layers = (
{
layerId = "5F7E89D3-0E96-4E8F-898E-E76CB8D7C13D";
shapes = (
{
closed = 1;
nodes = (
(264,1356,l),
(264,0,l),
(611,0,l),
(611,1356,l)
);
}
);
width = 874;
},
{
layerId = "D9C3C1F3-1F14-4B11-A064-AC4F771295DD";
shapes = (
{
closed = 1;
nodes = (
(256,1356,l),
(256,0,l),
(542,0,l),
(542,1356,l)
);
}
);
width = 797;
},
{
layerId = "F307D2A1-D493-44D9-89F1-438E1120FCB6";
shapes = (
{
closed = 1;
nodes = (
(244,1356,l),
(244,0,l),
(438,0,l),
(438,1356,l)
);
}
);
width = 682;
},
{
layerId = "4443E9CB-80E0-4C5A-B41E-D517E8EFB53E";
shapes = (
{
closed = 1;
nodes = (
(238,1356,l),
(238,0,l),
(385,0,l),
(385,1356,l)
);
}
);
width = 622;
}
);
unicode = 73;
},
{
glyphname = J;
layers = (
{
layerId = "5F7E89D3-0E96-4E8F-898E-E76CB8D7C13D";
shapes = (
{
closed = 1;
nodes = (
(607,1356,l),
(607,479,ls),
(607,366,o),
(529,278,o),
(400,278,cs),
(380,278,o),
(312,246,o),
(161,355,c),
(67,60,l),
(216,-38,o),
(361,-31,o),
(443,-31,cs),
(728,-31,o),
(957,108,o),
(957,440,cs),
(957,1356,l)
);
}
);
width = 1175;
},
{
layerId = "D9C3C1F3-1F14-4B11-A064-AC4F771295DD";
shapes = (
{
closed = 1;
nodes = (
(537,1356,l),
(537,432,ls),
(537,311,o),
(478,227,o),
(349,227,cs),
(303,227,o),
(240,229,o),
(138,304,c),
(44,72,l),
(155,-10,o),
(279,-26,o),
(379,-26,cs),
(643,-26,o),
(824,109,o),
(824,388,cs),
(824,1356,l)
);
}
);
width = 1024;
},
{
layerId = "F307D2A1-D493-44D9-89F1-438E1120FCB6";
shapes = (
{
closed = 1;
nodes = (
(432,1356,l),
(432,362,ls),
(432,228,o),
(402,151,o),
(273,151,cs),
(188,151,o),
(132,204,o),
(103,228,c),
(10,90,l),
(63,32,o),
(156,-19,o),
(283,-19,cs),
(516,-19,o),
(625,110,o),
(625,310,cs),
(625,1356,l)
);
}
);
width = 797;
},
{
layerId = "4443E9CB-80E0-4C5A-B41E-D517E8EFB53E";
shapes = (
{
closed = 1;
nodes = (
(378,1356,l),
(378,326,ls),
(378,185,o),
(363,112,o),
(234,112,cs),
(128,112,o),
(76,191,o),
(84,189,c),
(-7,99,l),
(16,54,o),
(92,-15,o),
(234,-15,cs),
(450,-15,o),
(522,111,o),
(522,270,cs),
(522,1356,l)
);
}
);
width = 680;
}
);
unicode = 74;
},
{
glyphname = K;
layers = (
{
layerId = "5F7E89D3-0E96-4E8F-898E-E76CB8D7C13D";
shapes = (
{
closed = 1;
nodes = (
(720,544,l),
(1231,0,l),
(1698,0,l),
(1077,634,l),
(991,712,l),
(1072,792,l),
(1640,1356,l),
(1209,1356,l),
(699,809,l),
(565,777,l),
(565,1356,l),
(218,1356,l),
(218,0,l),
(565,0,l),
(565,544,l)
);
}
);
width = 1669;
},
{
layerId = "D9C3C1F3-1F14-4B11-A064-AC4F771295DD";
shapes = (
{
closed = 1;
nodes = (
(637,573,l),
(1193,0,l),
(1579,0,l),
(951,633,l),
(866,711,l),
(946,785,l),
(1522,1356,l),
(1163,1356,l),
(622,789,l),
(506,759,l),
(506,1356,l),
(220,1356,l),
(220,0,l),
(506,0,l),
(506,573,l)
);
}
);
width = 1593;
},
{
layerId = "F307D2A1-D493-44D9-89F1-438E1120FCB6";
shapes = (
{
closed = 1;
nodes = (
(512,616,l),
(1136,0,l),
(1400,0,l),
(762,632,l),
(679,709,l),
(757,774,l),
(1345,1356,l),
(1094,1356,l),
(506,759,l),
(417,732,l),
(417,1356,l),
(223,1356,l),
(223,0,l),
(417,0,l),
(417,616,l)
);
}
);
width = 1479;
},
{
layerId = "4443E9CB-80E0-4C5A-B41E-D517E8EFB53E";
shapes = (
{
closed = 1;
nodes = (
(447,639,l),
(1106,0,l),
(1307,0,l),
(664,631,l),
(582,708,l),
(659,768,l),
(1253,1356,l),
(1058,1356,l),
(446,744,l),
(371,718,l),
(371,1356,l),
(225,1356,l),
(225,0,l),
(371,0,l),
(371,639,l)
);
}
);
width = 1420;
}
);
unicode = 75;
},
{
glyphname = L;
layers = (
{
layerId = "5F7E89D3-0E96-4E8F-898E-E76CB8D7C13D";
shapes = (
{
closed = 1;
nodes = (
(1365,0,l),
(1365,307,l),
(577,307,l),
(577,1356,l),
(229,1356,l),
(229,0,l)
);
}
);
width = 1443;
},
{
layerId = "D9C3C1F3-1F14-4B11-A064-AC4F771295DD";
shapes = (
{
closed = 1;
nodes = (
(1292,0,l),
(1292,252,l),
(506,252,l),
(506,1356,l),
(220,1356,l),
(220,0,l)
);
}
);
width = 1366;
},
{
layerId = "F307D2A1-D493-44D9-89F1-438E1120FCB6";
shapes = (
{
closed = 1;
nodes = (
(1183,0,l),
(1183,170,l),
(399,170,l),
(399,1356,l),
(206,1356,l),
(206,0,l)
);
}
);
width = 1251;
},
{
layerId = "4443E9CB-80E0-4C5A-B41E-D517E8EFB53E";
shapes = (
{
closed = 1;
nodes = (
(1126,0,l),
(1126,128,l),
(343,128,l),
(343,1356,l),
(199,1356,l),
(199,0,l)
);
}
);
width = 1191;
}
);
unicode = 76;
},
{
glyphname = M;
layers = (
{
layerId = "5F7E89D3-0E96-4E8F-898E-E76CB8D7C13D";
shapes = (
{
closed = 1;
nodes = (
(1450,567,l),
(1450,0,l),
(1800,0,l),
(1800,1356,l),
(1471,1356,l),
(1090,777,l),
(1027,647,l),
(1015,647,l),
(939,774,l),
(545,1356,l),
(209,1356,l),
(209,0,l),
(539,0,l),
(539,569,l),
(518,853,l),
(521,853,l),
(617,681,l),
(944,202,l),
(1053,202,l),
(1360,679,l),
(1462,855,l),
(1468,855,l)
);
}
);
width = 2008;
},
{
layerId = "D9C3C1F3-1F14-4B11-A064-AC4F771295DD";
shapes = (
{
closed = 1;
nodes = (
(1436,690,l),
(1436,0,l),
(1723,0,l),
(1723,1356,l),
(1465,1356,l),
(1050,734,l),
(985,611,l),
(976,611,l),
(902,730,l),
(470,1356,l),
(210,1356,l),
(210,0,l),
(481,0,l),
(481,692,l),
(462,919,l),
(468,919,l),
(551,770,l),
(918,242,l),
(1007,242,l),
(1354,768,l),
(1442,921,l),
(1449,921,l)
);
}
);
width = 1933;
},
{
layerId = "F307D2A1-D493-44D9-89F1-438E1120FCB6";
shapes = (
{
closed = 1;
nodes = (
(1415,874,l),
(1415,0,l),
(1608,0,l),
(1608,1356,l),
(1456,1356,l),
(990,669,l),
(922,557,l),
(918,557,l),
(846,664,l),
(358,1356,l),
(212,1356,l),
(212,0,l),
(394,0,l),
(394,876,l),
(378,1018,l),
(388,1018,l),
(452,904,l),
(879,302,l),
(938,302,l),
(1345,902,l),
(1412,1020,l),
(1420,1020,l)
);
}
);
width = 1821;
},
{
layerId = "4443E9CB-80E0-4C5A-B41E-D517E8EFB53E";
shapes = (
{
closed = 1;
nodes = (
(1404,970,l),
(1404,0,l),
(1548,0,l),
(1548,1356,l),
(1451,1356,l),
(959,635,l),
(889,529,l),
(888,529,l),
(817,630,l),
(300,1356,l),
(213,1356,l),
(213,0,l),
(349,0,l),
(349,972,l),
(335,1069,l),
(347,1069,l),
(401,973,l),
(858,333,l),
(902,333,l),
(1340,971,l),
(1397,1071,l),
(1405,1071,l)
);
}
);
width = 1763;
}
);
unicode = 77;
},
{
glyphname = N;
layers = (
{
layerId = "5F7E89D3-0E96-4E8F-898E-E76CB8D7C13D";
shapes = (
{
closed = 1;
nodes = (
(601,624,l),
(1040,0,l),
(1312,0,l),
(1312,1356,l),
(983,1356,l),
(983,740,l),
(1005,506,l),
(997,506,l),
(883,724,l),
(439,1358,l),
(167,1358,l),
(167,0,l),
(499,0,l),
(499,606,l),
(481,810,l),
(489,810,l)
);
}
);
width = 1479;
},
{
layerId = "D9C3C1F3-1F14-4B11-A064-AC4F771295DD";
shapes = (
{
closed = 1;
nodes = (
(554,710,l),
(1092,0,l),
(1299,0,l),
(1299,1356,l),
(1028,1356,l),
(1028,650,l),
(1047,450,l),
(1038,450,l),
(930,640,l),
(387,1356,l),
(180,1356,l),
(180,0,l),
(452,0,l),
(452,699,l),
(436,886,l),
(444,886,l)
);
}
);
width = 1479;
},
{
layerId = "F307D2A1-D493-44D9-89F1-438E1120FCB6";
shapes = (
{
closed = 1;
nodes = (
(483,842,l),
(1170,0,l),
(1279,0,l),
(1279,1356,l),
(1096,1356,l),
(1096,514,l),
(1110,365,l),
(1100,365,l),
(1000,514,l),
(309,1356,l),
(200,1356,l),
(200,0,l),
(382,0,l),
(382,842,l),
(369,1003,l),
(376,1003,l)
);
}
);
width = 1479;
},
{
layerId = "4443E9CB-80E0-4C5A-B41E-D517E8EFB53E";
shapes = (
{
closed = 1;
nodes = (
(446,910,l),
(1210,0,l),
(1269,0,l),
(1269,1356,l),
(1131,1356,l),
(1131,444,l),
(1143,321,l),
(1132,321,l),
(1036,449,l),
(269,1356,l),
(210,1356,l),
(210,0,l),
(346,0,l),
(346,916,l),
(334,1064,l),
(341,1064,l)
);
}
);
width = 1479;
}
);
unicode = 78;
},
{
glyphname = O;
layers = (
{
layerId = "5F7E89D3-0E96-4E8F-898E-E76CB8D7C13D";
shapes = (
{
closed = 1;
nodes = (
(119,444,o),
(199,266,o),
(330,148,cs),
(459,31,o),
(636,-30,o),
(833,-29,c),
(1060,-29,o),
(1238,46,o),
(1361,172,cs),
(1484,298,o),
(1550,474,o),
(1550,678,cs),
(1550,887,o),
(1478,1063,o),
(1352,1187,cs),
(1226,1312,o),
(1048,1383,o),
(833,1383,cs),
(626,1383,o),
(449,1318,o),
(322,1198,cs),
(194,1078,o),
(120,901,o),
(120,675,c)
);
},
{
closed = 1;
nodes = (
(488,838,o),
(533,937,o),
(599,998,cs),
(664,1058,o),
(751,1076,o),
(833,1076,cs),
(954,1076,o),
(1043,1025,o),
(1099,953,cs),
(1155,879,o),
(1179,779,o),
(1179,678,cs),
(1179,567,o),
(1148,464,o),
(1089,393,cs),
(1031,322,o),
(941,277,o),
(833,277,cs),
(738,277,o),
(652,300,o),
(589,363,cs),
(527,426,o),
(488,527,o),
(488,678,cs)
);
}
);
width = 1669;
},
{
layerId = "D9C3C1F3-1F14-4B11-A064-AC4F771295DD";
shapes = (
{
closed = 1;
nodes = (
(115,453,o),
(183,277,o),
(303,157,cs),
(422,37,o),
(591,-28,o),
(795,-28,cs),
(1011,-28,o),
(1181,43,o),
(1298,167,cs),
(1415,291,o),
(1478,467,o),
(1478,678,cs),
(1478,887,o),
(1415,1063,o),
(1298,1187,cs),
(1181,1311,o),
(1011,1382,o),
(795,1382,cs),
(591,1382,o),
(422,1317,o),
(303,1197,cs),
(183,1077,o),
(115,900,o),
(115,676,cs)
);
},
{
closed = 1;
nodes = (
(418,833,o),
(456,946,o),
(522,1021,cs),
(588,1096,o),
(682,1131,o),
(795,1131,cs),
(924,1131,o),
(1020,1081,o),
(1082,1001,cs),
(1144,920,o),
(1173,806,o),
(1173,678,cs),
(1173,550,o),
(1144,435,o),
(1082,354,cs),
(1020,273,o),
(924,223,o),
(795,223,cs),
(682,223,o),
(588,258,o),
(522,333,cs),
(456,408,o),
(418,522,o),
(418,678,cs)
);
}
);
width = 1593;
},
{
layerId = "F307D2A1-D493-44D9-89F1-438E1120FCB6";
shapes = (
{
closed = 1;
nodes = (
(109,467,o),
(159,293,o),
(263,170,cs),
(367,46,o),
(523,-25,o),
(738,-26,c),
(938,-26,o),
(1096,39,o),
(1204,160,cs),
(1312,280,o),
(1370,457,o),
(1370,678,cs),
(1370,887,o),
(1321,1063,o),
(1217,1187,cs),
(1113,1310,o),
(955,1381,o),
(738,1381,cs),
(538,1381,o),
(381,1316,o),
(274,1196,cs),
(166,1075,o),
(108,899,o),
(108,678,c)
);
},
{
closed = 1;
nodes = (
(313,825,o),
(340,959,o),
(407,1056,cs),
(474,1153,o),
(579,1214,o),
(738,1214,cs),
(879,1214,o),
(985,1165,o),
(1057,1073,cs),
(1128,981,o),
(1164,847,o),
(1164,678,cs),
(1164,525,o),
(1138,391,o),
(1071,295,cs),
(1004,199,o),
(898,142,o),
(738,142,cs),
(598,142,o),
(492,195,o),
(421,288,cs),
(349,381,o),
(313,515,o),
(313,678,cs)
);
}
);
width = 1479;
},
{
layerId = "4443E9CB-80E0-4C5A-B41E-D517E8EFB53E";
shapes = (
{
closed = 1;
nodes = (
(106,474,o),
(147,301,o),
(242,177,cs),
(338,51,o),
(488,-23,o),
(708,-25,c),
(900,-25,o),
(1052,37,o),
(1156,156,cs),
(1259,274,o),
(1314,452,o),
(1314,678,cs),
(1314,887,o),
(1273,1063,o),
(1175,1187,cs),
(1078,1309,o),
(926,1380,o),
(708,1380,cs),
(510,1380,o),
(359,1315,o),
(259,1195,cs),
(157,1074,o),
(104,898,o),
(104,679,c)
);
},
{
closed = 1;
nodes = (
(259,821,o),
(280,966,o),
(347,1075,cs),
(415,1183,o),
(526,1257,o),
(708,1257,cs),
(855,1257,o),
(966,1208,o),
(1044,1110,cs),
(1120,1013,o),
(1159,869,o),
(1159,678,cs),
(1159,512,o),
(1135,368,o),
(1065,264,cs),
(996,161,o),
(885,100,o),
(708,100,cs),
(555,100,o),
(443,162,o),
(369,264,cs),
(293,367,o),
(259,511,o),
(259,678,cs)
);
}
);
width = 1420;
}
);
unicode = 79;
},
{
glyphname = P;
layers = (
{
layerId = "5F7E89D3-0E96-4E8F-898E-E76CB8D7C13D";
shapes = (
{
closed = 1;
nodes = (
(175,0,l),
(524,0,l),
(524,423,l),
(552,418,o),
(625,417,o),
(650,417,cs),
(960,417,o),
(1242,542,o),
(1242,903,cs),
(1242,1309,o),
(916,1376,o),
(610,1376,cs),
(457,1376,o),
(298,1361,o),
(175,1342,c)
);
},
{
closed = 1;
nodes = (
(751,1067,o),
(871,1060,o),
(871,894,cs),
(871,721,o),
(742,726,o),
(622,726,cs),
(599,726,o),
(543,729,o),
(524,736,c),
(524,1060,l),
(551,1061,o),
(588,1067,o),
(636,1067,cs)
);
}
);
width = 1326;
},
{
layerId = "D9C3C1F3-1F14-4B11-A064-AC4F771295DD";
shapes = (
{
closed = 1;
nodes = (
(184,0,l),
(471,0,l),
(471,457,l),
(501,452,o),
(580,449,o),
(607,449,cs),
(896,449,o),
(1169,585,o),
(1169,922,cs),
(1169,1275,o),
(888,1375,o),
(583,1375,cs),
(442,1375,o),
(301,1363,o),
(184,1342,c)
);
},
{
closed = 1;
nodes = (
(748,1123,o),
(864,1074,o),
(864,916,cs),
(864,745,o),
(736,701,o),
(585,701,cs),
(560,701,o),
(493,705,o),
(471,711,c),
(471,1114,l),
(502,1119,o),
(545,1123,o),
(601,1123,cs)
);
}
);
width = 1251;
},
{
layerId = "F307D2A1-D493-44D9-89F1-438E1120FCB6";
shapes = (
{
closed = 1;
nodes = (
(197,0,l),
(391,0,l),
(391,508,l),
(424,503,o),
(512,497,o),
(543,497,cs),
(800,497,o),
(1059,650,o),
(1059,951,cs),
(1059,1224,o),
(846,1373,o),
(543,1373,cs),
(419,1373,o),
(306,1366,o),
(197,1342,c)
);
},
{
closed = 1;
nodes = (
(743,1207,o),
(854,1095,o),
(854,949,cs),
(854,781,o),
(727,664,o),
(530,664,cs),
(501,664,o),
(418,669,o),
(391,674,c),
(391,1195,l),
(428,1206,o),
(480,1207,o),
(549,1207,cs)
);
}
);
width = 1139;
},
{
layerId = "4443E9CB-80E0-4C5A-B41E-D517E8EFB53E";
shapes = (
{
closed = 1;
nodes = (
(204,0,l),
(350,0,l),
(350,535,l),
(384,530,o),
(477,522,o),
(510,522,cs),
(751,522,o),
(1002,684,o),
(1002,966,cs),
(1002,1197,o),
(824,1372,o),
(522,1372,cs),
(407,1372,o),
(309,1368,o),
(204,1342,c)
);
},
{
closed = 1;
nodes = (
(740,1250,o),
(849,1106,o),
(849,966,cs),
(849,800,o),
(722,644,o),
(501,644,cs),
(470,644,o),
(379,650,o),
(350,654,c),
(350,1237,l),
(390,1251,o),
(446,1250,o),
(522,1250,cs)
);
}
);
width = 1081;
}
);
unicode = 80;
},
{
glyphname = Q;
layers = (
{
layerId = "5F7E89D3-0E96-4E8F-898E-E76CB8D7C13D";
shapes = (
{
closed = 1;
nodes = (
(118,283,o),
(351,55,o),
(645,-11,c),
(663,-306,o),
(794,-454,o),
(1119,-454,cs),
(1145,-454,o),
(1325,-429,o),
(1399,-366,c),
(1334,-85,l),
(1294,-120,o),
(1190,-140,o),
(1154,-140,cs),
(1081,-140,o),
(1006,-132,o),
(991,-17,c),
(1344,47,o),
(1550,321,o),
(1550,678,cs),
(1550,1097,o),
(1261,1383,o),
(833,1383,cs),
(421,1383,o),
(120,1126,o),
(120,675,c)
);
},
{
closed = 1;
nodes = (
(488,999,o),
(665,1076,o),
(833,1076,cs),
(1078,1076,o),
(1179,879,o),
(1179,678,cs),
(1179,454,o),
(1053,277,o),
(833,277,cs),
(641,277,o),
(488,373,o),
(488,678,cs)
);
}
);
width = 1669;
},
{
layerId = "D9C3C1F3-1F14-4B11-A064-AC4F771295DD";
shapes = (
{
closed = 1;
nodes = (
(115,288,o),
(320,44,o),
(639,-14,c),
(652,-303,o),
(789,-434,o),
(1072,-434,cs),
(1138,-434,o),
(1273,-410,o),
(1345,-356,c),
(1295,-126,l),
(1245,-158,o),
(1167,-178,o),
(1103,-178,cs),
(986,-178,o),
(933,-126,o),
(922,-19,c),
(1275,32,o),
(1478,299,o),
(1478,678,cs),
(1478,1097,o),
(1226,1382,o),
(795,1382,cs),
(388,1382,o),
(115,1124,o),
(115,676,cs)
);
},
{
closed = 1;
nodes = (
(418,988,o),
(568,1131,o),
(795,1131,cs),
(1055,1131,o),
(1173,934,o),
(1173,678,cs),
(1173,421,o),
(1055,223,o),
(795,223,cs),
(568,223,o),
(418,365,o),
(418,678,cs)
);
}
);
width = 1593;
},
{
layerId = "F307D2A1-D493-44D9-89F1-438E1120FCB6";
shapes = (
{
closed = 1;
nodes = (
(111,295,o),
(274,27,o),
(630,-18,c),
(635,-298,o),
(782,-404,o),
(1001,-404,cs),
(1128,-404,o),
(1195,-381,o),
(1264,-341,c),
(1236,-188,l),
(1171,-215,o),
(1133,-235,o),
(1027,-235,cs),
(844,-235,o),
(824,-117,o),
(819,-22,c),
(1171,10,o),
(1370,266,o),
(1370,678,cs),
(1370,1097,o),
(1173,1381,o),
(738,1381,cs),
(339,1381,o),
(108,1121,o),
(108,678,c)
);
},
{
closed = 1;
nodes = (
(313,971,o),
(422,1214,o),
(738,1214,cs),
(1020,1214,o),
(1164,1017,o),
(1164,678,cs),
(1164,371,o),
(1058,142,o),
(738,142,cs),
(458,142,o),
(313,353,o),
(313,678,cs)
);
}
);
width = 1479;
},
{
layerId = "4443E9CB-80E0-4C5A-B41E-D517E8EFB53E";
shapes = (
{
closed = 1;
nodes = (
(109,299,o),
(250,18,o),
(625,-20,c),
(626,-295,o),
(778,-389,o),
(964,-389,cs),
(1123,-389,o),
(1155,-366,o),
(1222,-333,c),
(1205,-220,l),
(1133,-245,o),
(1116,-265,o),
(988,-265,cs),
(771,-265,o),
(767,-112,o),
(766,-24,c),
(1118,-1,o),
(1314,249,o),
(1314,678,cs),
(1314,1097,o),
(1145,1380,o),
(708,1380,cs),
(313,1380,o),
(104,1119,o),
(104,679,c)
);
},
{
closed = 1;
nodes = (
(259,962,o),
(347,1257,o),
(708,1257,cs),
(1001,1257,o),
(1159,1060,o),
(1159,678,cs),
(1159,345,o),
(1060,100,o),
(708,100,cs),
(401,100,o),
(259,347,o),
(259,678,cs)
);
}
);
width = 1420;
}
);
unicode = 81;
},
{
glyphname = R;
layers = (
{
layerId = "5F7E89D3-0E96-4E8F-898E-E76CB8D7C13D";
shapes = (
{
closed = 1;
nodes = (
(213,0,l),
(561,0,l),
(561,514,l),
(742,494,l),
(1082,0,l),
(1522,0,l),
(1131,502,l),
(1064,569,l),
(1214,603,o),
(1347,726,o),
(1347,953,cs),
(1347,1310,o),
(995,1376,o),
(723,1376,cs),
(601,1376,o),
(349,1364,o),
(213,1342,c)
);
},
{
closed = 1;
nodes = (
(796,1067,o),
(978,1075,o),
(978,922,cs),
(978,753,o),
(834,751,o),
(715,751,cs),
(561,751,l),
(561,1063,l),
(594,1064,o),
(670,1067,o),
(725,1067,cs)
);
}
);
width = 1554;
},
{
layerId = "D9C3C1F3-1F14-4B11-A064-AC4F771295DD";
shapes = (
{
closed = 1;
nodes = (
(210,0,l),
(496,0,l),
(496,548,l),
(682,525,l),
(1079,0,l),
(1433,0,l),
(1021,513,l),
(951,583,l),
(1114,620,o),
(1244,747,o),
(1244,971,cs),
(1244,1296,o),
(937,1375,o),
(670,1375,cs),
(550,1375,o),
(336,1363,o),
(210,1342,c)
);
},
{
closed = 1;
nodes = (
(791,1123,o),
(940,1094,o),
(940,946,cs),
(940,771,o),
(797,741,o),
(652,741,cs),
(496,741,l),
(496,1116,l),
(531,1121,o),
(613,1123,o),
(674,1123,cs)
);
}
);
width = 1479;
},
{
layerId = "F307D2A1-D493-44D9-89F1-438E1120FCB6";
shapes = (
{
closed = 1;
nodes = (
(205,0,l),
(399,0,l),
(399,599,l),
(592,571,l),
(1075,0,l),
(1300,0,l),
(856,530,l),
(781,604,l),
(964,646,o),
(1089,779,o),
(1089,998,cs),
(1089,1275,o),
(850,1373,o),
(591,1373,cs),
(474,1373,o),
(317,1361,o),
(205,1342,c)
);
},
{
closed = 1;
nodes = (
(784,1207,o),
(883,1122,o),
(883,982,cs),
(883,798,o),
(742,726,o),
(558,726,cs),
(399,726,l),
(399,1195,l),
(437,1206,o),
(527,1207,o),
(597,1207,cs)
);
}
);
width = 1366;
},
{
layerId = "4443E9CB-80E0-4C5A-B41E-D517E8EFB53E";
shapes = (
{
closed = 1;
nodes = (
(202,0,l),
(349,0,l),
(349,626,l),
(546,595,l),
(1073,0,l),
(1231,0,l),
(771,539,l),
(693,615,l),
(887,659,o),
(1009,795,o),
(1009,1012,cs),
(1009,1264,o),
(805,1372,o),
(550,1372,cs),
(435,1372,o),
(307,1360,o),
(202,1342,c)
);
},
{
closed = 1;
nodes = (
(780,1250,o),
(853,1136,o),
(853,1001,cs),
(853,812,o),
(713,718,o),
(510,718,cs),
(349,718,l),
(349,1236,l),
(389,1250,o),
(483,1250,o),
(557,1250,cs)
);
}
);
width = 1307;
}
);
unicode = 82;
},
{
glyphname = S;
layers = (
{
layerId = "5F7E89D3-0E96-4E8F-898E-E76CB8D7C13D";
shapes = (
{
closed = 1;
nodes = (
(739,311,o),
(683,272,o),
(515,272,cs),
(358,272,o),
(194,357,o),
(174,375,c),
(58,70,l),
(122,32,o),
(327,-28,o),
(535,-28,cs),
(853,-28,o),
(1088,89,o),
(1088,426,cs),
(1088,626,o),
(921,727,o),
(761,805,c),
(609,875,o),
(437,883,o),
(437,993,cs),
(437,1033,o),
(461,1082,o),
(600,1082,cs),
(780,1082,o),
(893,1026,o),
(940,996,c),
(1051,1288,l),
(910,1371,o),
(711,1383,o),
(604,1383,cs),
(265,1383,o),
(88,1231,o),
(88,957,cs),
(88,703,o),
(324,594,o),
(501,536,cs),
(673,480,o),
(739,445,o),
(739,383,cs)
);
}
);
width = 1139;
},
{
layerId = "D9C3C1F3-1F14-4B11-A064-AC4F771295DD";
shapes = (
{
closed = 1;
nodes = (
(777,268,o),
(688,220,o),
(515,220,cs),
(373,220,o),
(221,280,o),
(165,312,c),
(70,62,l),
(139,25,o),
(320,-27,o),
(530,-27,cs),
(846,-27,o),
(1064,106,o),
(1064,405,cs),
(1064,609,o),
(894,713,o),
(726,785,cs),
(586,845,o),
(390,877,o),
(390,1007,cs),
(390,1087,o),
(464,1135,o),
(593,1135,cs),
(741,1135,o),
(876,1094,o),
(940,1057,c),
(1031,1297,l),
(912,1363,o),
(733,1382,o),
(599,1382,cs),
(302,1382,o),
(103,1252,o),
(103,980,cs),
(103,739,o),
(308,633,o),
(492,572,cs),
(646,522,o),
(777,476,o),
(777,372,cs)
);
}
);
width = 1139;
},
{
layerId = "F307D2A1-D493-44D9-89F1-438E1120FCB6";
shapes = (
{
closed = 1;
nodes = (
(834,204,o),
(695,142,o),
(515,142,cs),
(395,142,o),
(261,165,o),
(152,218,c),
(88,50,l),
(164,15,o),
(310,-26,o),
(522,-26,cs),
(836,-26,o),
(1028,131,o),
(1028,374,cs),
(1028,584,o),
(853,692,o),
(673,755,cs),
(552,800,o),
(319,868,o),
(319,1028,cs),
(319,1168,o),
(468,1214,o),
(583,1214,cs),
(683,1214,o),
(850,1196,o),
(940,1148,c),
(1001,1311,l),
(915,1351,o),
(766,1381,o),
(592,1381,cs),
(358,1381,o),
(125,1283,o),
(125,1015,cs),
(125,793,o),
(284,692,o),
(479,626,cs),
(606,585,o),
(834,523,o),
(834,356,cs)
);
}
);
width = 1139;
},
{
layerId = "4443E9CB-80E0-4C5A-B41E-D517E8EFB53E";
shapes = (
{
closed = 1;
nodes = (
(864,171,o),
(699,102,o),
(515,102,cs),
(406,102,o),
(282,105,o),
(145,170,c),
(97,44,l),
(177,10,o),
(305,-25,o),
(518,-25,cs),
(831,-25,o),
(1009,144,o),
(1009,358,cs),
(1009,571,o),
(831,681,o),
(645,740,c),
(535,776,o),
(282,863,o),
(282,1039,cs),
(282,1210,o),
(470,1255,o),
(578,1255,cs),
(653,1255,o),
(837,1248,o),
(940,1195,c),
(986,1318,l),
(917,1345,o),
(783,1380,o),
(588,1380,cs),
(387,1380,o),
(136,1299,o),
(136,1034,cs),
(136,821,o),
(272,723,o),
(472,654,c),
(585,618,o),
(864,548,o),
(864,348,cs)
);
}
);
width = 1139;
}
);
unicode = 83;
},
{
glyphname = T;
layers = (
{
layerId = "5F7E89D3-0E96-4E8F-898E-E76CB8D7C13D";
shapes = (
{
closed = 1;
nodes = (
(1361,1050,l),
(1361,1356,l),
(82,1356,l),
(82,1050,l),
(546,1050,l),
(546,0,l),
(895,0,l),
(895,1050,l)
);
}
);
width = 1443;
},
{
layerId = "D9C3C1F3-1F14-4B11-A064-AC4F771295DD";
shapes = (
{
closed = 1;
nodes = (
(1296,1104,l),
(1296,1356,l),
(70,1356,l),
(70,1104,l),
(539,1104,l),
(539,0,l),
(826,0,l),
(826,1104,l)
);
}
);
width = 1366;
},
{
layerId = "F307D2A1-D493-44D9-89F1-438E1120FCB6";
shapes = (
{
closed = 1;
nodes = (
(1199,1185,l),
(1199,1356,l),
(52,1356,l),
(52,1185,l),
(529,1185,l),
(529,0,l),
(722,0,l),
(722,1185,l)
);
}
);
width = 1251;
},
{
layerId = "4443E9CB-80E0-4C5A-B41E-D517E8EFB53E";
shapes = (
{
closed = 1;
nodes = (
(1149,1227,l),
(1149,1356,l),
(43,1356,l),
(43,1227,l),
(524,1227,l),
(524,0,l),
(669,0,l),
(669,1227,l)
);
}
);
width = 1191;
}
);
unicode = 84;
},
{
glyphname = U;
layers = (
{
layerId = "5F7E89D3-0E96-4E8F-898E-E76CB8D7C13D";
shapes = (
{
closed = 1;
nodes = (
(976,1356,l),
(976,502,ls),
(976,342,o),
(891,280,o),
(753,280,cs),
(582,280,o),
(518,362,o),
(518,506,cs),
(518,1356,l),
(171,1356,l),
(171,467,ls),
(171,137,o),
(383,-29,o),
(759,-29,cs),
(1072,-29,o),
(1308,131,o),
(1308,496,cs),
(1308,1356,l)
);
}
);
width = 1479;
},
{
layerId = "D9C3C1F3-1F14-4B11-A064-AC4F771295DD";
shapes = (
{
closed = 1;
nodes = (
(1023,1356,l),
(1023,506,ls),
(1023,309,o),
(925,229,o),
(756,229,cs),
(556,229,o),
(470,319,o),
(470,506,cs),
(470,1356,l),
(184,1356,l),
(184,453,ls),
(184,136,o),
(395,-24,o),
(760,-24,cs),
(1065,-24,o),
(1295,134,o),
(1295,486,cs),
(1295,1356,l)
);
}
);
width = 1479;
},
{
layerId = "F307D2A1-D493-44D9-89F1-438E1120FCB6";
shapes = (
{
closed = 1;
nodes = (
(1093,1356,l),
(1093,512,ls),
(1093,260,o),
(976,153,o),
(760,153,cs),
(517,153,o),
(398,255,o),
(398,506,cs),
(398,1356,l),
(204,1356,l),
(204,432,ls),
(204,135,o),
(413,-17,o),
(762,-17,cs),
(1054,-17,o),
(1275,138,o),
(1275,471,cs),
(1275,1356,l)
);
}
);
width = 1479;
},
{
layerId = "4443E9CB-80E0-4C5A-B41E-D517E8EFB53E";
shapes = (
{
closed = 1;
nodes = (
(1129,1356,l),
(1129,515,ls),
(1129,234,o),
(1003,114,o),
(762,114,cs),
(496,114,o),
(361,222,o),
(361,506,cs),
(361,1356,l),
(214,1356,l),
(214,421,ls),
(214,134,o),
(422,-13,o),
(763,-13,cs),
(1048,-13,o),
(1265,140,o),
(1265,463,cs),
(1265,1356,l)
);
}
);
width = 1479;
}
);
unicode = 85;
},
{
glyphname = V;
layers = (
{
layerId = "5F7E89D3-0E96-4E8F-898E-E76CB8D7C13D";
shapes = (
{
closed = 1;
nodes = (
(687,666,l),
(432,1356,l),
(19,1356,l),
(602,-2,l),
(879,-2,l),
(1460,1356,l),
(1085,1356,l),
(837,667,l),
(767,465,l),
(755,465,l)
);
}
);
width = 1479;
},
{
layerId = "D9C3C1F3-1F14-4B11-A064-AC4F771295DD";
shapes = (
{
closed = 1;
nodes = (
(694,573,l),
(375,1356,l),
(42,1356,l),
(639,-9,l),
(844,-9,l),
(1437,1356,l),
(1135,1356,l),
(827,575,l),
(764,392,l),
(755,392,l)
);
}
);
width = 1479;
},
{
layerId = "F307D2A1-D493-44D9-89F1-438E1120FCB6";
shapes = (
{
closed = 1;
nodes = (
(705,433,l),
(289,1356,l),
(76,1356,l),
(695,-19,l),
(792,-19,l),
(1403,1356,l),
(1210,1356,l),
(812,437,l),
(760,282,l),
(755,282,l)
);
}
);
width = 1479;
},
{
layerId = "4443E9CB-80E0-4C5A-B41E-D517E8EFB53E";
shapes = (
{
closed = 1;
nodes = (
(711,361,l),
(245,1356,l),
(93,1356,l),
(724,-24,l),
(765,-24,l),
(1386,1356,l),
(1249,1356,l),
(804,366,l),
(758,225,l),
(755,225,l)
);
}
);
width = 1479;
}
);
unicode = 86;
},
{
glyphname = W;
layers = (
{
layerId = "5F7E89D3-0E96-4E8F-898E-E76CB8D7C13D";
shapes = (
{
closed = 1;
nodes = (
(637,712,l),
(465,1356,l),
(78,1356,l),
(517,-2,l),
(782,-2,l),
(1008,637,l),
(1057,817,l),
(1071,817,l),
(1120,639,l),
(1348,-2,l),
(1596,-2,l),
(2046,1356,l),
(1683,1356,l),
(1521,717,l),
(1472,517,l),
(1459,517,l),
(1408,712,l),
(1205,1356,l),
(960,1356,l),
(747,717,l),
(697,517,l),
(688,517,l)
);
}
);
width = 2125;
},
{
layerId = "D9C3C1F3-1F14-4B11-A064-AC4F771295DD";
shapes = (
{
closed = 1;
nodes = (
(599,610,l),
(384,1356,l),
(70,1356,l),
(510,-9,l),
(714,-9,l),
(976,726,l),
(1021,897,l),
(1033,897,l),
(1079,728,l),
(1342,-9,l),
(1535,-9,l),
(1978,1356,l),
(1684,1356,l),
(1483,614,l),
(1439,430,l),
(1430,430,l),
(1385,610,l),
(1134,1356,l),
(949,1356,l),
(693,614,l),
(649,430,l),
(642,430,l)
);
}
);
width = 2048;
},
{
layerId = "F307D2A1-D493-44D9-89F1-438E1120FCB6";
shapes = (
{
closed = 1;
nodes = (
(542,457,l),
(262,1356,l),
(58,1356,l),
(499,-19,l),
(612,-19,l),
(928,860,l),
(967,1017,l),
(976,1017,l),
(1017,861,l),
(1333,-19,l),
(1443,-19,l),
(1876,1356,l),
(1686,1356,l),
(1426,460,l),
(1389,300,l),
(1386,300,l),
(1351,457,l),
(1028,1356,l),
(932,1356,l),
(612,460,l),
(577,300,l),
(573,300,l)
);
}
);
width = 1933;
},
{
layerId = "4443E9CB-80E0-4C5A-B41E-D517E8EFB53E";
shapes = (
{
closed = 1;
nodes = (
(512,378,l),
(199,1356,l),
(52,1356,l),
(493,-24,l),
(560,-24,l),
(903,929,l),
(939,1079,l),
(946,1079,l),
(985,930,l),
(1328,-24,l),
(1396,-24,l),
(1824,1356,l),
(1687,1356,l),
(1396,380,l),
(1363,233,l),
(1363,233,l),
(1334,378,l),
(974,1356,l),
(923,1356,l),
(570,380,l),
(540,233,l),
(537,233,l)
);
}
);
width = 1873;
}
);
unicode = 87;
},
{
glyphname = X;
layers = (
{
layerId = "5F7E89D3-0E96-4E8F-898E-E76CB8D7C13D";
shapes = (
{
closed = 1;
nodes = (
(499,689,l),
(28,0,l),
(413,0,l),
(639,358,l),
(715,465,l),
(791,358,l),
(1030,0,l),
(1451,0,l),
(969,708,l),
(1429,1356,l),
(1044,1356,l),
(828,1028,l),
(755,911,l),
(685,1028,l),
(495,1356,l),
(72,1356,l)
);
}
);
width = 1479;
},
{
layerId = "D9C3C1F3-1F14-4B11-A064-AC4F771295DD";
shapes = (
{
closed = 1;
nodes = (
(549,689,l),
(55,0,l),
(371,0,l),
(655,412,l),
(723,512,l),
(792,412,l),
(1081,0,l),
(1424,0,l),
(926,706,l),
(1402,1356,l),
(1086,1356,l),
(818,973,l),
(754,870,l),
(691,973,l),
(444,1356,l),
(98,1356,l)
);
}
);
width = 1479;
},
{
layerId = "F307D2A1-D493-44D9-89F1-438E1120FCB6";
shapes = (
{
closed = 1;
nodes = (
(624,689,l),
(95,0,l),
(308,0,l),
(679,493,l),
(735,583,l),
(794,493,l),
(1157,0,l),
(1383,0,l),
(861,703,l),
(1362,1356,l),
(1149,1356,l),
(803,891,l),
(753,808,l),
(700,891,l),
(368,1356,l),
(137,1356,l)
);
}
);
width = 1479;
},
{
layerId = "4443E9CB-80E0-4C5A-B41E-D517E8EFB53E";
shapes = (
{
closed = 1;
nodes = (
(663,689,l),
(116,0,l),
(275,0,l),
(691,535,l),
(741,620,l),
(795,535,l),
(1196,0,l),
(1361,0,l),
(827,701,l),
(1341,1356,l),
(1182,1356,l),
(795,849,l),
(752,776,l),
(705,849,l),
(329,1356,l),
(158,1356,l)
);
}
);
width = 1479;
}
);
unicode = 88;
},
{
glyphname = Y;
layers = (
{
layerId = "5F7E89D3-0E96-4E8F-898E-E76CB8D7C13D";
shapes = (
{
closed = 1;
nodes = (
(561,478,l),
(561,0,l),
(911,0,l),
(911,480,l),
(1496,1356,l),
(1095,1356,l),
(838,946,l),
(760,801,l),
(751,801,l),
(669,943,l),
(422,1356,l),
(-17,1356,l)
);
}
);
width = 1479;
},
{
layerId = "D9C3C1F3-1F14-4B11-A064-AC4F771295DD";
shapes = (
{
closed = 1;
nodes = (
(596,499,l),
(596,0,l),
(883,0,l),
(883,501,l),
(1447,1356,l),
(1124,1356,l),
(821,869,l),
(759,751,l),
(752,751,l),
(690,866,l),
(386,1356,l),
(32,1356,l)
);
}
);
width = 1479;
},
{
layerId = "F307D2A1-D493-44D9-89F1-438E1120FCB6";
shapes = (
{
closed = 1;
nodes = (
(648,530,l),
(648,0,l),
(841,0,l),
(841,532,l),
(1373,1356,l),
(1168,1356,l),
(795,754,l),
(758,676,l),
(754,676,l),
(721,750,l),
(332,1356,l),
(105,1356,l)
);
}
);
width = 1479;
},
{
layerId = "4443E9CB-80E0-4C5A-B41E-D517E8EFB53E";
shapes = (
{
closed = 1;
nodes = (
(675,546,l),
(675,0,l),
(819,0,l),
(819,548,l),
(1335,1356,l),
(1191,1356,l),
(782,694,l),
(757,637,l),
(755,637,l),
(737,690,l),
(304,1356,l),
(143,1356,l)
);
}
);
width = 1479;
}
);
unicode = 89;
},
{
glyphname = Z;
layers = (
{
layerId = "5F7E89D3-0E96-4E8F-898E-E76CB8D7C13D";
shapes = (
{
closed = 1;
nodes = (
(111,307,l),
(111,0,l),
(1359,0,l),
(1359,307,l),
(493,307,l),
(602,380,l),
(1330,1050,l),
(1330,1356,l),
(144,1356,l),
(144,1050,l),
(951,1050,l),
(837,969,l)
);
}
);
width = 1443;
},
{
layerId = "D9C3C1F3-1F14-4B11-A064-AC4F771295DD";
shapes = (
{
closed = 1;
nodes = (
(116,252,l),
(116,0,l),
(1266,0,l),
(1266,252,l),
(424,252,l),
(517,325,l),
(1249,1104,l),
(1249,1356,l),
(136,1356,l),
(136,1104,l),
(942,1104,l),
(844,1024,l)
);
}
);
width = 1366;
},
{
layerId = "F307D2A1-D493-44D9-89F1-438E1120FCB6";
shapes = (
{
closed = 1;
nodes = (
(124,170,l),
(124,0,l),
(1127,0,l),
(1127,170,l),
(320,170,l),
(390,242,l),
(1127,1185,l),
(1127,1356,l),
(124,1356,l),
(124,1185,l),
(928,1185,l),
(854,1107,l)
);
}
);
width = 1251;
},
{
layerId = "4443E9CB-80E0-4C5A-B41E-D517E8EFB53E";
shapes = (
{
closed = 1;
nodes = (
(128,128,l),
(128,0,l),
(1055,0,l),
(1055,128,l),
(267,128,l),
(324,199,l),
(1064,1227,l),
(1064,1356,l),
(118,1356,l),
(118,1227,l),
(921,1227,l),
(859,1150,l)
);
}
);
width = 1191;
}
);
unicode = 90;
},
{
glyphname = bracketleft;
layers = (
{
layerId = "5F7E89D3-0E96-4E8F-898E-E76CB8D7C13D";
shapes = (
{
closed = 1;
nodes = (
(83,1356,l),
(83,-445,l),
(636,-445,l),
(636,-170,l),
(397,-170,l),
(397,1081,l),
(636,1081,l),
(636,1356,l)
);
}
);
width = 682;
},
{
layerId = "D9C3C1F3-1F14-4B11-A064-AC4F771295DD";
shapes = (
{
closed = 1;
nodes = (
(130,1356,l),
(130,-445,l),
(621,-445,l),
(621,-218,l),
(390,-218,l),
(390,1129,l),
(621,1129,l),
(621,1356,l)
);
}
);
width = 682;
},
{
layerId = "F307D2A1-D493-44D9-89F1-438E1120FCB6";
shapes = (
{
closed = 1;
nodes = (
(200,1356,l),
(200,-445,l),
(599,-445,l),
(599,-290,l),
(379,-290,l),
(379,1201,l),
(599,1201,l),
(599,1356,l)
);
}
);
width = 682;
},
{
layerId = "4443E9CB-80E0-4C5A-B41E-D517E8EFB53E";
shapes = (
{
closed = 1;
nodes = (
(236,1356,l),
(236,-445,l),
(588,-445,l),
(588,-327,l),
(373,-327,l),
(373,1238,l),
(588,1238,l),
(588,1356,l)
);
}
);
width = 682;
}
);
unicode = 91;
},
{
glyphname = backslash;
layers = (
{
layerId = "5F7E89D3-0E96-4E8F-898E-E76CB8D7C13D";
shapes = (
{
closed = 1;
nodes = (
(652,-320,l),
(189,1376,l),
(-82,1314,l),
(372,-383,l)
);
}
);
width = 569;
},
{
layerId = "D9C3C1F3-1F14-4B11-A064-AC4F771295DD";
shapes = (
{
closed = 1;
nodes = (
(650,-272,l),
(141,1377,l),
(-81,1312,l),
(423,-338,l)
);
}
);
width = 569;
},
{
layerId = "F307D2A1-D493-44D9-89F1-438E1120FCB6";
shapes = (
{
closed = 1;
nodes = (
(647,-200,l),
(69,1379,l),
(-79,1309,l),
(500,-271,l)
);
}
);
width = 569;
},
{
layerId = "4443E9CB-80E0-4C5A-B41E-D517E8EFB53E";
shapes = (
{
closed = 1;
nodes = (
(697,-163,l),
(-20,1380,l),
(-129,1307,l),
(592,-236,l)
);
}
);
width = 569;
}
);
unicode = 92;
},
{
glyphname = bracketright;
layers = (
{
layerId = "5F7E89D3-0E96-4E8F-898E-E76CB8D7C13D";
shapes = (
{
closed = 1;
nodes = (
(599,-445,l),
(599,1356,l),
(45,1356,l),
(45,1081,l),
(285,1081,l),
(285,-170,l),
(45,-170,l),
(45,-445,l)
);
}
);
width = 682;
},
{
layerId = "D9C3C1F3-1F14-4B11-A064-AC4F771295DD";
shapes = (
{
closed = 1;
nodes = (
(552,-445,l),
(552,1356,l),
(60,1356,l),
(60,1129,l),
(292,1129,l),
(292,-218,l),
(60,-218,l),
(60,-445,l)
);
}
);
width = 682;
},
{
layerId = "F307D2A1-D493-44D9-89F1-438E1120FCB6";
shapes = (
{
closed = 1;
nodes = (
(482,-445,l),
(482,1356,l),
(83,1356,l),
(83,1201,l),
(303,1201,l),
(303,-290,l),
(83,-290,l),
(83,-445,l)
);
}
);
width = 682;
},
{
layerId = "4443E9CB-80E0-4C5A-B41E-D517E8EFB53E";
shapes = (
{
closed = 1;
nodes = (
(446,-445,l),
(446,1356,l),
(95,1356,l),
(95,1238,l),
(309,1238,l),
(309,-327,l),
(95,-327,l),
(95,-445,l)
);
}
);
width = 682;
}
);
unicode = 93;
},
{
glyphname = asciicircum;
layers = (
{
layerId = "5F7E89D3-0E96-4E8F-898E-E76CB8D7C13D";
shapes = (
{
closed = 1;
nodes = (
(582,1358,l),
(160,771,l),
(480,771,l),
(601,966,l),
(666,1089,l),
(728,968,l),
(850,771,l),
(1181,771,l),
(776,1358,l)
);
}
);
width = 1343;
},
{
layerId = "D9C3C1F3-1F14-4B11-A064-AC4F771295DD";
shapes = (
{
closed = 1;
nodes = (
(533,1365,l),
(121,796,l),
(383,796,l),
(533,1014,l),
(597,1142,l),
(654,1016,l),
(793,796,l),
(1068,796,l),
(679,1365,l)
);
}
);
width = 1190;
},
{
layerId = "F307D2A1-D493-44D9-89F1-438E1120FCB6";
shapes = (
{
closed = 1;
nodes = (
(460,1375,l),
(63,833,l),
(237,833,l),
(431,1086,l),
(493,1222,l),
(543,1088,l),
(708,833,l),
(898,833,l),
(534,1375,l)
);
}
);
width = 961;
},
{
layerId = "4443E9CB-80E0-4C5A-B41E-D517E8EFB53E";
shapes = (
{
closed = 1;
nodes = (
(422,1380,l),
(33,853,l),
(162,853,l),
(379,1123,l),
(440,1263,l),
(485,1125,l),
(664,853,l),
(810,853,l),
(459,1380,l)
);
}
);
width = 843;
}
);
unicode = 94;
},
{
glyphname = underscore;
layers = (
{
layerId = "5F7E89D3-0E96-4E8F-898E-E76CB8D7C13D";
shapes = (
{
closed = 1;
nodes = (
(-24,-195,l),
(-24,-460,l),
(1050,-460,l),
(1050,-195,l)
);
}
);
width = 1024;
},
{
layerId = "D9C3C1F3-1F14-4B11-A064-AC4F771295DD";
shapes = (
{
closed = 1;
nodes = (
(15,-218,l),
(15,-438,l),
(1010,-438,l),
(1010,-218,l)
);
}
);
width = 1024;
},
{
layerId = "F307D2A1-D493-44D9-89F1-438E1120FCB6";
shapes = (
{
closed = 1;
nodes = (
(74,-253,l),
(74,-405,l),
(950,-405,l),
(950,-253,l)
);
}
);
width = 1024;
},
{
layerId = "4443E9CB-80E0-4C5A-B41E-D517E8EFB53E";
shapes = (
{
closed = 1;
nodes = (
(105,-272,l),
(105,-388,l),
(919,-388,l),
(919,-272,l)
);
}
);
width = 1024;
}
);
unicode = 95;
},
{
glyphname = grave;
layers = (
{
layerId = "5F7E89D3-0E96-4E8F-898E-E76CB8D7C13D";
shapes = (
{
closed = 1;
nodes = (
(545,1128,l),
(418,1449,l),
(85,1449,l),
(85,1383,l),
(375,1128,l)
);
}
);
width = 682;
},
{
layerId = "D9C3C1F3-1F14-4B11-A064-AC4F771295DD";
shapes = (
{
closed = 1;
nodes = (
(530,1105,l),
(399,1412,l),
(114,1412,l),
(114,1354,l),
(386,1105,l)
);
}
);
width = 682;
},
{
layerId = "F307D2A1-D493-44D9-89F1-438E1120FCB6";
shapes = (
{
closed = 1;
nodes = (
(508,1070,l),
(370,1356,l),
(158,1356,l),
(158,1310,l),
(403,1070,l)
);
}
);
width = 682;
},
{
layerId = "4443E9CB-80E0-4C5A-B41E-D517E8EFB53E";
shapes = (
{
closed = 1;
nodes = (
(497,1051,l),
(355,1327,l),
(181,1327,l),
(181,1287,l),
(412,1051,l)
);
}
);
width = 682;
}
);
unicode = 96;
},
{
glyphname = a;
layers = (
{
layerId = "5F7E89D3-0E96-4E8F-898E-E76CB8D7C13D";
shapes = (
{
closed = 1;
nodes = (
(236,658,l),
(320,690,o),
(404,733,o),
(536,733,cs),
(588,733,o),
(690,710,o),
(690,621,cs),
(690,616,o),
(688,596,o),
(686,577,c),
(595,600,o),
(560,603,o),
(518,603,cs),
(306,606,o),
(89,539,o),
(89,281,cs),
(89,87,o),
(214,-14,o),
(400,-14,cs),
(482,-14,o),
(606,-2,o),
(694,138,c),
(723,138,l),
(760,-1,l),
(1023,-1,l),
(991,85,o),
(977,168,o),
(977,262,cs),
(977,383,o),
(991,493,o),
(991,609,cs),
(991,853,o),
(866,976,o),
(612,976,cs),
(474,976,o),
(340,968,o),
(156,888,c)
);
},
{
closed = 1;
nodes = (
(689,327,l),
(659,268,o),
(591,228,o),
(520,228,cs),
(430,228,o),
(402,246,o),
(402,311,cs),
(402,335,o),
(419,435,o),
(565,435,cs),
(592,435,o),
(630,427,o),
(689,408,c)
);
}
);
width = 1101;
},
{
layerId = "D9C3C1F3-1F14-4B11-A064-AC4F771295DD";
shapes = (
{
closed = 1;
nodes = (
(213,687,l),
(295,722,o),
(376,762,o),
(489,762,cs),
(583,762,o),
(660,728,o),
(660,622,cs),
(660,603,o),
(658,583,o),
(655,558,c),
(586,574,o),
(509,580,o),
(475,580,cs),
(269,580,o),
(85,509,o),
(85,270,cs),
(85,90,o),
(199,-14,o),
(370,-14,cs),
(479,-14,o),
(590,19,o),
(663,137,c),
(685,137,l),
(725,-2,l),
(929,-2,l),
(902,78,o),
(891,161,o),
(891,253,cs),
(891,386,o),
(905,501,o),
(905,622,cs),
(905,822,o),
(816,962,o),
(552,962,cs),
(407,962,o),
(299,943,o),
(147,876,c)
);
},
{
closed = 1;
nodes = (
(657,306,l),
(627,244,o),
(555,185,o),
(463,185,cs),
(382,185,o),
(341,219,o),
(341,295,cs),
(341,359,o),
(385,433,o),
(513,433,cs),
(559,433,o),
(620,421,o),
(657,411,c)
);
}
);
width = 1024;
},
{
layerId = "F307D2A1-D493-44D9-89F1-438E1120FCB6";
shapes = (
{
closed = 1;
nodes = (
(178,731,l),
(258,770,o),
(334,805,o),
(419,805,cs),
(576,805,o),
(615,755,o),
(615,624,cs),
(615,584,o),
(613,563,o),
(609,530,c),
(572,535,o),
(554,545,o),
(410,545,cs),
(214,545,o),
(79,464,o),
(79,254,cs),
(79,95,o),
(177,-14,o),
(325,-14,cs),
(474,-14,o),
(566,51,o),
(617,136,c),
(628,136,l),
(672,-4,l),
(788,-4,l),
(769,68,o),
(762,151,o),
(762,239,cs),
(762,390,o),
(776,513,o),
(776,642,cs),
(776,775,o),
(741,941,o),
(462,941,cs),
(307,941,o),
(238,906,o),
(133,858,c)
);
},
{
closed = 1;
nodes = (
(609,275,l),
(579,208,o),
(501,121,o),
(377,121,cs),
(310,121,o),
(250,179,o),
(250,271,cs),
(250,395,o),
(334,430,o),
(435,430,cs),
(558,430,o),
(574,423,o),
(609,415,c)
);
}
);
width = 909;
},
{
layerId = "4443E9CB-80E0-4C5A-B41E-D517E8EFB53E";
shapes = (
{
closed = 1;
nodes = (
(159,754,l),
(238,795,o),
(312,828,o),
(383,828,cs),
(572,828,o),
(591,769,o),
(591,625,cs),
(591,574,o),
(589,553,o),
(585,516,c),
(565,514,o),
(578,526,o),
(376,526,cs),
(185,526,o),
(76,440,o),
(76,246,cs),
(76,98,o),
(166,-14,o),
(301,-14,cs),
(471,-14,o),
(554,67,o),
(593,135,c),
(598,135,l),
(644,-5,l),
(715,-5,l),
(700,63,o),
(695,146,o),
(695,232,cs),
(695,392,o),
(709,519,o),
(709,652,cs),
(709,750,o),
(702,930,o),
(416,930,cs),
(256,930,o),
(206,886,o),
(126,849,c)
);
},
{
closed = 1;
nodes = (
(584,259,l),
(554,189,o),
(473,88,o),
(333,88,cs),
(273,88,o),
(203,158,o),
(203,259,cs),
(203,414,o),
(307,428,o),
(395,428,cs),
(557,428,o),
(550,424,o),
(584,417,c)
);
}
);
width = 849;
}
);
unicode = 97;
},
{
glyphname = b;
layers = (
{
layerId = "5F7E89D3-0E96-4E8F-898E-E76CB8D7C13D";
shapes = (
{
closed = 1;
nodes = (
(157,1377,l),
(157,31,l),
(217,13,o),
(415,-30,o),
(626,-30,cs),
(941,-30,o),
(1116,177,o),
(1116,506,cs),
(1116,807,o),
(978,972,o),
(755,972,cs),
(646,972,o),
(540,934,o),
(489,892,c),
(464,892,l),
(464,1377,l)
);
},
{
closed = 1;
nodes = (
(744,714,o),
(801,660,o),
(801,496,cs),
(801,300,o),
(742,228,o),
(624,228,cs),
(571,228,o),
(506,226,o),
(464,253,c),
(464,612,l),
(495,698,o),
(577,714,o),
(645,714,cs)
);
}
);
width = 1216;
},
{
layerId = "D9C3C1F3-1F14-4B11-A064-AC4F771295DD";
shapes = (
{
closed = 1;
nodes = (
(150,1377,l),
(150,38,l),
(225,6,o),
(384,-24,o),
(559,-24,cs),
(868,-24,o),
(1049,168,o),
(1049,493,cs),
(1049,798,o),
(921,959,o),
(686,959,cs),
(579,959,o),
(477,920,o),
(421,856,c),
(399,856,l),
(399,1377,l)
);
},
{
closed = 1;
nodes = (
(736,750,o),
(792,660,o),
(792,488,cs),
(792,285,o),
(719,185,o),
(566,185,cs),
(502,185,o),
(447,188,o),
(399,213,c),
(399,602,l),
(432,699,o),
(512,750,o),
(611,750,cs)
);
}
);
width = 1139;
},
{
layerId = "F307D2A1-D493-44D9-89F1-438E1120FCB6";
shapes = (
{
closed = 1;
nodes = (
(140,1377,l),
(140,49,l),
(237,-4,o),
(337,-15,o),
(458,-15,cs),
(759,-15,o),
(949,155,o),
(949,474,cs),
(949,785,o),
(835,940,o),
(583,940,cs),
(479,940,o),
(382,899,o),
(319,802,c),
(302,802,l),
(302,1377,l)
);
},
{
closed = 1;
nodes = (
(724,804,o),
(779,660,o),
(779,476,cs),
(779,262,o),
(684,120,o),
(479,120,cs),
(399,120,o),
(359,131,o),
(302,153,c),
(302,587,l),
(337,700,o),
(414,804,o),
(560,804,cs)
);
}
);
width = 1024;
},
{
layerId = "4443E9CB-80E0-4C5A-B41E-D517E8EFB53E";
shapes = (
{
closed = 1;
nodes = (
(135,1377,l),
(135,55,l),
(243,-9,o),
(312,-10,o),
(406,-10,cs),
(702,-10,o),
(898,148,o),
(898,464,cs),
(898,778,o),
(791,930,o),
(530,930,cs),
(428,930,o),
(333,888,o),
(267,774,c),
(252,774,l),
(252,1377,l)
);
},
{
closed = 1;
nodes = (
(718,832,o),
(772,660,o),
(772,470,cs),
(772,250,o),
(665,86,o),
(434,86,cs),
(346,86,o),
(314,101,o),
(252,122,c),
(252,579,l),
(288,701,o),
(364,832,o),
(533,832,cs)
);
}
);
width = 964;
}
);
unicode = 98;
},
{
glyphname = c;
layers = (
{
layerId = "5F7E89D3-0E96-4E8F-898E-E76CB8D7C13D";
shapes = (
{
closed = 1;
nodes = (
(800,288,l),
(756,278,o),
(693,249,o),
(603,249,cs),
(470,249,o),
(409,333,o),
(409,474,cs),
(409,594,o),
(464,700,o),
(628,700,cs),
(705,700,o),
(747,680,o),
(811,667,c),
(870,920,l),
(798,940,o),
(733,976,o),
(593,976,cs),
(276,976,o),
(96,762,o),
(96,474,cs),
(96,180,o),
(233,-29,o),
(561,-29,cs),
(664,-29,o),
(781,-2,o),
(859,52,c)
);
}
);
width = 909;
},
{
layerId = "D9C3C1F3-1F14-4B11-A064-AC4F771295DD";
shapes = (
{
closed = 1;
nodes = (
(803,251,l),
(751,224,o),
(674,194,o),
(581,194,cs),
(413,194,o),
(346,312,o),
(346,467,cs),
(346,632,o),
(417,742,o),
(591,742,cs),
(672,742,o),
(735,719,o),
(799,694,c),
(859,894,l),
(788,929,o),
(695,962,o),
(562,962,cs),
(260,962,o),
(90,763,o),
(90,467,cs),
(90,175,o),
(218,-27,o),
(538,-27,cs),
(659,-27,o),
(780,8,o),
(859,63,c)
);
}
);
width = 909;
},
{
layerId = "F307D2A1-D493-44D9-89F1-438E1120FCB6";
shapes = (
{
closed = 1;
nodes = (
(807,196,l),
(743,143,o),
(645,112,o),
(548,112,cs),
(327,112,o),
(252,281,o),
(252,457,cs),
(252,689,o),
(346,805,o),
(535,805,cs),
(623,805,o),
(717,777,o),
(781,734,c),
(842,855,l),
(773,913,o),
(638,941,o),
(516,941,cs),
(236,941,o),
(81,765,o),
(81,457,cs),
(81,168,o),
(195,-24,o),
(504,-24,cs),
(651,-24,o),
(778,23,o),
(859,79,c)
);
}
);
width = 909;
},
{
layerId = "4443E9CB-80E0-4C5A-B41E-D517E8EFB53E";
shapes = (
{
closed = 1;
nodes = (
(809,167,l),
(739,101,o),
(630,76,o),
(531,76,cs),
(283,76,o),
(204,265,o),
(204,452,cs),
(204,719,o),
(309,838,o),
(506,838,cs),
(597,838,o),
(708,807,o),
(772,755,c),
(833,834,l),
(765,905,o),
(608,930,o),
(492,930,cs),
(235,930,o),
(76,746,o),
(76,452,cs),
(76,173,o),
(246,-22,o),
(487,-22,cs),
(647,-22,o),
(777,31,o),
(859,87,c)
);
}
);
width = 909;
}
);
unicode = 99;
},
{
glyphname = d;
layers = (
{
layerId = "5F7E89D3-0E96-4E8F-898E-E76CB8D7C13D";
shapes = (
{
closed = 1;
nodes = (
(1058,1377,l),
(750,1377,l),
(750,943,l),
(698,962,o),
(631,977,o),
(538,977,cs),
(233,977,o),
(102,765,o),
(102,472,cs),
(102,172,o),
(232,-29,o),
(501,-29,cs),
(639,-29,o),
(697,1,o),
(800,123,c),
(825,123,l),
(856,-1,l),
(1076,-1,l),
(1054,141,o),
(1058,249,o),
(1058,336,cs)
);
},
{
closed = 1;
nodes = (
(443,237,o),
(419,333,o),
(419,456,cs),
(419,561,o),
(413,721,o),
(588,721,cs),
(679,721,o),
(707,706,o),
(750,676,c),
(750,334,l),
(723,272,o),
(677,229,o),
(584,229,c)
);
}
);
width = 1216;
},
{
layerId = "D9C3C1F3-1F14-4B11-A064-AC4F771295DD";
shapes = (
{
closed = 1;
nodes = (
(981,1377,l),
(732,1377,l),
(732,926,l),
(672,945,o),
(616,960,o),
(533,960,cs),
(235,960,o),
(90,764,o),
(90,451,cs),
(90,155,o),
(219,-27,o),
(470,-27,cs),
(607,-27,o),
(685,18,o),
(768,128,c),
(790,128,l),
(825,-2,l),
(999,-2,l),
(979,123,o),
(981,228,o),
(981,328,cs)
);
},
{
closed = 1;
nodes = (
(390,187,o),
(347,302,o),
(347,453,cs),
(347,615,o),
(387,752,o),
(567,752,cs),
(646,752,o),
(686,736,o),
(732,704,c),
(732,329,l),
(703,236,o),
(645,182,o),
(533,182,c)
);
}
);
width = 1139;
},
{
layerId = "F307D2A1-D493-44D9-89F1-438E1120FCB6";
shapes = (
{
closed = 1;
nodes = (
(865,1377,l),
(705,1377,l),
(705,901,l),
(633,920,o),
(593,934,o),
(526,934,cs),
(238,934,o),
(72,763,o),
(72,420,cs),
(72,129,o),
(200,-24,o),
(423,-24,cs),
(559,-24,o),
(667,44,o),
(720,136,c),
(737,136,l),
(778,-4,l),
(884,-4,l),
(867,96,o),
(865,196,o),
(865,316,cs)
);
},
{
closed = 1;
nodes = (
(310,112,o),
(239,255,o),
(239,449,cs),
(239,696,o),
(348,798,o),
(536,798,cs),
(596,798,o),
(654,781,o),
(705,746,c),
(705,322,l),
(673,182,o),
(597,112,o),
(456,112,cs)
);
}
);
width = 1024;
},
{
layerId = "4443E9CB-80E0-4C5A-B41E-D517E8EFB53E";
shapes = (
{
closed = 1;
nodes = (
(805,1377,l),
(691,1377,l),
(691,888,l),
(612,907,o),
(581,921,o),
(522,921,cs),
(240,921,o),
(63,762,o),
(63,404,cs),
(63,116,o),
(190,-22,o),
(398,-22,cs),
(534,-22,o),
(658,57,o),
(695,140,c),
(709,140,l),
(753,-5,l),
(824,-5,l),
(809,82,o),
(805,180,o),
(805,310,cs)
);
},
{
closed = 1;
nodes = (
(269,73,o),
(183,230,o),
(183,447,cs),
(183,738,o),
(327,822,o),
(520,822,cs),
(570,822,o),
(638,805,o),
(691,768,c),
(691,318,l),
(658,154,o),
(572,76,o),
(416,76,c)
);
}
);
width = 964;
}
);
unicode = 100;
},
{
glyphname = e;
layers = (
{
layerId = "5F7E89D3-0E96-4E8F-898E-E76CB8D7C13D";
shapes = (
{
closed = 1;
nodes = (
(739,264,l),
(690,236,o),
(612,207,o),
(528,207,cs),
(384,207,o),
(370,287,o),
(368,379,c),
(844,379,l),
(857,430,o),
(866,513,o),
(866,588,cs),
(866,799,o),
(765,976,o),
(494,976,cs),
(198,976,o),
(53,710,o),
(53,465,cs),
(53,159,o),
(186,-29,o),
(517,-29,cs),
(651,-29,o),
(774,2,o),
(838,50,c)
);
},
{
closed = 1;
nodes = (
(363,556,l),
(357,613,o),
(367,740,o),
(470,740,cs),
(577,740,o),
(594,640,o),
(580,556,c)
);
}
);
width = 909;
},
{
layerId = "D9C3C1F3-1F14-4B11-A064-AC4F771295DD";
shapes = (
{
closed = 1;
nodes = (
(740,237,l),
(691,202,o),
(618,169,o),
(529,169,cs),
(372,169,o),
(314,252,o),
(314,402,c),
(837,402,l),
(848,451,o),
(854,522,o),
(854,581,cs),
(854,817,o),
(730,962,o),
(495,962,cs),
(203,962,o),
(60,734,o),
(60,462,cs),
(60,161,o),
(192,-27,o),
(504,-27,cs),
(641,-27,o),
(753,7,o),
(824,60,c)
);
},
{
closed = 1;
nodes = (
(314,554,l),
(317,662,o),
(354,766,o),
(481,766,cs),
(609,766,o),
(631,655,o),
(621,554,c)
);
}
);
width = 909;
},
{
layerId = "F307D2A1-D493-44D9-89F1-438E1120FCB6";
shapes = (
{
closed = 1;
nodes = (
(742,196,l),
(693,151,o),
(627,112,o),
(530,112,cs),
(354,112,o),
(230,200,o),
(233,436,c),
(827,436,l),
(835,483,o),
(836,535,o),
(836,571,cs),
(836,844,o),
(677,941,o),
(496,941,cs),
(211,941,o),
(70,770,o),
(70,457,cs),
(70,164,o),
(201,-24,o),
(485,-24,cs),
(626,-24,o),
(722,15,o),
(803,75,c)
);
},
{
closed = 1;
nodes = (
(241,551,l),
(257,736,o),
(335,805,o),
(498,805,cs),
(657,805,o),
(686,678,o),
(683,551,c)
);
}
);
width = 909;
},
{
layerId = "4443E9CB-80E0-4C5A-B41E-D517E8EFB53E";
shapes = (
{
closed = 1;
nodes = (
(743,174,l),
(694,124,o),
(632,82,o),
(531,82,cs),
(345,82,o),
(187,173,o),
(191,453,c),
(822,453,l),
(828,499,o),
(827,542,o),
(827,566,cs),
(827,858,o),
(649,930,o),
(497,930,cs),
(215,930,o),
(75,789,o),
(75,454,cs),
(75,166,o),
(206,-22,o),
(475,-22,cs),
(618,-22,o),
(706,19,o),
(792,83,c)
);
},
{
closed = 1;
nodes = (
(203,549,l),
(226,774,o),
(325,826,o),
(507,826,cs),
(682,826,o),
(715,690,o),
(715,549,c)
);
}
);
width = 909;
}
);
unicode = 101;
},
{
glyphname = f;
layers = (
{
layerId = "5F7E89D3-0E96-4E8F-898E-E76CB8D7C13D";
shapes = (
{
closed = 1;
nodes = (
(9,950,l),
(9,695,l),
(149,695,l),
(149,0,l),
(457,0,l),
(457,695,l),
(626,695,l),
(626,950,l),
(450,950,l),
(450,1033,ls),
(450,1095,o),
(464,1137,o),
(544,1137,cs),
(607,1137,o),
(624,1122,o),
(679,1107,c),
(734,1343,l),
(656,1367,o),
(620,1377,o),
(487,1377,cs),
(306,1377,o),
(149,1322,o),
(149,1136,cs),
(149,950,l)
);
}
);
width = 682;
},
{
layerId = "D9C3C1F3-1F14-4B11-A064-AC4F771295DD";
shapes = (
{
closed = 1;
nodes = (
(35,936,l),
(35,728,l),
(181,728,l),
(181,0,l),
(430,0,l),
(430,728,l),
(639,728,l),
(639,936,l),
(426,936,l),
(426,1032,ls),
(426,1114,o),
(449,1179,o),
(543,1179,cs),
(600,1179,o),
(631,1168,o),
(688,1149,c),
(735,1343,l),
(660,1367,o),
(614,1377,o),
(499,1377,cs),
(307,1377,o),
(181,1285,o),
(181,1083,cs),
(181,936,l)
);
}
);
width = 682;
},
{
layerId = "F307D2A1-D493-44D9-89F1-438E1120FCB6";
shapes = (
{
closed = 1;
nodes = (
(74,915,l),
(74,778,l),
(229,778,l),
(229,0,l),
(390,0,l),
(390,778,l),
(658,778,l),
(658,915,l),
(390,915,l),
(390,1031,ls),
(390,1142,o),
(426,1242,o),
(541,1242,cs),
(590,1242,o),
(642,1237,o),
(702,1212,c),
(737,1343,l),
(666,1367,o),
(605,1377,o),
(517,1377,cs),
(308,1377,o),
(229,1230,o),
(229,1003,cs),
(229,915,l)
);
}
);
width = 682;
},
{
layerId = "4443E9CB-80E0-4C5A-B41E-D517E8EFB53E";
shapes = (
{
closed = 1;
nodes = (
(95,904,l),
(95,804,l),
(254,804,l),
(254,0,l),
(369,0,l),
(369,804,l),
(668,804,l),
(668,904,l),
(371,904,l),
(371,1030,ls),
(371,1156,o),
(414,1275,o),
(540,1275,cs),
(585,1275,o),
(648,1273,o),
(709,1245,c),
(738,1343,l),
(669,1367,o),
(600,1377,o),
(526,1377,cs),
(309,1377,o),
(254,1201,o),
(254,962,cs),
(254,904,l)
);
}
);
width = 682;
}
);
unicode = 102;
},
{
glyphname = g;
widthMetricsKey = "=1024";
layers = (
{
layerId = "5F7E89D3-0E96-4E8F-898E-E76CB8D7C13D";
shapes = (
{
closed = 1;
nodes = (
(351,741,o),
(404,790,o),
(484,790,cs),
(563,790,o),
(613,743,o),
(613,634,cs),
(613,535,o),
(565,491,o),
(484,491,cs),
(406,491,o),
(351,542,o),
(351,638,cs)
);
},
{
closed = 1;
nodes = (
(690,-151,o),
(618,-198,o),
(511,-198,cs),
(397,-198,o),
(331,-149,o),
(331,-54,cs),
(331,-6,o),
(368,49,o),
(444,86,c),
(378,71,l),
(588,38,ls),
(662,26,o),
(690,-4,o),
(690,-49,cs)
);
},
{
closed = 1;
nodes = (
(291,976,o),
(86,871,o),
(86,620,cs),
(86,504,o),
(124,425,o),
(201,374,c),
(173,340,o),
(161,295,o),
(161,244,cs),
(161,164,o),
(189,108,o),
(250,88,c),
(257,118,l),
(137,59,o),
(75,-26,o),
(75,-126,cs),
(75,-237,o),
(154,-385,o),
(456,-385,cs),
(755,-385,o),
(958,-243,o),
(958,-41,cs),
(958,86,o),
(879,187,o),
(690,221,c),
(425,264,l),
(415,267,o),
(405,274,o),
(405,280,cs),
(405,283,o),
(412,298,o),
(420,308,c),
(434,308,o),
(452,305,o),
(466,305,cs),
(783,305,o),
(881,465,o),
(881,624,cs),
(881,659,o),
(875,682,o),
(872,702,c),
(969,702,l),
(1020,790,l),
(1005,847,o),
(961,987,o),
(937,1014,c),
(916,1006,o),
(819,926,o),
(759,873,c),
(700,924,o),
(622,976,o),
(485,976,cs)
);
}
);
width = 1024;
},
{
layerId = "D9C3C1F3-1F14-4B11-A064-AC4F771295DD";
shapes = (
{
closed = 1;
nodes = (
(321,743,o),
(381,803,o),
(480,803,cs),
(578,803,o),
(637,744,o),
(637,633,cs),
(637,527,o),
(579,472,o),
(480,472,cs),
(382,472,o),
(321,531,o),
(321,635,cs)
);
},
{
closed = 1;
nodes = (
(713,-172,o),
(634,-229,o),
(501,-229,cs),
(371,-229,o),
(295,-176,o),
(295,-75,cs),
(295,-13,o),
(343,48,o),
(442,90,c),
(374,78,l),
(612,27,ls),
(688,11,o),
(713,-19,o),
(713,-66,cs)
);
},
{
closed = 1;
nodes = (
(267,962,o),
(94,843,o),
(94,625,cs),
(94,507,o),
(144,416,o),
(235,367,c),
(205,335,o),
(185,292,o),
(185,235,cs),
(185,163,o),
(213,115,o),
(274,95,c),
(279,123,l),
(147,72,o),
(73,-19,o),
(73,-129,cs),
(73,-258,o),
(178,-388,o),
(464,-388,cs),
(755,-388,o),
(942,-256,o),
(942,-58,cs),
(942,87,o),
(842,162,o),
(671,198,cs),
(409,253,l),
(397,256,o),
(389,265,o),
(389,275,cs),
(389,284,o),
(396,303,o),
(408,317,c),
(426,317,o),
(446,314,o),
(464,314,cs),
(753,314,o),
(865,459,o),
(865,632,cs),
(865,671,o),
(859,703,o),
(850,730,c),
(977,730,l),
(1020,804,l),
(1011,854,o),
(983,960,o),
(959,990,c),
(920,979,o),
(833,919,o),
(763,867,c),
(700,920,o),
(614,962,o),
(491,962,cs)
);
}
);
width = 1024;
},
{
layerId = "F307D2A1-D493-44D9-89F1-438E1120FCB6";
shapes = (
{
closed = 1;
nodes = (
(275,746,o),
(346,823,o),
(474,823,cs),
(600,823,o),
(673,746,o),
(673,631,cs),
(673,515,o),
(600,443,o),
(473,443,cs),
(345,443,o),
(275,515,o),
(275,630,cs)
);
},
{
closed = 1;
nodes = (
(747,-203,o),
(658,-276,o),
(486,-276,cs),
(331,-276,o),
(241,-216,o),
(241,-106,cs),
(241,-24,o),
(305,47,o),
(438,96,c),
(368,88,l),
(648,10,ls),
(726,-12,o),
(747,-42,o),
(747,-92,cs)
);
},
{
closed = 1;
nodes = (
(230,941,o),
(105,801,o),
(105,633,cs),
(105,511,o),
(173,403,o),
(286,357,c),
(252,328,o),
(221,287,o),
(221,222,cs),
(221,162,o),
(248,125,o),
(310,106,c),
(312,131,l),
(161,91,o),
(70,-9,o),
(70,-133,cs),
(70,-289,o),
(213,-393,o),
(475,-393,cs),
(754,-393,o),
(917,-275,o),
(917,-83,cs),
(917,89,o),
(786,124,o),
(642,164,cs),
(385,236,ls),
(370,240,o),
(364,252,o),
(364,267,cs),
(364,285,o),
(372,310,o),
(389,331,c),
(413,331,o),
(436,328,o),
(460,328,cs),
(708,328,o),
(840,450,o),
(840,644,cs),
(840,689,o),
(834,735,o),
(817,772,c),
(988,772,l),
(1019,825,l),
(1019,865,o),
(1016,920,o),
(991,954,c),
(925,938,o),
(854,909,o),
(768,858,c),
(699,914,o),
(601,941,o),
(499,941,cs)
);
}
);
width = 1024;
},
{
layerId = "4443E9CB-80E0-4C5A-B41E-D517E8EFB53E";
shapes = (
{
closed = 1;
nodes = (
(242,763,o),
(331,842,o),
(484,842,cs),
(638,842,o),
(726,761,o),
(726,631,cs),
(726,500,o),
(636,422,o),
(483,422,cs),
(330,422,o),
(242,500,o),
(242,631,cs)
);
},
{
closed = 1;
nodes = (
(793,-218,o),
(671,-307,o),
(467,-307,cs),
(298,-307,o),
(211,-246,o),
(211,-111,cs),
(211,-61,o),
(212,47,o),
(433,144,c),
(345,125,l),
(678,35,l),
(751,16,o),
(793,-17,o),
(793,-92,cs)
);
},
{
closed = 1;
nodes = (
(221,930,o),
(119,782,o),
(119,638,cs),
(119,515,o),
(194,398,o),
(319,354,c),
(284,327,o),
(248,301,o),
(248,234,cs),
(248,183,o),
(265,149,o),
(318,134,c),
(322,161,l),
(157,108,o),
(76,-15,o),
(76,-136,cs),
(76,-303,o),
(240,-396,o),
(479,-396,cs),
(758,-396,o),
(922,-272,o),
(922,-88,cs),
(922,17,o),
(875,96,o),
(754,130,cs),
(385,232,ls),
(370,236,o),
(359,253,o),
(359,275,cs),
(359,293,o),
(367,315,o),
(388,340,c),
(410,340,o),
(435,337,o),
(457,337,cs),
(699,337,o),
(846,447,o),
(846,650,cs),
(846,698,o),
(838,750,o),
(820,793,c),
(1012,793,l),
(1039,837,l),
(1051,869,o),
(1044,914,o),
(1025,940,c),
(945,921,o),
(878,906,o),
(776,855,c),
(702,913,o),
(610,930,o),
(524,930,cs)
);
}
);
width = 1024;
}
);
unicode = 103;
},
{
glyphname = h;
layers = (
{
layerId = "5F7E89D3-0E96-4E8F-898E-E76CB8D7C13D";
shapes = (
{
closed = 1;
nodes = (
(763,0,l),
(1072,0,l),
(1072,588,ls),
(1072,885,o),
(903,976,o),
(777,976,cs),
(630,976,o),
(541,904,o),
(488,835,c),
(464,835,l),
(464,1377,l),
(157,1377,l),
(157,0,l),
(464,0,l),
(464,571,l),
(507,652,o),
(553,705,o),
(629,705,cs),
(736,705,o),
(763,561,o),
(763,521,cs)
);
}
);
width = 1216;
},
{
layerId = "D9C3C1F3-1F14-4B11-A064-AC4F771295DD";
shapes = (
{
closed = 1;
nodes = (
(753,0,l),
(1003,0,l),
(1003,569,ls),
(1003,872,o),
(869,962,o),
(705,962,cs),
(569,962,o),
(480,897,o),
(421,822,c),
(399,822,l),
(399,1377,l),
(150,1377,l),
(150,0,l),
(399,0,l),
(399,576,l),
(436,677,o),
(506,742,o),
(594,742,cs),
(727,742,o),
(753,618,o),
(753,515,cs)
);
}
);
width = 1139;
},
{
layerId = "F307D2A1-D493-44D9-89F1-438E1120FCB6";
shapes = (
{
closed = 1;
nodes = (
(738,0,l),
(899,0,l),
(899,540,ls),
(899,853,o),
(818,941,o),
(597,941,cs),
(478,941,o),
(389,886,o),
(320,802,c),
(301,802,l),
(301,1377,l),
(140,1377,l),
(140,0,l),
(301,0,l),
(301,584,l),
(330,715,o),
(436,798,o),
(541,798,cs),
(713,798,o),
(738,703,o),
(738,506,cs)
);
}
);
width = 1024;
},
{
layerId = "4443E9CB-80E0-4C5A-B41E-D517E8EFB53E";
shapes = (
{
closed = 1;
nodes = (
(730,0,l),
(846,0,l),
(846,525,ls),
(846,843,o),
(791,930,o),
(541,930,cs),
(431,930,o),
(342,880,o),
(268,792,c),
(251,792,l),
(251,1377,l),
(135,1377,l),
(135,0,l),
(251,0,l),
(251,588,l),
(276,735,o),
(400,827,o),
(513,827,cs),
(706,827,o),
(730,747,o),
(730,501,cs)
);
}
);
width = 964;
}
);
unicode = 104;
},
{
glyphname = i;
layers = (
{
layerId = "5F7E89D3-0E96-4E8F-898E-E76CB8D7C13D";
shapes = (
{
closed = 1;
nodes = (
(129,950,l),
(129,0,l),
(439,0,l),
(439,950,l)
);
},
{
closed = 1;
nodes = (
(95,1165,o),
(179,1106,o),
(278,1106,cs),
(396,1106,o),
(474,1163,o),
(474,1284,cs),
(474,1389,o),
(394,1458,o),
(278,1458,cs),
(179,1458,o),
(95,1389,o),
(95,1284,cs)
);
}
);
width = 569;
},
{
layerId = "D9C3C1F3-1F14-4B11-A064-AC4F771295DD";
shapes = (
{
closed = 1;
nodes = (
(159,936,l),
(159,0,l),
(409,0,l),
(409,936,l)
);
},
{
closed = 1;
nodes = (
(129,1182,o),
(196,1130,o),
(281,1130,cs),
(377,1130,o),
(440,1181,o),
(440,1275,cs),
(440,1360,o),
(376,1419,o),
(281,1419,cs),
(196,1419,o),
(129,1360,o),
(129,1275,cs)
);
}
);
width = 569;
},
{
layerId = "F307D2A1-D493-44D9-89F1-438E1120FCB6";
shapes = (
{
closed = 1;
nodes = (
(204,915,l),
(204,0,l),
(364,0,l),
(364,915,l)
);
},
{
closed = 1;
nodes = (
(180,1208,o),
(222,1166,o),
(286,1166,cs),
(349,1166,o),
(389,1208,o),
(389,1261,cs),
(389,1317,o),
(349,1360,o),
(286,1360,cs),
(222,1360,o),
(180,1317,o),
(180,1261,cs)
);
}
);
width = 569;
},
{
layerId = "4443E9CB-80E0-4C5A-B41E-D517E8EFB53E";
shapes = (
{
closed = 1;
nodes = (
(228,904,l),
(228,0,l),
(340,0,l),
(340,904,l)
);
},
{
closed = 1;
nodes = (
(203,1214,o),
(239,1180,o),
(285,1180,cs),
(329,1180,o),
(366,1214,o),
(366,1257,cs),
(366,1298,o),
(329,1332,o),
(285,1332,cs),
(239,1332,o),
(203,1298,o),
(203,1257,cs)
);
}
);
width = 569;
}
);
unicode = 105;
},
{
glyphname = j;
layers = (
{
layerId = "5F7E89D3-0E96-4E8F-898E-E76CB8D7C13D";
shapes = (
{
closed = 1;
nodes = (
(243,950,l),
(243,43,ls),
(243,-55,o),
(236,-136,o),
(67,-125,c),
(59,-123,o),
(34,-121,o),
(29,-119,c),
(29,-377,l),
(71,-393,o),
(141,-402,o),
(194,-402,cs),
(472,-402,o),
(551,-200,o),
(551,12,cs),
(551,950,l)
);
},
{
closed = 1;
nodes = (
(210,1165,o),
(293,1106,o),
(392,1106,cs),
(510,1106,o),
(589,1163,o),
(589,1284,cs),
(589,1389,o),
(509,1458,o),
(392,1458,cs),
(293,1458,o),
(210,1389,o),
(210,1284,cs)
);
}
);
width = 757;
},
{
layerId = "D9C3C1F3-1F14-4B11-A064-AC4F771295DD";
shapes = (
{
closed = 1;
nodes = (
(236,936,l),
(236,36,ls),
(236,-84,o),
(225,-166,o),
(82,-166,cs),
(71,-166,o),
(49,-165,o),
(38,-164,c),
(38,-372,l),
(73,-383,o),
(124,-388,o),
(163,-388,cs),
(405,-388,o),
(485,-223,o),
(485,-6,cs),
(485,936,l)
);
},
{
closed = 1;
nodes = (
(205,1182,o),
(272,1130,o),
(357,1130,cs),
(453,1130,o),
(516,1181,o),
(516,1275,cs),
(516,1360,o),
(452,1419,o),
(357,1419,cs),
(272,1419,o),
(205,1360,o),
(205,1275,cs)
);
}
);
width = 682;
},
{
layerId = "F307D2A1-D493-44D9-89F1-438E1120FCB6";
shapes = (
{
closed = 1;
nodes = (
(225,915,l),
(225,25,ls),
(225,-128,o),
(208,-211,o),
(104,-228,cs),
(89,-230,o),
(72,-231,o),
(52,-231,c),
(52,-364,l),
(76,-368,o),
(98,-367,o),
(117,-367,cs),
(305,-367,o),
(386,-258,o),
(386,-33,cs),
(386,915,l)
);
},
{
closed = 1;
nodes = (
(201,1208,o),
(243,1166,o),
(307,1166,cs),
(370,1166,o),
(410,1208,o),
(410,1261,cs),
(410,1317,o),
(370,1360,o),
(307,1360,cs),
(243,1360,o),
(201,1317,o),
(201,1261,cs)
);
}
);
width = 569;
},
{
layerId = "4443E9CB-80E0-4C5A-B41E-D517E8EFB53E";
shapes = (
{
closed = 1;
nodes = (
(219,904,l),
(219,19,ls),
(219,-151,o),
(199,-235,o),
(115,-260,c),
(98,-263,o),
(84,-265,o),
(59,-266,c),
(59,-360,l),
(78,-360,o),
(85,-356,o),
(93,-356,cs),
(254,-356,o),
(335,-277,o),
(335,-47,cs),
(335,904,l)
);
},
{
closed = 1;
nodes = (
(191,1214,o),
(228,1180,o),
(273,1180,cs),
(318,1180,o),
(354,1214,o),
(354,1257,cs),
(354,1298,o),
(318,1332,o),
(273,1332,cs),
(228,1332,o),
(191,1298,o),
(191,1257,cs)
);
}
);
width = 510;
}
);
unicode = 106;
},
{
glyphname = k;
layers = (
{
layerId = "5F7E89D3-0E96-4E8F-898E-E76CB8D7C13D";
shapes = (
{
closed = 1;
nodes = (
(546,373,l),
(850,0,l),
(1216,0,l),
(856,428,l),
(785,505,l),
(860,596,l),
(1168,950,l),
(832,950,l),
(542,590,l),
(459,552,l),
(459,1377,l),
(148,1377,l),
(148,0,l),
(459,0,l),
(459,373,l)
);
}
);
width = 1216;
},
{
layerId = "D9C3C1F3-1F14-4B11-A064-AC4F771295DD";
shapes = (
{
closed = 1;
nodes = (
(493,388,l),
(822,0,l),
(1123,0,l),
(758,422,l),
(680,500,l),
(754,582,l),
(1075,936,l),
(798,936,l),
(487,565,l),
(401,531,l),
(401,1377,l),
(150,1377,l),
(150,0,l),
(401,0,l),
(401,388,l)
);
}
);
width = 1139;
},
{
layerId = "F307D2A1-D493-44D9-89F1-438E1120FCB6";
shapes = (
{
closed = 1;
nodes = (
(413,411,l),
(780,0,l),
(983,0,l),
(611,413,l),
(523,493,l),
(595,561,l),
(936,915,l),
(747,915,l),
(404,528,l),
(314,499,l),
(314,1377,l),
(153,1377,l),
(153,0,l),
(314,0,l),
(314,411,l)
);
}
);
width = 1024;
},
{
layerId = "4443E9CB-80E0-4C5A-B41E-D517E8EFB53E";
shapes = (
{
closed = 1;
nodes = (
(372,423,l),
(758,0,l),
(911,0,l),
(535,408,l),
(442,489,l),
(513,550,l),
(864,904,l),
(720,904,l),
(361,508,l),
(269,483,l),
(269,1377,l),
(155,1377,l),
(155,0,l),
(269,0,l),
(269,423,l)
);
}
);
width = 964;
}
);
unicode = 107;
},
{
glyphname = l;
layers = (
{
layerId = "5F7E89D3-0E96-4E8F-898E-E76CB8D7C13D";
shapes = (
{
closed = 1;
nodes = (
(375,1377,l),
(68,1377,l),
(68,236,ls),
(68,82,o),
(151,-32,o),
(316,-32,cs),
(418,-32,o),
(479,-16,o),
(566,22,c),
(556,277,l),
(521,261,o),
(478,245,o),
(450,245,cs),
(375,245,o),
(375,295,o),
(375,385,cs)
);
}
);
width = 569;
},
{
layerId = "D9C3C1F3-1F14-4B11-A064-AC4F771295DD";
shapes = (
{
closed = 1;
nodes = (
(358,1377,l),
(110,1377,l),
(110,215,ls),
(110,63,o),
(192,-29,o),
(341,-29,cs),
(425,-29,o),
(492,-12,o),
(564,17,c),
(549,218,l),
(509,202,o),
(475,192,o),
(443,192,cs),
(374,192,o),
(358,236,o),
(358,328,cs)
);
}
);
width = 569;
},
{
layerId = "F307D2A1-D493-44D9-89F1-438E1120FCB6";
shapes = (
{
closed = 1;
nodes = (
(333,1377,l),
(173,1377,l),
(173,183,ls),
(173,34,o),
(254,-24,o),
(378,-24,cs),
(436,-24,o),
(512,-6,o),
(561,10,c),
(539,130,l),
(491,114,o),
(470,112,o),
(433,112,cs),
(372,112,o),
(333,147,o),
(333,242,cs)
);
}
);
width = 569;
},
{
layerId = "4443E9CB-80E0-4C5A-B41E-D517E8EFB53E";
shapes = (
{
closed = 1;
nodes = (
(320,1377,l),
(206,1377,l),
(206,167,ls),
(206,19,o),
(286,-21,o),
(398,-21,cs),
(442,-21,o),
(522,-3,o),
(559,6,c),
(534,85,l),
(482,69,o),
(467,71,o),
(428,71,cs),
(371,71,o),
(320,101,o),
(320,198,cs)
);
}
);
width = 569;
}
);
unicode = 108;
},
{
glyphname = m;
layers = (
{
layerId = "5F7E89D3-0E96-4E8F-898E-E76CB8D7C13D";
shapes = (
{
closed = 1;
nodes = (
(748,0,l),
(1058,0,l),
(1058,602,l),
(1066,608,o),
(1091,633,o),
(1123,658,c),
(1156,681,o),
(1197,705,o),
(1238,705,cs),
(1279,705,o),
(1308,683,o),
(1327,645,cs),
(1347,607,o),
(1355,550,o),
(1355,483,cs),
(1355,0,l),
(1663,0,l),
(1663,549,ls),
(1663,714,o),
(1630,822,o),
(1572,888,cs),
(1515,952,o),
(1437,976,o),
(1349,976,cs),
(1222,976,o),
(1100,911,o),
(1032,789,c),
(979,925,o),
(881,976,o),
(755,976,cs),
(671,976,o),
(606,953,o),
(556,921,cs),
(507,889,o),
(474,849,o),
(452,815,c),
(424,815,l),
(399,950,l),
(151,950,l),
(151,0,l),
(458,0,l),
(458,604,l),
(465,609,o),
(489,633,o),
(520,659,c),
(551,682,o),
(593,705,o),
(637,705,cs),
(693,705,o),
(721,661,o),
(735,611,c),
(748,560,o),
(748,504,o),
(748,479,cs)
);
}
);
width = 1781;
},
{
layerId = "D9C3C1F3-1F14-4B11-A064-AC4F771295DD";
shapes = (
{
closed = 1;
nodes = (
(738,0,l),
(988,0,l),
(988,597,l),
(999,628,o),
(1023,664,o),
(1056,693,cs),
(1089,721,o),
(1132,742,o),
(1183,742,cs),
(1240,742,o),
(1277,720,o),
(1300,680,cs),
(1323,639,o),
(1331,577,o),
(1331,500,cs),
(1331,0,l),
(1580,0,l),
(1580,540,ls),
(1580,704,o),
(1551,810,o),
(1497,875,cs),
(1443,939,o),
(1365,962,o),
(1268,962,cs),
(1139,962,o),
(1030,896,o),
(961,780,c),
(912,912,o),
(820,962,o),
(693,962,cs),
(618,962,o),
(559,943,o),
(511,914,cs),
(463,885,o),
(426,846,o),
(395,806,c),
(371,806,l),
(343,936,l),
(150,936,l),
(150,0,l),
(399,0,l),
(399,609,l),
(410,633,o),
(434,666,o),
(467,694,cs),
(500,721,o),
(544,742,o),
(595,742,cs),
(660,742,o),
(696,706,o),
(716,656,cs),
(735,606,o),
(738,543,o),
(738,488,cs)
);
}
);
width = 1706;
},
{
layerId = "F307D2A1-D493-44D9-89F1-438E1120FCB6";
shapes = (
{
closed = 1;
nodes = (
(723,0,l),
(883,0,l),
(883,589,l),
(899,658,o),
(921,711,o),
(955,746,cs),
(989,781,o),
(1034,798,o),
(1101,798,cs),
(1181,798,o),
(1230,776,o),
(1259,732,cs),
(1287,687,o),
(1295,618,o),
(1295,526,cs),
(1295,0,l),
(1455,0,l),
(1455,526,ls),
(1455,689,o),
(1433,792,o),
(1384,856,cs),
(1335,919,o),
(1257,941,o),
(1146,941,cs),
(1014,941,o),
(925,874,o),
(854,767,c),
(811,892,o),
(728,941,o),
(600,941,cs),
(539,941,o),
(489,928,o),
(443,904,cs),
(397,879,o),
(354,842,o),
(309,793,c),
(291,793,l),
(259,915,l),
(149,915,l),
(149,0,l),
(310,0,l),
(310,616,l),
(327,669,o),
(352,715,o),
(388,747,cs),
(424,779,o),
(471,798,o),
(532,798,cs),
(611,798,o),
(659,773,o),
(687,724,cs),
(715,675,o),
(723,601,o),
(723,502,cs)
);
}
);
width = 1593;
},
{
layerId = "4443E9CB-80E0-4C5A-B41E-D517E8EFB53E";
shapes = (
{
closed = 1;
nodes = (
(715,0,l),
(829,0,l),
(829,585,l),
(848,673,o),
(869,736,o),
(903,774,cs),
(938,812,o),
(984,827,o),
(1059,827,cs),
(1150,827,o),
(1205,805,o),
(1237,759,c),
(1268,712,o),
(1276,640,o),
(1276,539,cs),
(1276,0,l),
(1390,0,l),
(1390,519,ls),
(1390,681,o),
(1372,783,o),
(1325,846,cs),
(1279,909,o),
(1201,930,o),
(1083,930,cs),
(949,930,o),
(871,863,o),
(798,760,c),
(759,882,o),
(681,930,o),
(552,930,cs),
(498,930,o),
(453,920,o),
(408,899,c),
(363,876,o),
(317,840,o),
(265,786,c),
(250,786,l),
(216,904,l),
(148,904,l),
(148,0,l),
(264,0,l),
(264,620,l),
(284,688,o),
(310,741,o),
(347,775,cs),
(385,809,o),
(433,827,o),
(499,827,cs),
(585,827,o),
(639,808,o),
(672,759,c),
(705,711,o),
(715,631,o),
(715,509,cs)
);
}
);
width = 1534;
}
);
unicode = 109;
},
{
glyphname = n;
layers = (
{
layerId = "5F7E89D3-0E96-4E8F-898E-E76CB8D7C13D";
shapes = (
{
closed = 1;
nodes = (
(780,0,l),
(1089,0,l),
(1089,582,ls),
(1089,887,o),
(927,976,o),
(763,976,cs),
(657,976,o),
(515,890,o),
(466,808,c),
(433,808,l),
(409,950,l),
(157,950,l),
(157,0,l),
(464,0,l),
(464,575,l),
(486,611,o),
(574,705,o),
(653,705,cs),
(705,705,o),
(780,672,o),
(780,518,cs)
);
}
);
width = 1216;
},
{
layerId = "D9C3C1F3-1F14-4B11-A064-AC4F771295DD";
shapes = (
{
closed = 1;
nodes = (
(763,0,l),
(1013,0,l),
(1013,565,ls),
(1013,874,o),
(872,962,o),
(689,962,cs),
(564,962,o),
(456,885,o),
(399,802,c),
(373,802,l),
(346,936,l),
(150,936,l),
(150,0,l),
(399,0,l),
(399,586,l),
(426,653,o),
(499,742,o),
(603,742,cs),
(706,742,o),
(763,674,o),
(763,513,cs)
);
}
);
width = 1139;
},
{
layerId = "F307D2A1-D493-44D9-89F1-438E1120FCB6";
shapes = (
{
closed = 1;
nodes = (
(738,0,l),
(899,0,l),
(899,539,ls),
(899,854,o),
(789,941,o),
(578,941,cs),
(425,941,o),
(367,877,o),
(299,793,c),
(283,793,l),
(251,915,l),
(140,915,l),
(140,0,l),
(301,0,l),
(301,603,l),
(336,716,o),
(387,798,o),
(528,798,cs),
(708,798,o),
(738,677,o),
(738,506,cs)
);
}
);
width = 1024;
},
{
layerId = "4443E9CB-80E0-4C5A-B41E-D517E8EFB53E";
shapes = (
{
closed = 1;
nodes = (
(725,0,l),
(840,0,l),
(840,526,ls),
(840,844,o),
(746,930,o),
(520,930,cs),
(353,930,o),
(321,873,o),
(248,788,c),
(237,788,l),
(202,904,l),
(135,904,l),
(135,0,l),
(251,0,l),
(251,612,l),
(290,749,o),
(329,827,o),
(489,827,cs),
(709,827,o),
(725,679,o),
(725,502,cs)
);
}
);
width = 964;
}
);
unicode = 110;
},
{
glyphname = o;
layers = (
{
layerId = "5F7E89D3-0E96-4E8F-898E-E76CB8D7C13D";
shapes = (
{
closed = 1;
nodes = (
(52,172,o),
(230,-31,o),
(514,-31,cs),
(826,-31,o),
(972,201,o),
(972,474,cs),
(972,761,o),
(814,976,o),
(514,976,cs),
(214,976,o),
(52,757,o),
(52,474,cs)
);
},
{
closed = 1;
nodes = (
(366,651,o),
(436,718,o),
(512,718,cs),
(615,718,o),
(660,629,o),
(660,474,cs),
(660,353,o),
(624,227,o),
(512,227,cs),
(449,227,o),
(366,254,o),
(366,474,cs)
);
}
);
width = 1024;
},
{
guides = (
{
position = "{0, 935}";
}
);
layerId = "D9C3C1F3-1F14-4B11-A064-AC4F771295DD";
shapes = (
{
closed = 1;
nodes = (
(60,176,o),
(220,-28,o),
(513,-28,cs),
(813,-28,o),
(964,184,o),
(964,467,cs),
(964,750,o),
(813,962,o),
(513,962,cs),
(220,962,o),
(60,758,o),
(60,467,cs)
);
},
{
closed = 1;
nodes = (
(317,668,o),
(394,753,o),
(513,753,cs),
(653,753,o),
(709,632,o),
(709,467,cs),
(709,302,o),
(653,181,o),
(513,181,cs),
(394,181,o),
(317,266,o),
(317,467,cs)
);
}
);
width = 1024;
},
{
layerId = "F307D2A1-D493-44D9-89F1-438E1120FCB6";
shapes = (
{
closed = 1;
nodes = (
(72,182,o),
(205,-24,o),
(512,-24,cs),
(793,-24,o),
(952,158,o),
(952,457,cs),
(952,733,o),
(812,941,o),
(512,941,cs),
(229,941,o),
(72,760,o),
(72,457,cs)
);
},
{
closed = 1;
nodes = (
(243,693,o),
(331,805,o),
(514,805,cs),
(710,805,o),
(782,637,o),
(782,457,cs),
(782,225,o),
(697,112,o),
(514,112,cs),
(311,112,o),
(243,284,o),
(243,457,cs)
);
}
);
width = 1024;
},
{
layerId = "4443E9CB-80E0-4C5A-B41E-D517E8EFB53E";
shapes = (
{
closed = 1;
nodes = (
(78,185,o),
(197,-22,o),
(511,-22,cs),
(783,-22,o),
(946,145,o),
(946,452,cs),
(946,724,o),
(811,930,o),
(511,930,cs),
(234,930,o),
(78,761,o),
(78,452,cs)
);
},
{
closed = 1;
nodes = (
(205,706,o),
(298,832,o),
(515,832,cs),
(740,832,o),
(820,640,o),
(820,452,cs),
(820,185,o),
(720,76,o),
(515,76,cs),
(268,76,o),
(205,293,o),
(205,452,cs)
);
}
);
width = 1024;
}
);
unicode = 111;
},
{
glyphname = p;
layers = (
{
layerId = "5F7E89D3-0E96-4E8F-898E-E76CB8D7C13D";
shapes = (
{
closed = 1;
nodes = (
(157,950,l),
(157,-367,l),
(464,-367,l),
(464,10,l),
(518,-14,o),
(588,-32,o),
(659,-32,cs),
(967,-32,o),
(1115,182,o),
(1115,497,cs),
(1115,791,o),
(1021,976,o),
(757,976,cs),
(621,976,o),
(516,932,o),
(437,835,c),
(412,835,l),
(381,950,l)
);
},
{
closed = 1;
nodes = (
(798,718,o),
(800,586,o),
(800,476,cs),
(800,272,o),
(754,225,o),
(613,225,cs),
(551,225,o),
(497,246,o),
(464,274,c),
(464,600,l),
(499,684,o),
(557,718,o),
(652,718,cs)
);
}
);
width = 1216;
},
{
layerId = "D9C3C1F3-1F14-4B11-A064-AC4F771295DD";
shapes = (
{
closed = 1;
nodes = (
(150,936,l),
(150,-367,l),
(399,-367,l),
(399,14,l),
(459,-13,o),
(522,-29,o),
(602,-29,cs),
(901,-29,o),
(1049,177,o),
(1049,489,cs),
(1049,798,o),
(940,962,o),
(689,962,cs),
(556,962,o),
(453,915,o),
(380,820,c),
(359,820,l),
(328,936,l)
);
},
{
closed = 1;
nodes = (
(755,753,o),
(792,636,o),
(792,477,cs),
(792,257,o),
(731,180,o),
(571,180,cs),
(495,180,o),
(440,201,o),
(399,233,c),
(399,597,l),
(434,705,o),
(498,753,o),
(611,753,cs)
);
}
);
width = 1139;
},
{
layerId = "F307D2A1-D493-44D9-89F1-438E1120FCB6";
shapes = (
{
closed = 1;
nodes = (
(140,915,l),
(140,-367,l),
(301,-367,l),
(301,20,l),
(370,-12,o),
(423,-24,o),
(517,-24,cs),
(802,-24,o),
(950,169,o),
(950,477,cs),
(950,809,o),
(819,941,o),
(587,941,cs),
(459,941,o),
(359,890,o),
(295,798,c),
(280,798,l),
(248,915,l)
);
},
{
closed = 1;
nodes = (
(691,805,o),
(780,711,o),
(780,479,cs),
(780,234,o),
(697,112,o),
(508,112,cs),
(411,112,o),
(354,134,o),
(301,171,c),
(301,592,l),
(336,737,o),
(410,805,o),
(550,805,cs)
);
}
);
width = 1024;
},
{
layerId = "4443E9CB-80E0-4C5A-B41E-D517E8EFB53E";
shapes = (
{
closed = 1;
nodes = (
(135,904,l),
(135,-367,l),
(251,-367,l),
(251,23,l),
(324,-11,o),
(372,-21,o),
(473,-21,cs),
(751,-21,o),
(899,165,o),
(899,471,cs),
(899,815,o),
(756,930,o),
(535,930,cs),
(409,930,o),
(311,877,o),
(251,787,c),
(239,787,l),
(207,904,l)
);
},
{
closed = 1;
nodes = (
(658,832,o),
(774,750,o),
(774,480,cs),
(774,222,o),
(680,77,o),
(475,77,cs),
(368,77,o),
(310,99,o),
(251,139,c),
(251,589,l),
(286,753,o),
(365,832,o),
(518,832,cs)
);
}
);
width = 964;
}
);
unicode = 112;
},
{
glyphname = q;
layers = (
{
layerId = "5F7E89D3-0E96-4E8F-898E-E76CB8D7C13D";
shapes = (
{
closed = 1;
nodes = (
(1059,-367,l),
(1059,920,l),
(968,951,o),
(796,977,o),
(646,977,cs),
(275,977,o),
(97,791,o),
(97,446,cs),
(97,147,o),
(219,-29,o),
(478,-29,cs),
(603,-29,o),
(683,13,o),
(727,80,c),
(750,80,l),
(749,-367,l)
);
},
{
closed = 1;
nodes = (
(750,325,l),
(732,288,o),
(668,229,o),
(574,229,cs),
(457,229,o),
(411,301,o),
(411,460,cs),
(411,605,o),
(438,721,o),
(598,721,cs),
(655,721,o),
(714,718,o),
(750,701,c)
);
}
);
width = 1216;
},
{
layerId = "D9C3C1F3-1F14-4B11-A064-AC4F771295DD";
shapes = (
{
closed = 1;
nodes = (
(989,-367,l),
(989,903,l),
(909,932,o),
(751,960,o),
(605,960,cs),
(266,960,o),
(90,782,o),
(90,447,cs),
(90,142,o),
(214,-27,o),
(463,-27,cs),
(591,-27,o),
(670,16,o),
(718,88,c),
(739,88,l),
(739,-367,l)
);
},
{
closed = 1;
nodes = (
(739,323,l),
(715,245,o),
(647,182,o),
(535,182,cs),
(407,182,o),
(347,280,o),
(347,457,cs),
(347,637,o),
(408,752,o),
(565,752,cs),
(633,752,o),
(696,745,o),
(739,726,c)
);
}
);
width = 1139;
},
{
layerId = "F307D2A1-D493-44D9-89F1-438E1120FCB6";
shapes = (
{
closed = 1;
nodes = (
(884,-367,l),
(884,878,l),
(821,904,o),
(684,934,o),
(544,934,cs),
(253,934,o),
(80,768,o),
(80,449,cs),
(80,134,o),
(206,-24,o),
(441,-24,cs),
(573,-24,o),
(650,20,o),
(705,100,c),
(723,100,l),
(724,-367,l)
);
},
{
closed = 1;
nodes = (
(723,320,l),
(690,181,o),
(616,112,o),
(476,112,cs),
(332,112,o),
(251,249,o),
(251,453,cs),
(251,685,o),
(363,798,o),
(515,798,cs),
(600,798,o),
(669,786,o),
(723,763,c)
);
}
);
width = 1024;
},
{
layerId = "4443E9CB-80E0-4C5A-B41E-D517E8EFB53E";
shapes = (
{
closed = 1;
nodes = (
(830,-367,l),
(830,865,l),
(776,890,o),
(649,921,o),
(512,921,cs),
(246,921,o),
(75,761,o),
(75,450,cs),
(75,130,o),
(202,-22,o),
(430,-22,cs),
(564,-22,o),
(640,22,o),
(698,106,c),
(715,106,l),
(716,-367,l)
);
},
{
closed = 1;
nodes = (
(715,318,l),
(677,148,o),
(600,76,o),
(445,76,cs),
(293,76,o),
(202,233,o),
(202,451,cs),
(202,710,o),
(339,822,o),
(489,822,cs),
(583,822,o),
(655,808,o),
(715,783,c)
);
}
);
width = 964;
}
);
unicode = 113;
},
{
glyphname = r;
layers = (
{
layerId = "5F7E89D3-0E96-4E8F-898E-E76CB8D7C13D";
shapes = (
{
closed = 1;
nodes = (
(409,948,l),
(172,948,l),
(172,0,l),
(479,0,l),
(479,563,l),
(577,671,o),
(669,687,o),
(733,687,cs),
(771,687,o),
(854,656,o),
(904,611,c),
(1016,892,l),
(950,947,o),
(874,969,o),
(808,969,cs),
(699,969,o),
(596,955,o),
(474,803,c),
(446,803,l)
);
}
);
width = 1060;
},
{
layerId = "D9C3C1F3-1F14-4B11-A064-AC4F771295DD";
shapes = (
{
closed = 1;
nodes = (
(351,935,l),
(164,935,l),
(164,0,l),
(413,0,l),
(413,586,l),
(478,689,o),
(560,727,o),
(648,727,cs),
(684,727,o),
(749,704,o),
(794,672,c),
(874,902,l),
(817,941,o),
(753,956,o),
(700,956,cs),
(592,956,o),
(503,927,o),
(409,799,c),
(386,799,l)
);
}
);
width = 909;
},
{
layerId = "F307D2A1-D493-44D9-89F1-438E1120FCB6";
shapes = (
{
closed = 1;
nodes = (
(264,916,l),
(152,916,l),
(152,0,l),
(314,0,l),
(314,621,l),
(330,717,o),
(396,788,o),
(520,788,cs),
(553,788,o),
(592,776,o),
(629,764,c),
(661,917,l),
(617,933,o),
(571,937,o),
(538,937,cs),
(431,937,o),
(364,885,o),
(312,794,c),
(296,794,l)
);
}
);
width = 682;
},
{
layerId = "4443E9CB-80E0-4C5A-B41E-D517E8EFB53E";
shapes = (
{
closed = 1;
nodes = (
(219,903,l),
(146,903,l),
(146,0,l),
(263,0,l),
(263,636,l),
(254,728,o),
(311,817,o),
(454,817,cs),
(485,817,o),
(511,810,o),
(544,808,c),
(551,922,l),
(513,926,o),
(476,924,o),
(454,924,cs),
(348,924,o),
(292,860,o),
(262,788,c),
(250,788,l)
);
}
);
width = 565;
}
);
unicode = 114;
},
{
glyphname = s;
layers = (
{
layerId = "5F7E89D3-0E96-4E8F-898E-E76CB8D7C13D";
shapes = (
{
closed = 1;
nodes = (
(34,52,l),
(105,10,o),
(232,-29,o),
(369,-29,cs),
(685,-29,o),
(762,137,o),
(762,296,cs),
(762,469,o),
(652,546,o),
(537,581,c),
(474,597,o),
(366,597,o),
(366,685,cs),
(366,714,o),
(400,740,o),
(437,740,cs),
(507,740,o),
(583,720,o),
(660,692,c),
(722,917,l),
(599,967,o),
(527,976,o),
(445,976,cs),
(218,976,o),
(55,866,o),
(55,673,cs),
(55,466,o),
(211,380,o),
(311,353,c),
(367,340,o),
(453,325,o),
(453,248,cs),
(453,245,o),
(454,207,o),
(383,207,cs),
(275,207,o),
(206,230,o),
(126,293,c)
);
}
);
width = 797;
},
{
layerId = "D9C3C1F3-1F14-4B11-A064-AC4F771295DD";
shapes = (
{
closed = 1;
nodes = (
(50,51,l),
(122,11,o),
(239,-27,o),
(380,-27,cs),
(639,-27,o),
(747,104,o),
(747,284,cs),
(747,449,o),
(638,519,o),
(524,556,cs),
(439,583,o),
(326,592,o),
(326,682,cs),
(326,738,o),
(365,766,o),
(432,766,cs),
(516,766,o),
(589,739,o),
(661,711,c),
(713,900,l),
(610,943,o),
(536,962,o),
(428,962,cs),
(214,962,o),
(75,861,o),
(75,673,cs),
(75,491,o),
(207,415,o),
(309,383,cs),
(392,356,o),
(498,339,o),
(498,251,cs),
(498,204,o),
(470,169,o),
(386,169,cs),
(282,169,o),
(208,196,o),
(123,252,c)
);
}
);
width = 797;
},
{
layerId = "F307D2A1-D493-44D9-89F1-438E1120FCB6";
shapes = (
{
closed = 1;
nodes = (
(74,50,l),
(148,13,o),
(250,-24,o),
(397,-24,cs),
(570,-24,o),
(725,54,o),
(725,266,cs),
(725,419,o),
(617,478,o),
(505,519,cs),
(387,562,o),
(266,585,o),
(266,677,cs),
(266,774,o),
(312,805,o),
(425,805,cs),
(529,805,o),
(598,768,o),
(662,739,c),
(699,875,l),
(627,907,o),
(550,941,o),
(403,941,cs),
(208,941,o),
(105,854,o),
(105,673,cs),
(105,528,o),
(201,468,o),
(306,428,cs),
(430,380,o),
(565,360,o),
(565,256,cs),
(565,142,o),
(494,112,o),
(390,112,cs),
(293,112,o),
(211,145,o),
(119,190,c)
);
}
);
width = 797;
},
{
layerId = "4443E9CB-80E0-4C5A-B41E-D517E8EFB53E";
shapes = (
{
closed = 1;
nodes = (
(86,49,l),
(161,14,o),
(256,-22,o),
(406,-22,cs),
(534,-22,o),
(714,28,o),
(714,257,cs),
(714,404,o),
(606,456,o),
(495,499,cs),
(360,551,o),
(235,581,o),
(235,674,cs),
(235,793,o),
(284,826,o),
(421,826,cs),
(536,826,o),
(603,783,o),
(663,753,c),
(692,862,l),
(636,888,o),
(557,930,o),
(390,930,cs),
(205,930,o),
(120,850,o),
(120,673,cs),
(120,548,o),
(198,496,o),
(304,452,cs),
(450,392,o),
(600,371,o),
(600,259,cs),
(600,110,o),
(506,82,o),
(392,82,cs),
(299,82,o),
(213,118,o),
(117,158,c)
);
}
);
width = 797;
}
);
unicode = 115;
},
{
glyphname = t;
layers = (
{
layerId = "5F7E89D3-0E96-4E8F-898E-E76CB8D7C13D";
shapes = (
{
closed = 1;
nodes = (
(19,950,l),
(19,695,l),
(164,695,l),
(164,261,ls),
(164,60,o),
(302,-32,o),
(491,-32,cs),
(580,-32,o),
(717,18,o),
(741,39,c),
(693,287,l),
(680,273,o),
(625,245,o),
(568,245,cs),
(482,245,o),
(474,297,o),
(474,447,cs),
(474,695,l),
(709,695,l),
(709,950,l),
(474,950,l),
(474,1213,l),
(164,1165,l),
(164,950,l)
);
}
);
width = 757;
},
{
layerId = "D9C3C1F3-1F14-4B11-A064-AC4F771295DD";
shapes = (
{
closed = 1;
nodes = (
(20,936,l),
(20,728,l),
(161,728,l),
(161,260,ls),
(161,59,o),
(268,-29,o),
(447,-29,cs),
(539,-29,o),
(645,11,o),
(672,32,c),
(628,226,l),
(609,210,o),
(561,192,o),
(517,192,cs),
(429,192,o),
(411,244,o),
(411,393,cs),
(411,728,l),
(642,728,l),
(642,936,l),
(411,936,l),
(411,1213,l),
(161,1148,l),
(161,936,l)
);
}
);
width = 682;
},
{
layerId = "F307D2A1-D493-44D9-89F1-438E1120FCB6";
shapes = (
{
closed = 1;
nodes = (
(21,915,l),
(21,778,l),
(156,778,l),
(156,258,ls),
(156,58,o),
(217,-24,o),
(381,-24,cs),
(478,-24,o),
(537,0,o),
(568,21,c),
(531,135,l),
(503,116,o),
(465,112,o),
(440,112,cs),
(349,112,o),
(317,165,o),
(317,312,cs),
(317,778,l),
(542,778,l),
(542,915,l),
(317,915,l),
(317,1213,l),
(156,1122,l),
(156,915,l)
);
}
);
width = 569;
},
{
layerId = "4443E9CB-80E0-4C5A-B41E-D517E8EFB53E";
shapes = (
{
closed = 1;
nodes = (
(22,904,l),
(22,804,l),
(153,804,l),
(153,257,ls),
(153,57,o),
(190,-21,o),
(347,-21,cs),
(446,-21,o),
(481,-6,o),
(515,15,c),
(481,88,l),
(449,68,o),
(416,71,o),
(400,71,cs),
(308,71,o),
(269,124,o),
(269,270,cs),
(269,804,l),
(491,804,l),
(491,904,l),
(269,904,l),
(269,1213,l),
(153,1109,l),
(153,904,l)
);
}
);
width = 510;
}
);
unicode = 116;
},
{
glyphname = u;
layers = (
{
layerId = "5F7E89D3-0E96-4E8F-898E-E76CB8D7C13D";
shapes = (
{
closed = 1;
nodes = (
(451,948,l),
(142,948,l),
(142,356,ls),
(142,72,o),
(271,-29,o),
(475,-29,cs),
(590,-29,o),
(704,5,o),
(794,143,c),
(812,143,l),
(867,0,l),
(1101,0,l),
(1078,84,o),
(1065,194,o),
(1065,302,cs),
(1065,948,l),
(755,948,l),
(755,353,l),
(750,341,o),
(698,249,o),
(592,249,cs),
(474,249,o),
(451,380,o),
(451,421,cs)
);
}
);
width = 1216;
},
{
layerId = "D9C3C1F3-1F14-4B11-A064-AC4F771295DD";
shapes = (
{
closed = 1;
nodes = (
(386,935,l),
(136,935,l),
(136,363,ls),
(136,70,o),
(254,-27,o),
(449,-27,cs),
(582,-27,o),
(691,34,o),
(763,146,c),
(781,146,l),
(830,0,l),
(1014,0,l),
(994,81,o),
(984,185,o),
(984,285,cs),
(984,935,l),
(734,935,l),
(734,339,l),
(713,286,o),
(641,194,o),
(535,194,cs),
(406,194,o),
(386,315,o),
(386,417,cs)
);
}
);
width = 1139;
},
{
layerId = "F307D2A1-D493-44D9-89F1-438E1120FCB6";
shapes = (
{
closed = 1;
nodes = (
(288,916,l),
(127,916,l),
(127,375,ls),
(127,68,o),
(228,-24,o),
(410,-24,cs),
(570,-24,o),
(671,77,o),
(716,151,c),
(734,151,l),
(775,0,l),
(883,0,l),
(868,76,o),
(862,172,o),
(862,260,cs),
(862,916,l),
(702,916,l),
(702,319,l),
(657,205,o),
(555,112,o),
(450,112,cs),
(304,112,o),
(288,218,o),
(288,412,cs)
);
}
);
width = 1024;
},
{
layerId = "4443E9CB-80E0-4C5A-B41E-D517E8EFB53E";
shapes = (
{
closed = 1;
nodes = (
(238,903,l),
(122,903,l),
(122,380,ls),
(122,65,o),
(215,-22,o),
(389,-22,cs),
(564,-22,o),
(661,100,o),
(691,154,c),
(709,154,l),
(746,0,l),
(815,0,l),
(803,73,o),
(799,164,o),
(799,246,cs),
(799,903,l),
(686,903,l),
(686,307,l),
(628,162,o),
(511,70,o),
(406,70,cs),
(252,70,o),
(238,167,o),
(238,408,cs)
);
}
);
width = 964;
}
);
unicode = 117;
},
{
glyphname = v;
layers = (
{
layerId = "5F7E89D3-0E96-4E8F-898E-E76CB8D7C13D";
shapes = (
{
closed = 1;
nodes = (
(506,526,l),
(354,948,l),
(-6,948,l),
(429,0,l),
(620,0,l),
(1031,948,l),
(701,948,l),
(563,529,l),
(529,446,l)
);
}
);
width = 1024;
},
{
layerId = "D9C3C1F3-1F14-4B11-A064-AC4F771295DD";
shapes = (
{
closed = 1;
nodes = (
(491,470,l),
(306,935,l),
(15,935,l),
(450,-8,l),
(593,-8,l),
(1010,935,l),
(742,935,l),
(572,473,l),
(529,356,l)
);
}
);
width = 1024;
},
{
layerId = "F307D2A1-D493-44D9-89F1-438E1120FCB6";
shapes = (
{
closed = 1;
nodes = (
(468,390,l),
(234,916,l),
(46,916,l),
(482,-20,l),
(552,-20,l),
(979,916,l),
(804,916,l),
(586,393,l),
(529,221,l)
);
}
);
width = 1024;
},
{
layerId = "4443E9CB-80E0-4C5A-B41E-D517E8EFB53E";
shapes = (
{
closed = 1;
nodes = (
(456,347,l),
(197,903,l),
(62,903,l),
(498,-26,l),
(530,-26,l),
(963,903,l),
(836,903,l),
(593,350,l),
(529,151,l)
);
}
);
width = 1024;
}
);
unicode = 118;
},
{
glyphname = w;
layers = (
{
layerId = "5F7E89D3-0E96-4E8F-898E-E76CB8D7C13D";
shapes = (
{
closed = 1;
nodes = (
(874,948,l),
(649,948,l),
(515,558,l),
(476,429,l),
(477,429,l),
(441,556,l),
(343,948,l),
(8,948,l),
(298,0,l),
(558,0,l),
(712,409,l),
(743,482,l),
(774,413,l),
(941,0,l),
(1183,0,l),
(1466,948,l),
(1188,948,l),
(1077,523,l),
(1054,418,l),
(1050,418,l),
(1017,524,l),
(943,735,l)
);
}
);
width = 1479;
},
{
layerId = "D9C3C1F3-1F14-4B11-A064-AC4F771295DD";
shapes = (
{
closed = 1;
nodes = (
(852,935,l),
(668,935,l),
(507,495,l),
(465,351,l),
(459,351,l),
(424,493,l),
(291,935,l),
(20,935,l),
(329,-8,l),
(518,-8,l),
(705,473,l),
(744,576,l),
(781,475,l),
(980,-8,l),
(1160,-8,l),
(1459,935,l),
(1231,935,l),
(1100,472,l),
(1070,345,l),
(1063,345,l),
(1024,470,l),
(950,669,l)
);
}
);
width = 1479;
},
{
layerId = "F307D2A1-D493-44D9-89F1-438E1120FCB6";
shapes = (
{
closed = 1;
nodes = (
(819,916,l),
(696,916,l),
(495,401,l),
(448,235,l),
(432,235,l),
(398,399,l),
(213,916,l),
(38,916,l),
(375,-20,l),
(458,-20,l),
(694,572,l),
(746,720,l),
(792,572,l),
(1038,-20,l),
(1125,-20,l),
(1448,916,l),
(1295,916,l),
(1134,399,l),
(1094,237,l),
(1083,237,l),
(1035,393,l),
(960,570,l)
);
}
);
width = 1479;
},
{
layerId = "4443E9CB-80E0-4C5A-B41E-D517E8EFB53E";
shapes = (
{
closed = 1;
nodes = (
(802,903,l),
(710,903,l),
(468,351,l),
(418,173,l),
(397,173,l),
(364,349,l),
(173,903,l),
(47,903,l),
(399,-26,l),
(427,-26,l),
(694,620,l),
(753,791,l),
(804,619,l),
(1068,-26,l),
(1106,-26,l),
(1442,903,l),
(1328,903,l),
(1131,359,l),
(1086,179,l),
(1073,179,l),
(1021,351,l),
(965,516,l)
);
}
);
width = 1479;
}
);
unicode = 119;
},
{
glyphname = x;
layers = (
{
layerId = "5F7E89D3-0E96-4E8F-898E-E76CB8D7C13D";
shapes = (
{
closed = 1;
nodes = (
(286,486,l),
(21,0,l),
(356,0,l),
(418,166,l),
(504,318,l),
(584,162,l),
(643,0,l),
(1003,0,l),
(744,494,l),
(994,948,l),
(658,948,l),
(610,816,l),
(531,655,l),
(446,816,l),
(405,948,l),
(38,948,l)
);
}
);
width = 1024;
},
{
layerId = "D9C3C1F3-1F14-4B11-A064-AC4F771295DD";
shapes = (
{
closed = 1;
nodes = (
(333,479,l),
(24,0,l),
(299,0,l),
(425,211,l),
(505,343,l),
(581,209,l),
(705,0,l),
(1000,0,l),
(695,487,l),
(986,935,l),
(712,935,l),
(601,754,l),
(525,620,l),
(450,754,l),
(346,935,l),
(44,935,l)
);
}
);
width = 1024;
},
{
layerId = "F307D2A1-D493-44D9-89F1-438E1120FCB6";
shapes = (
{
closed = 1;
nodes = (
(403,469,l),
(29,0,l),
(214,0,l),
(436,279,l),
(507,381,l),
(577,279,l),
(798,0,l),
(996,0,l),
(621,476,l),
(974,916,l),
(793,916,l),
(587,662,l),
(516,567,l),
(456,662,l),
(258,916,l),
(53,916,l)
);
}
);
width = 1024;
},
{
layerId = "4443E9CB-80E0-4C5A-B41E-D517E8EFB53E";
shapes = (
{
closed = 1;
nodes = (
(439,464,l),
(32,0,l),
(170,0,l),
(442,314,l),
(508,401,l),
(575,315,l),
(846,0,l),
(994,0,l),
(583,470,l),
(968,903,l),
(835,903,l),
(580,613,l),
(511,539,l),
(459,613,l),
(213,903,l),
(58,903,l)
);
}
);
width = 1024;
}
);
unicode = 120;
},
{
glyphname = y;
layers = (
{
layerId = "5F7E89D3-0E96-4E8F-898E-E76CB8D7C13D";
shapes = (
{
closed = 1;
nodes = (
(534,527,l),
(387,948,l),
(13,948,l),
(429,23,l),
(402,-81,o),
(370,-119,o),
(253,-122,c),
(250,-122,o),
(194,-124,o),
(127,-91,c),
(69,-319,l),
(156,-372,o),
(246,-385,o),
(289,-385,cs),
(578,-385,o),
(647,-138,o),
(725,89,c),
(1019,948,l),
(701,948,l),
(582,527,l),
(561,420,l),
(562,420,l)
);
}
);
width = 1024;
},
{
layerId = "D9C3C1F3-1F14-4B11-A064-AC4F771295DD";
shapes = (
{
closed = 1;
nodes = (
(515,451,l),
(326,935,l),
(25,935,l),
(447,12,l),
(418,-85,o),
(374,-173,o),
(259,-173,cs),
(239,-173,o),
(185,-167,o),
(137,-140,c),
(78,-320,l),
(142,-367,o),
(225,-388,o),
(286,-388,cs),
(545,-388,o),
(628,-113,o),
(700,88,cs),
(1004,935,l),
(748,935,l),
(592,451,l),
(561,321,l),
(556,321,l)
);
}
);
width = 1024;
},
{
layerId = "F307D2A1-D493-44D9-89F1-438E1120FCB6";
shapes = (
{
closed = 1;
nodes = (
(487,337,l),
(234,916,l),
(43,916,l),
(474,-5,l),
(442,-91,o),
(380,-254,o),
(268,-250,c),
(223,-250,o),
(171,-232,o),
(152,-213,c),
(92,-321,l),
(121,-360,o),
(193,-393,o),
(281,-393,cs),
(496,-393,o),
(600,-76,o),
(662,86,cs),
(981,916,l),
(818,916,l),
(607,337,l),
(561,173,l),
(547,173,l)
);
}
);
width = 1024;
},
{
layerId = "4443E9CB-80E0-4C5A-B41E-D517E8EFB53E";
shapes = (
{
closed = 1;
nodes = (
(473,278,l),
(187,903,l),
(52,903,l),
(488,-14,l),
(454,-94,o),
(383,-296,o),
(273,-290,c),
(215,-290,o),
(164,-266,o),
(160,-251,c),
(99,-322,l),
(110,-356,o),
(177,-396,o),
(278,-396,cs),
(470,-396,o),
(586,-56,o),
(642,85,cs),
(969,903,l),
(854,903,l),
(615,278,l),
(561,97,l),
(542,97,l)
);
}
);
width = 1024;
}
);
unicode = 121;
},
{
glyphname = z;
layers = (
{
layerId = "5F7E89D3-0E96-4E8F-898E-E76CB8D7C13D";
shapes = (
{
closed = 1;
nodes = (
(65,263,l),
(65,0,l),
(845,0,l),
(845,258,l),
(416,258,l),
(543,359,l),
(845,687,l),
(845,948,l),
(107,948,l),
(107,695,l),
(506,695,l),
(383,585,l)
);
}
);
width = 909;
},
{
layerId = "D9C3C1F3-1F14-4B11-A064-AC4F771295DD";
shapes = (
{
closed = 1;
nodes = (
(69,213,l),
(69,0,l),
(841,0,l),
(841,209,l),
(345,209,l),
(461,304,l),
(841,722,l),
(841,935,l),
(94,935,l),
(94,727,l),
(571,727,l),
(456,626,l)
);
}
);
width = 909;
},
{
layerId = "F307D2A1-D493-44D9-89F1-438E1120FCB6";
shapes = (
{
closed = 1;
nodes = (
(75,138,l),
(75,0,l),
(835,0,l),
(835,136,l),
(238,136,l),
(338,221,l),
(835,778,l),
(835,916,l),
(75,916,l),
(75,779,l),
(668,779,l),
(566,689,l)
);
}
);
width = 909;
},
{
layerId = "4443E9CB-80E0-4C5A-B41E-D517E8EFB53E";
shapes = (
{
closed = 1;
nodes = (
(78,99,l),
(78,0,l),
(832,0,l),
(832,98,l),
(182,98,l),
(274,178,l),
(832,805,l),
(832,903,l),
(65,903,l),
(65,804,l),
(718,804,l),
(623,720,l)
);
}
);
width = 909;
}
);
unicode = 122;
},
{
glyphname = braceleft;
layers = (
{
layerId = "5F7E89D3-0E96-4E8F-898E-E76CB8D7C13D";
shapes = (
{
closed = 1;
nodes = (
(186,-185,ls),
(186,-349,o),
(267,-445,o),
(423,-445,cs),
(712,-445,l),
(712,-170,l),
(610,-170,ls),
(535,-170,o),
(502,-134,o),
(502,-53,cs),
(502,258,ls),
(502,350,o),
(452,436,o),
(354,448,c),
(354,470,l),
(449,484,o),
(506,560,o),
(502,652,c),
(502,966,ls),
(502,1051,o),
(533,1083,o),
(608,1083,cs),
(712,1083,l),
(712,1358,l),
(423,1358,ls),
(260,1358,o),
(189,1256,o),
(186,1097,c),
(186,741,ls),
(186,628,o),
(126,577,o),
(18,577,c),
(18,334,l),
(146,334,o),
(189,273,o),
(186,161,c)
);
}
);
width = 690;
},
{
layerId = "D9C3C1F3-1F14-4B11-A064-AC4F771295DD";
shapes = (
{
closed = 1;
nodes = (
(262,-205,ls),
(262,-358,o),
(341,-445,o),
(486,-445,cs),
(737,-445,l),
(737,-218,l),
(633,-218,ls),
(556,-218,o),
(523,-181,o),
(523,-100,cs),
(523,259,ls),
(523,349,o),
(470,437,o),
(375,449,c),
(375,469,l),
(470,484,o),
(525,557,o),
(523,651,c),
(523,1013,ls),
(523,1096,o),
(556,1131,o),
(631,1131,cs),
(737,1131,l),
(737,1358,l),
(486,1358,ls),
(333,1358,o),
(264,1261,o),
(262,1116,c),
(262,722,ls),
(262,609,o),
(202,558,o),
(94,558,c),
(94,353,l),
(214,353,o),
(264,300,o),
(262,180,c)
);
}
);
width = 807;
},
{
layerId = "F307D2A1-D493-44D9-89F1-438E1120FCB6";
shapes = (
{
closed = 1;
nodes = (
(376,-235,ls),
(376,-372,o),
(452,-445,o),
(580,-445,cs),
(774,-445,l),
(774,-290,l),
(667,-290,ls),
(587,-290,o),
(554,-251,o),
(554,-170,cs),
(554,261,ls),
(554,347,o),
(497,438,o),
(406,451,c),
(406,467,l),
(501,484,o),
(554,553,o),
(554,649,cs),
(554,1083,ls),
(554,1163,o),
(591,1203,o),
(665,1203,cs),
(774,1203,l),
(774,1358,l),
(580,1358,ls),
(443,1358,o),
(376,1268,o),
(376,1144,cs),
(376,693,ls),
(376,580,o),
(316,529,o),
(208,529,c),
(208,381,l),
(316,381,o),
(376,341,o),
(376,209,cs)
);
}
);
width = 983;
},
{
layerId = "4443E9CB-80E0-4C5A-B41E-D517E8EFB53E";
shapes = (
{
closed = 1;
nodes = (
(435,-250,ls),
(435,-379,o),
(510,-445,o),
(628,-445,cs),
(794,-445,l),
(794,-327,l),
(684,-327,ls),
(603,-327,o),
(570,-287,o),
(570,-206,cs),
(570,262,ls),
(570,346,o),
(511,439,o),
(422,452,c),
(422,466,l),
(517,484,o),
(569,551,o),
(570,648,c),
(570,1119,ls),
(570,1198,o),
(610,1240,o),
(682,1240,cs),
(794,1240,l),
(794,1358,l),
(628,1358,ls),
(500,1358,o),
(434,1272,o),
(435,1158,c),
(435,678,ls),
(435,565,o),
(375,514,o),
(267,514,c),
(267,395,l),
(368,395,o),
(434,363,o),
(435,224,c)
);
}
);
width = 1075;
}
);
unicode = 123;
},
{
glyphname = bar;
layers = (
{
layerId = "5F7E89D3-0E96-4E8F-898E-E76CB8D7C13D";
shapes = (
{
closed = 1;
nodes = (
(104,1356,l),
(104,-125,l),
(375,-125,l),
(375,1356,l)
);
}
);
width = 478;
},
{
layerId = "D9C3C1F3-1F14-4B11-A064-AC4F771295DD";
shapes = (
{
closed = 1;
nodes = (
(113,1356,l),
(113,-252,l),
(338,-252,l),
(338,1356,l)
);
}
);
width = 451;
},
{
layerId = "F307D2A1-D493-44D9-89F1-438E1120FCB6";
shapes = (
{
closed = 1;
nodes = (
(127,1356,l),
(127,-442,l),
(282,-442,l),
(282,1356,l)
);
}
);
width = 410;
},
{
layerId = "4443E9CB-80E0-4C5A-B41E-D517E8EFB53E";
shapes = (
{
closed = 1;
nodes = (
(134,1356,l),
(134,-541,l),
(253,-541,l),
(253,1356,l)
);
}
);
width = 388;
}
);
unicode = 124;
},
{
glyphname = braceright;
layers = (
{
layerId = "5F7E89D3-0E96-4E8F-898E-E76CB8D7C13D";
shapes = (
{
closed = 1;
nodes = (
(506,1096,ls),
(506,1256,o),
(428,1358,o),
(268,1358,cs),
(-22,1358,l),
(-22,1083,l),
(80,1083,ls),
(164,1083,o),
(192,1046,o),
(192,966,cs),
(192,653,ls),
(192,564,o),
(248,479,o),
(339,463,c),
(339,442,l),
(239,427,o),
(195,357,o),
(192,259,c),
(192,-53,ls),
(192,-140,o),
(158,-170,o),
(82,-170,cs),
(-22,-170,l),
(-22,-445,l),
(260,-445,ls),
(422,-445,o),
(510,-336,o),
(506,-180,c),
(506,171,ls),
(506,282,o),
(565,336,o),
(672,336,c),
(672,580,l),
(545,580,o),
(510,643,o),
(506,751,c)
);
}
);
width = 690;
},
{
layerId = "D9C3C1F3-1F14-4B11-A064-AC4F771295DD";
shapes = (
{
closed = 1;
nodes = (
(545,1116,ls),
(545,1267,o),
(467,1358,o),
(320,1358,cs),
(70,1358,l),
(70,1131,l),
(173,1131,ls),
(253,1131,o),
(285,1093,o),
(285,1013,cs),
(285,652,ls),
(285,563,o),
(340,477,o),
(432,462,c),
(432,443,l),
(334,428,o),
(287,357,o),
(285,261,c),
(285,-100,ls),
(285,-184,o),
(250,-218,o),
(175,-218,cs),
(70,-218,l),
(70,-445,l),
(314,-445,ls),
(464,-445,o),
(547,-347,o),
(545,-201,c),
(545,190,ls),
(545,303,o),
(605,355,o),
(713,355,c),
(713,560,l),
(593,560,o),
(547,614,o),
(545,732,c)
);
}
);
width = 807;
},
{
layerId = "F307D2A1-D493-44D9-89F1-438E1120FCB6";
shapes = (
{
closed = 1;
nodes = (
(603,1146,ls),
(603,1283,o),
(526,1358,o),
(398,1358,cs),
(208,1358,l),
(208,1203,l),
(312,1203,ls),
(387,1203,o),
(425,1163,o),
(425,1083,cs),
(425,651,ls),
(425,562,o),
(478,474,o),
(572,461,c),
(572,445,l),
(477,430,o),
(425,357,o),
(425,264,cs),
(425,-170,ls),
(425,-250,o),
(388,-290,o),
(314,-290,cs),
(208,-290,l),
(208,-445,l),
(395,-445,ls),
(527,-445,o),
(603,-364,o),
(603,-233,cs),
(603,218,ls),
(603,334,o),
(665,384,o),
(774,384,c),
(774,530,l),
(665,530,o),
(603,571,o),
(603,703,cs)
);
}
);
width = 983;
},
{
layerId = "4443E9CB-80E0-4C5A-B41E-D517E8EFB53E";
shapes = (
{
closed = 1;
nodes = (
(633,1161,ls),
(633,1291,o),
(557,1358,o),
(438,1358,cs),
(279,1358,l),
(279,1240,l),
(384,1240,ls),
(456,1240,o),
(497,1199,o),
(497,1119,cs),
(497,650,ls),
(497,561,o),
(549,472,o),
(644,460,c),
(644,446,l),
(551,431,o),
(496,357,o),
(497,266,c),
(497,-206,ls),
(497,-284,o),
(459,-327,o),
(386,-327,cs),
(279,-327,l),
(279,-445,l),
(437,-445,ls),
(560,-445,o),
(632,-373,o),
(633,-249,c),
(633,232,ls),
(633,350,o),
(696,399,o),
(806,399,c),
(806,515,l),
(702,515,o),
(632,548,o),
(633,688,c)
);
}
);
width = 1075;
}
);
unicode = 125;
},
{
glyphname = asciitilde;
layers = (
{
layerId = "5F7E89D3-0E96-4E8F-898E-E76CB8D7C13D";
shapes = (
{
closed = 1;
nodes = (
(114,506,l),
(203,587,o),
(285,609,o),
(357,609,cs),
(430,609,o),
(495,582,o),
(564,550,cs),
(630,519,o),
(700,490,o),
(777,490,cs),
(851,490,o),
(934,512,o),
(1031,587,c),
(914,844,l),
(859,807,o),
(808,792,o),
(758,792,cs),
(689,792,o),
(628,820,o),
(564,846,cs),
(497,872,o),
(426,898,o),
(345,898,cs),
(252,898,o),
(145,858,o),
(8,755,c)
);
}
);
width = 1036;
},
{
layerId = "D9C3C1F3-1F14-4B11-A064-AC4F771295DD";
shapes = (
{
closed = 1;
nodes = (
(129,532,l),
(221,608,o),
(299,632,o),
(368,632,cs),
(439,632,o),
(502,605,o),
(567,575,cs),
(631,545,o),
(697,517,o),
(774,517,cs),
(846,517,o),
(927,540,o),
(1028,612,c),
(929,821,l),
(869,778,o),
(817,763,o),
(766,763,cs),
(699,763,o),
(639,790,o),
(575,816,cs),
(510,842,o),
(441,868,o),
(361,868,cs),
(272,868,o),
(170,833,o),
(38,736,c)
);
}
);
width = 1065;
},
{
layerId = "F307D2A1-D493-44D9-89F1-438E1120FCB6";
shapes = (
{
closed = 1;
nodes = (
(152,571,l),
(248,640,o),
(320,667,o),
(385,667,cs),
(453,667,o),
(512,639,o),
(572,612,cs),
(632,584,o),
(693,558,o),
(769,558,cs),
(838,558,o),
(917,582,o),
(1024,649,c),
(952,786,l),
(884,735,o),
(830,719,o),
(778,719,cs),
(714,719,o),
(655,745,o),
(592,771,cs),
(529,797,o),
(464,823,o),
(385,823,cs),
(302,823,o),
(207,795,o),
(83,707,c)
);
}
);
width = 1108;
},
{
layerId = "4443E9CB-80E0-4C5A-B41E-D517E8EFB53E";
shapes = (
{
closed = 1;
nodes = (
(164,592,l),
(262,656,o),
(331,686,o),
(394,686,cs),
(460,686,o),
(517,656,o),
(575,632,c),
(633,605,o),
(691,580,o),
(766,580,cs),
(834,580,o),
(912,604,o),
(1022,669,c),
(964,767,l),
(892,712,o),
(837,696,o),
(784,696,cs),
(722,696,o),
(663,721,o),
(601,747,cs),
(539,773,o),
(476,799,o),
(397,799,cs),
(317,799,o),
(227,775,o),
(107,692,c)
);
}
);
width = 1131;
}
);
unicode = 126;
},
{
glyphname = exclamdown;
layers = (
{
layerId = "5F7E89D3-0E96-4E8F-898E-E76CB8D7C13D";
shapes = (
{
closed = 1;
nodes = (
(541,-388,l),
(541,225,l),
(472,522,l),
(262,522,l),
(198,225,l),
(198,-388,l)
);
},
{
closed = 1;
nodes = (
(184,746,o),
(203,704,o),
(239,672,cs),
(275,639,o),
(320,624,o),
(378,624,cs),
(438,624,o),
(488,639,o),
(523,672,c),
(560,704,o),
(577,746,o),
(577,798,cs),
(577,907,o),
(500,971,o),
(378,971,cs),
(264,971,o),
(184,907,o),
(184,798,cs)
);
}
);
width = 682;
},
{
layerId = "D9C3C1F3-1F14-4B11-A064-AC4F771295DD";
shapes = (
{
closed = 1;
nodes = (
(477,-388,l),
(477,246,l),
(420,558,l),
(248,558,l),
(194,246,l),
(194,-388,l)
);
},
{
closed = 1;
nodes = (
(171,792,o),
(187,755,o),
(218,727,cs),
(249,698,o),
(289,684,o),
(339,684,cs),
(391,684,o),
(433,698,o),
(464,727,cs),
(495,755,o),
(510,792,o),
(510,837,cs),
(510,933,o),
(443,990,o),
(339,990,cs),
(239,990,o),
(171,933,o),
(171,837,cs)
);
}
);
width = 682;
},
{
layerId = "F307D2A1-D493-44D9-89F1-438E1120FCB6";
shapes = (
{
closed = 1;
nodes = (
(381,-388,l),
(381,277,l),
(342,612,l),
(227,612,l),
(188,277,l),
(188,-388,l)
);
},
{
closed = 1;
nodes = (
(151,861,o),
(163,832,o),
(187,809,cs),
(210,786,o),
(242,774,o),
(281,774,cs),
(320,774,o),
(351,786,o),
(375,809,cs),
(398,832,o),
(410,861,o),
(410,896,cs),
(410,972,o),
(358,1018,o),
(281,1018,cs),
(202,1018,o),
(151,972,o),
(151,896,cs)
);
}
);
width = 682;
},
{
layerId = "4443E9CB-80E0-4C5A-B41E-D517E8EFB53E";
shapes = (
{
closed = 1;
nodes = (
(332,-388,l),
(332,293,l),
(302,640,l),
(216,640,l),
(185,293,l),
(185,-388,l)
);
},
{
closed = 1;
nodes = (
(141,897,o),
(151,872,o),
(171,851,cs),
(189,831,o),
(217,820,o),
(251,820,cs),
(283,820,o),
(309,831,o),
(329,851,c),
(348,872,o),
(359,897,o),
(359,927,cs),
(359,993,o),
(314,1032,o),
(251,1032,cs),
(182,1032,o),
(141,993,o),
(141,927,cs)
);
}
);
width = 682;
}
);
unicode = 161;
},
{
glyphname = cent;
layers = (
{
layerId = "5F7E89D3-0E96-4E8F-898E-E76CB8D7C13D";
shapes = (
{
closed = 1;
nodes = (
(857,295,l),
(836,285,o),
(809,277,o),
(762,262,c),
(762,613,l),
(796,608,o),
(820,594,o),
(847,590,c),
(916,843,l),
(878,863,o),
(831,879,o),
(768,889,c),
(768,1050,l),
(473,1050,l),
(473,891,l),
(242,851,o),
(122,695,o),
(122,438,cs),
(122,190,o),
(214,26,o),
(473,-19,c),
(473,-173,l),
(768,-173,l),
(768,-5,l),
(836,8,o),
(891,29,o),
(927,56,c)
);
},
{
closed = 1;
nodes = (
(532,275,l),
(461,305,o),
(435,359,o),
(431,438,c),
(431,539,o),
(464,583,o),
(532,609,c)
);
}
);
width = 1024;
},
{
layerId = "D9C3C1F3-1F14-4B11-A064-AC4F771295DD";
shapes = (
{
closed = 1;
nodes = (
(850,247,l),
(815,228,o),
(771,212,o),
(711,201,c),
(711,688,l),
(756,683,o),
(797,669,o),
(836,656,c),
(896,860,l),
(849,883,o),
(793,900,o),
(720,908,c),
(720,1069,l),
(488,1069,l),
(488,908,l),
(252,873,o),
(127,712,o),
(127,445,cs),
(127,189,o),
(225,15,o),
(488,-20,c),
(488,-178,l),
(720,-178,l),
(720,-10,l),
(796,3,o),
(863,26,o),
(910,57,c)
);
},
{
closed = 1;
nodes = (
(531,211,l),
(419,243,o),
(378,336,o),
(376,445,c),
(376,588,o),
(427,660,o),
(531,684,c)
);
}
);
width = 1024;
},
{
layerId = "F307D2A1-D493-44D9-89F1-438E1120FCB6";
shapes = (
{
closed = 1;
nodes = (
(839,175,l),
(784,143,o),
(714,114,o),
(635,110,c),
(635,800,l),
(696,795,o),
(763,782,o),
(819,755,c),
(866,886,l),
(806,913,o),
(736,931,o),
(648,936,c),
(648,1098,l),
(510,1098,l),
(510,934,l),
(267,906,o),
(135,738,o),
(135,455,cs),
(135,187,o),
(242,-1,o),
(510,-22,c),
(510,-186,l),
(648,-186,l),
(648,-17,l),
(736,-5,o),
(821,22,o),
(884,59,c)
);
},
{
closed = 1;
nodes = (
(529,115,l),
(356,150,o),
(293,302,o),
(293,455,cs),
(293,662,o),
(372,775,o),
(529,796,c)
);
}
);
width = 1024;
},
{
layerId = "4443E9CB-80E0-4C5A-B41E-D517E8EFB53E";
shapes = (
{
closed = 1;
nodes = (
(833,138,l),
(768,99,o),
(684,64,o),
(596,63,c),
(596,858,l),
(665,853,o),
(746,841,o),
(810,806,c),
(851,899,l),
(783,928,o),
(706,947,o),
(611,950,c),
(611,1113,l),
(521,1113,l),
(521,947,l),
(275,923,o),
(139,751,o),
(139,460,cs),
(139,186,o),
(251,-9,o),
(521,-23,c),
(521,-190,l),
(611,-190,l),
(611,-21,l),
(705,-9,o),
(799,20,o),
(871,60,c)
);
},
{
closed = 1;
nodes = (
(528,66,l),
(323,102,o),
(249,285,o),
(250,460,c),
(250,700,o),
(343,835,o),
(528,854,c)
);
}
);
width = 1024;
}
);
unicode = 162;
},
{
glyphname = sterling;
layers = (
{
layerId = "5F7E89D3-0E96-4E8F-898E-E76CB8D7C13D";
shapes = (
{
closed = 1;
nodes = (
(53,782,l),
(53,518,l),
(323,518,l),
(321,504,o),
(314,497,o),
(314,503,c),
(314,329,o),
(191,296,o),
(69,291,c),
(69,0,l),
(957,0,l),
(957,291,l),
(609,291,l),
(474,258,l),
(474,266,l),
(554,317,l),
(620,375,o),
(651,461,o),
(651,551,c),
(651,536,o),
(656,525,o),
(666,518,c),
(819,518,l),
(819,782,l),
(572,782,l),
(546,797,o),
(493,874,o),
(493,938,cs),
(493,1023,o),
(518,1069,o),
(632,1069,cs),
(680,1069,o),
(741,1031,o),
(822,984,c),
(931,1284,l),
(845,1330,o),
(754,1383,o),
(588,1383,cs),
(329,1383,o),
(163,1227,o),
(163,1008,cs),
(163,905,o),
(201,821,o),
(226,782,c)
);
}
);
width = 1024;
},
{
layerId = "D9C3C1F3-1F14-4B11-A064-AC4F771295DD";
shapes = (
{
closed = 1;
nodes = (
(50,767,l),
(50,547,l),
(300,547,l),
(307,518,o),
(310,490,o),
(310,465,cs),
(310,311,o),
(204,245,o),
(60,240,c),
(60,0,l),
(974,0,l),
(974,240,l),
(550,240,l),
(420,209,l),
(420,218,l),
(499,273,l),
(559,330,o),
(589,416,o),
(589,501,cs),
(589,517,o),
(587,532,o),
(587,547,c),
(782,547,l),
(782,767,l),
(501,767,l),
(469,810,o),
(424,884,o),
(424,961,cs),
(424,1072,o),
(486,1127,o),
(609,1127,cs),
(701,1127,o),
(782,1090,o),
(854,1049,c),
(943,1295,l),
(858,1337,o),
(751,1382,o),
(582,1382,cs),
(318,1382,o),
(148,1232,o),
(148,1001,cs),
(148,897,o),
(182,818,o),
(210,767,c)
);
}
);
width = 1024;
},
{
layerId = "F307D2A1-D493-44D9-89F1-438E1120FCB6";
shapes = (
{
closed = 1;
nodes = (
(46,745,l),
(46,591,l),
(266,591,l),
(286,539,o),
(304,480,o),
(304,408,cs),
(304,284,o),
(224,168,o),
(46,163,c),
(46,0,l),
(1000,0,l),
(1000,163,l),
(462,163,l),
(339,135,l),
(339,146,l),
(416,207,l),
(468,262,o),
(496,349,o),
(496,426,cs),
(496,489,o),
(484,542,o),
(469,591,c),
(726,591,l),
(726,745,l),
(395,745,l),
(353,830,o),
(320,899,o),
(320,996,cs),
(320,1145,o),
(438,1214,o),
(575,1214,cs),
(732,1214,o),
(843,1178,o),
(902,1146,c),
(961,1311,l),
(877,1347,o),
(746,1381,o),
(573,1381,cs),
(302,1381,o),
(126,1240,o),
(126,990,cs),
(126,885,o),
(153,813,o),
(186,745,c)
);
}
);
width = 1024;
},
{
layerId = "4443E9CB-80E0-4C5A-B41E-D517E8EFB53E";
shapes = (
{
closed = 1;
nodes = (
(44,734,l),
(44,614,l),
(249,614,l),
(275,550,o),
(301,475,o),
(301,378,cs),
(301,270,o),
(234,128,o),
(39,123,c),
(39,0,l),
(1013,0,l),
(1013,123,l),
(417,123,l),
(297,97,l),
(297,109,l),
(373,173,l),
(421,227,o),
(448,314,o),
(448,387,cs),
(448,475,o),
(431,547,o),
(408,614,c),
(697,614,l),
(697,734,l),
(341,734,l),
(293,840,o),
(267,907,o),
(267,1015,cs),
(267,1183,o),
(413,1259,o),
(558,1259,cs),
(748,1259,o),
(875,1223,o),
(927,1196,c),
(970,1319,l),
(887,1352,o),
(743,1380,o),
(568,1380,cs),
(294,1380,o),
(115,1244,o),
(115,984,cs),
(115,879,o),
(138,810,o),
(174,734,c)
);
}
);
width = 1024;
}
);
unicode = 163;
},
{
glyphname = currency;
layers = (
{
layerId = "5F7E89D3-0E96-4E8F-898E-E76CB8D7C13D";
shapes = (
{
closed = 1;
nodes = (
(186,1193,l),
(-4,999,l),
(95,893,l),
(175,863,l),
(146,803,o),
(126,742,o),
(126,669,cs),
(126,586,o),
(147,528,o),
(168,481,c),
(95,449,l),
(9,356,l),
(199,164,l),
(286,254,l),
(317,326,l),
(368,290,o),
(432,272,o),
(504,272,cs),
(580,272,o),
(654,289,o),
(701,326,c),
(730,254,l),
(818,170,l),
(1007,363,l),
(920,449,l),
(845,474,l),
(876,518,o),
(890,588,o),
(890,669,cs),
(890,741,o),
(880,813,o),
(845,870,c),
(920,889,l),
(1030,999,l),
(842,1196,l),
(730,1090,l),
(696,1017,l),
(648,1051,o),
(578,1071,o),
(504,1071,cs),
(428,1071,o),
(370,1052,o),
(317,1017,c),
(286,1090,l)
);
},
{
closed = 1;
nodes = (
(392,735,o),
(432,809,o),
(508,810,c),
(580,810,o),
(621,748,o),
(623,669,c),
(623,592,o),
(586,531,o),
(508,533,c),
(438,533,o),
(392,594,o),
(392,669,cs)
);
}
);
width = 1024;
},
{
layerId = "D9C3C1F3-1F14-4B11-A064-AC4F771295DD";
shapes = (
{
closed = 1;
nodes = (
(159,1182,l),
(3,1022,l),
(122,898,l),
(196,865,l),
(165,805,o),
(144,742,o),
(144,669,cs),
(144,589,o),
(164,528,o),
(192,477,c),
(122,442,l),
(11,326,l),
(167,167,l),
(279,281,l),
(314,351,l),
(367,313,o),
(432,294,o),
(507,294,cs),
(583,294,o),
(657,314,o),
(706,351,c),
(739,281,l),
(853,171,l),
(1008,330,l),
(896,442,l),
(824,473,l),
(859,520,o),
(875,589,o),
(875,669,cs),
(875,742,o),
(861,812,o),
(824,868,c),
(896,896,l),
(1022,1022,l),
(867,1184,l),
(739,1061,l),
(702,990,l),
(651,1026,o),
(583,1046,o),
(507,1046,cs),
(431,1046,o),
(367,1027,o),
(314,990,c),
(279,1061,l)
);
},
{
closed = 1;
nodes = (
(364,753,o),
(418,832,o),
(509,832,cs),
(597,832,o),
(654,761,o),
(654,669,cs),
(654,577,o),
(602,508,o),
(509,508,cs),
(421,508,o),
(364,579,o),
(364,669,cs)
);
}
);
width = 1024;
},
{
layerId = "F307D2A1-D493-44D9-89F1-438E1120FCB6";
shapes = (
{
closed = 1;
nodes = (
(119,1166,l),
(14,1057,l),
(163,906,l),
(228,868,l),
(193,808,o),
(171,742,o),
(171,669,cs),
(171,594,o),
(190,528,o),
(228,471,c),
(163,432,l),
(14,281,l),
(119,172,l),
(269,322,l),
(310,388,l),
(365,347,o),
(432,327,o),
(511,327,cs),
(587,327,o),
(661,351,o),
(713,388,c),
(753,322,l),
(905,172,l),
(1010,281,l),
(860,432,l),
(792,471,l),
(833,523,o),
(853,590,o),
(853,669,cs),
(853,744,o),
(833,810,o),
(792,865,c),
(860,906,l),
(1010,1057,l),
(905,1166,l),
(753,1017,l),
(711,949,l),
(656,989,o),
(590,1009,o),
(511,1009,cs),
(435,1009,o),
(363,990,o),
(310,949,c),
(269,1017,l)
);
},
{
closed = 1;
nodes = (
(322,780,o),
(397,867,o),
(511,865,c),
(623,865,o),
(703,780,o),
(701,669,c),
(701,555,o),
(626,473,o),
(511,471,c),
(395,471,o),
(322,556,o),
(322,669,cs)
);
}
);
width = 1024;
},
{
layerId = "4443E9CB-80E0-4C5A-B41E-D517E8EFB53E";
shapes = (
{
closed = 1;
nodes = (
(98,1158,l),
(20,1076,l),
(185,910,l),
(244,870,l),
(207,810,o),
(185,742,o),
(185,669,cs),
(185,597,o),
(203,528,o),
(247,468,c),
(185,427,l),
(16,257,l),
(94,175,l),
(264,344,l),
(308,408,l),
(364,364,o),
(432,344,o),
(513,344,cs),
(589,344,o),
(663,371,o),
(717,408,c),
(760,344,l),
(932,173,l),
(1011,255,l),
(841,427,l),
(776,470,l),
(820,525,o),
(842,591,o),
(842,669,cs),
(842,745,o),
(819,809,o),
(776,863,c),
(841,911,l),
(1004,1076,l),
(925,1157,l),
(760,994,l),
(716,927,l),
(659,969,o),
(594,989,o),
(513,989,cs),
(437,989,o),
(361,970,o),
(308,927,c),
(264,994,l)
);
},
{
closed = 1;
nodes = (
(300,794,o),
(386,886,o),
(512,882,c),
(636,882,o),
(729,790,o),
(726,669,c),
(726,544,o),
(638,454,o),
(512,451,c),
(382,451,o),
(300,544,o),
(300,669,cs)
);
}
);
width = 1024;
}
);
unicode = 164;
},
{
glyphname = yen;
layers = (
{
layerId = "5F7E89D3-0E96-4E8F-898E-E76CB8D7C13D";
shapes = (
{
closed = 1;
nodes = (
(26,663,l),
(26,446,l),
(309,446,l),
(309,352,l),
(26,352,l),
(26,134,l),
(309,134,l),
(309,0,l),
(658,0,l),
(658,134,l),
(941,134,l),
(941,352,l),
(658,352,l),
(658,446,l),
(941,446,l),
(941,663,l),
(744,663,l),
(999,1356,l),
(630,1356,l),
(559,1036,l),
(507,894,l),
(493,894,l),
(443,1038,l),
(377,1356,l),
(25,1356,l),
(251,663,l)
);
}
);
width = 1024;
},
{
layerId = "D9C3C1F3-1F14-4B11-A064-AC4F771295DD";
shapes = (
{
closed = 1;
nodes = (
(78,654,l),
(78,473,l),
(353,473,l),
(353,360,l),
(78,360,l),
(78,178,l),
(353,178,l),
(353,0,l),
(640,0,l),
(640,178,l),
(915,178,l),
(915,360,l),
(640,360,l),
(640,473,l),
(915,473,l),
(915,654,l),
(717,654,l),
(1014,1356,l),
(710,1356,l),
(563,935,l),
(516,799,l),
(506,799,l),
(459,935,l),
(312,1356,l),
(10,1356,l),
(292,654,l)
);
}
);
width = 1024;
},
{
layerId = "F307D2A1-D493-44D9-89F1-438E1120FCB6";
shapes = (
{
closed = 1;
nodes = (
(156,641,l),
(156,513,l),
(419,513,l),
(419,372,l),
(156,372,l),
(156,244,l),
(419,244,l),
(419,0,l),
(613,0,l),
(613,244,l),
(876,244,l),
(876,372,l),
(613,372,l),
(613,513,l),
(876,513,l),
(876,641,l),
(677,641,l),
(1036,1356,l),
(830,1356,l),
(569,784,l),
(530,656,l),
(526,656,l),
(483,780,l),
(214,1356,l),
(-12,1356,l),
(353,641,l)
);
}
);
width = 1024;
},
{
layerId = "4443E9CB-80E0-4C5A-B41E-D517E8EFB53E";
shapes = (
{
closed = 1;
nodes = (
(196,634,l),
(196,534,l),
(453,534,l),
(453,378,l),
(196,378,l),
(196,278,l),
(453,278,l),
(453,0,l),
(599,0,l),
(599,278,l),
(855,278,l),
(855,378,l),
(599,378,l),
(599,534,l),
(855,534,l),
(855,634,l),
(656,634,l),
(1047,1356,l),
(892,1356,l),
(572,706,l),
(537,582,l),
(536,582,l),
(495,700,l),
(164,1356,l),
(-23,1356,l),
(385,634,l)
);
}
);
width = 1024;
}
);
unicode = 165;
},
{
glyphname = brokenbar;
layers = (
{
layerId = "5F7E89D3-0E96-4E8F-898E-E76CB8D7C13D";
shapes = (
{
closed = 1;
nodes = (
(104,418,l),
(104,-252,l),
(375,-252,l),
(375,418,l)
);
},
{
closed = 1;
nodes = (
(375,684,l),
(375,1356,l),
(104,1356,l),
(104,684,l)
);
}
);
width = 478;
},
{
layerId = "D9C3C1F3-1F14-4B11-A064-AC4F771295DD";
shapes = (
{
closed = 1;
nodes = (
(113,412,l),
(113,-252,l),
(338,-252,l),
(338,412,l)
);
},
{
closed = 1;
nodes = (
(338,691,l),
(338,1356,l),
(113,1356,l),
(113,691,l)
);
}
);
width = 451;
},
{
layerId = "F307D2A1-D493-44D9-89F1-438E1120FCB6";
shapes = (
{
closed = 1;
nodes = (
(127,403,l),
(127,-252,l),
(282,-252,l),
(282,403,l)
);
},
{
closed = 1;
nodes = (
(282,701,l),
(282,1356,l),
(127,1356,l),
(127,701,l)
);
}
);
width = 410;
},
{
layerId = "4443E9CB-80E0-4C5A-B41E-D517E8EFB53E";
shapes = (
{
closed = 1;
nodes = (
(134,398,l),
(134,-252,l),
(253,-252,l),
(253,398,l)
);
},
{
closed = 1;
nodes = (
(253,706,l),
(253,1356,l),
(134,1356,l),
(134,706,l)
);
}
);
width = 388;
}
);
unicode = 166;
},
{
glyphname = section;
layers = (
{
layerId = "5F7E89D3-0E96-4E8F-898E-E76CB8D7C13D";
shapes = (
{
closed = 1;
nodes = (
(65,503,o),
(168,410,o),
(332,380,c),
(334,381,o),
(339,380,o),
(347,379,cs),
(428,367,o),
(584,338,o),
(586,293,c),
(586,261,o),
(562,247,o),
(463,247,cs),
(327,247,o),
(223,297,o),
(195,314,c),
(103,70,l),
(168,29,o),
(233,6,o),
(295,-7,cs),
(376,-23,o),
(451,-28,o),
(520,-28,cs),
(676,-28,o),
(918,4,o),
(918,222,cs),
(918,325,o),
(859,389,o),
(786,429,c),
(879,456,l),
(932,488,o),
(977,594,o),
(977,672,cs),
(977,871,o),
(845,941,o),
(716,975,cs),
(534,1023,o),
(437,1021,o),
(439,1065,c),
(439,1092,o),
(464,1110,o),
(553,1110,cs),
(601,1110,o),
(648,1106,o),
(692,1098,cs),
(734,1090,o),
(782,1073,o),
(831,1053,c),
(912,1318,l),
(755,1386,o),
(607,1383,o),
(499,1383,cs),
(416,1383,o),
(294,1371,o),
(208,1317,cs),
(155,1283,o),
(111,1226,o),
(111,1134,cs),
(111,1030,o),
(157,970,o),
(236,928,c),
(146,903,l),
(77,859,o),
(47,763,o),
(47,684,c)
);
},
{
closed = 1;
nodes = (
(648,628,o),
(641,583,o),
(586,552,c),
(417,586,o),
(376,625,o),
(376,687,cs),
(376,729,o),
(393,777,o),
(435,808,c),
(608,761,o),
(648,742,o),
(648,669,cs)
);
}
);
width = 1024;
},
{
layerId = "D9C3C1F3-1F14-4B11-A064-AC4F771295DD";
shapes = (
{
closed = 1;
nodes = (
(79,513,o),
(185,426,o),
(337,391,cs),
(343,390,o),
(351,388,o),
(361,386,cs),
(439,371,o),
(617,340,o),
(617,271,cs),
(617,220,o),
(576,200,o),
(472,200,cs),
(344,200,o),
(246,244,o),
(202,266,c),
(128,61,l),
(183,30,o),
(240,9,o),
(299,-5,cs),
(369,-21,o),
(442,-27,o),
(517,-27,cs),
(685,-27,o),
(889,27,o),
(889,223,cs),
(889,327,o),
(832,390,o),
(757,430,c),
(852,457,l),
(911,500,o),
(956,593,o),
(956,672,cs),
(956,860,o),
(826,933,o),
(687,970,cs),
(548,1007,o),
(408,1019,o),
(408,1086,cs),
(408,1129,o),
(445,1156,o),
(548,1156,cs),
(598,1156,o),
(646,1151,o),
(692,1141,cs),
(737,1131,o),
(781,1116,o),
(823,1098,c),
(890,1317,l),
(765,1372,o),
(633,1382,o),
(504,1382,cs),
(412,1382,o),
(306,1366,o),
(231,1315,c),
(176,1276,o),
(138,1218,o),
(138,1133,cs),
(138,1029,o),
(186,969,o),
(262,928,c),
(174,902,l),
(105,852,o),
(68,763,o),
(68,684,c)
);
},
{
closed = 1;
nodes = (
(685,613,o),
(648,560,o),
(587,529,c),
(423,569,o),
(339,600,o),
(339,687,cs),
(339,747,o),
(376,800,o),
(432,831,c),
(599,783,o),
(685,762,o),
(685,669,cs)
);
}
);
width = 1024;
},
{
layerId = "F307D2A1-D493-44D9-89F1-438E1120FCB6";
shapes = (
{
closed = 1;
nodes = (
(100,528,o),
(211,450,o),
(345,408,cs),
(357,404,o),
(369,400,o),
(382,397,cs),
(456,377,o),
(666,343,o),
(663,238,c),
(663,158,o),
(597,130,o),
(486,130,cs),
(369,130,o),
(280,165,o),
(212,194,c),
(166,48,l),
(205,31,o),
(251,14,o),
(305,-2,cs),
(359,-18,o),
(428,-26,o),
(512,-26,cs),
(699,-26,o),
(846,61,o),
(846,225,cs),
(846,330,o),
(791,391,o),
(714,432,c),
(811,459,l),
(880,518,o),
(925,592,o),
(925,672,cs),
(925,844,o),
(797,921,o),
(644,963,cs),
(569,983,o),
(365,1016,o),
(362,1118,c),
(362,1185,o),
(416,1225,o),
(540,1225,cs),
(593,1225,o),
(643,1219,o),
(692,1206,cs),
(741,1193,o),
(780,1180,o),
(811,1166,c),
(857,1315,l),
(780,1351,o),
(672,1381,o),
(512,1381,cs),
(406,1381,o),
(324,1358,o),
(266,1312,cs),
(208,1266,o),
(179,1206,o),
(179,1131,cs),
(179,1027,o),
(229,967,o),
(301,928,c),
(216,900,l),
(147,841,o),
(100,763,o),
(100,684,cs)
);
},
{
closed = 1;
nodes = (
(741,590,o),
(659,526,o),
(588,494,c),
(432,543,o),
(284,562,o),
(284,687,cs),
(284,774,o),
(351,835,o),
(427,865,c),
(586,816,o),
(741,792,o),
(741,669,cs)
);
}
);
width = 1024;
},
{
layerId = "4443E9CB-80E0-4C5A-B41E-D517E8EFB53E";
shapes = (
{
closed = 1;
nodes = (
(111,536,o),
(224,462,o),
(349,417,cs),
(364,411,o),
(378,406,o),
(393,403,c),
(465,380,o),
(692,345,o),
(687,221,c),
(687,126,o),
(608,94,o),
(493,94,cs),
(382,94,o),
(297,124,o),
(217,157,c),
(186,41,l),
(216,32,o),
(257,17,o),
(308,0,cs),
(354,-16,o),
(421,-25,o),
(509,-25,cs),
(706,-25,o),
(823,78,o),
(823,226,cs),
(823,332,o),
(769,392,o),
(691,433,c),
(789,460,l),
(864,527,o),
(909,591,o),
(909,672,cs),
(909,836,o),
(782,915,o),
(621,959,cs),
(580,971,o),
(342,1014,o),
(338,1134,c),
(338,1214,o),
(401,1261,o),
(536,1261,cs),
(590,1261,o),
(641,1254,o),
(692,1240,cs),
(743,1225,o),
(779,1213,o),
(805,1201,c),
(840,1314,l),
(788,1340,o),
(693,1380,o),
(516,1380,cs),
(403,1380,o),
(333,1354,o),
(285,1310,c),
(224,1261,o),
(201,1200,o),
(201,1130,cs),
(201,1026,o),
(252,966,o),
(322,928,c),
(238,899,l),
(169,835,o),
(116,763,o),
(116,684,c)
);
},
{
closed = 1;
nodes = (
(770,578,o),
(665,509,o),
(589,475,c),
(437,530,o),
(255,542,o),
(255,687,cs),
(255,788,o),
(338,854,o),
(424,882,c),
(579,833,o),
(770,807,o),
(770,669,cs)
);
}
);
width = 1024;
}
);
unicode = 167;
},
{
glyphname = dieresis;
layers = (
{
layerId = "5F7E89D3-0E96-4E8F-898E-E76CB8D7C13D";
shapes = (
{
closed = 1;
nodes = (
(-56,1235,o),
(-39,1196,o),
(-5,1163,cs),
(27,1132,o),
(70,1115,o),
(122,1115,cs),
(174,1115,o),
(216,1132,o),
(248,1163,cs),
(281,1196,o),
(296,1235,o),
(296,1281,cs),
(296,1390,o),
(226,1459,o),
(122,1459,cs),
(18,1459,o),
(-56,1390,o),
(-56,1281,cs)
);
},
{
closed = 1;
nodes = (
(397,1235,o),
(412,1196,o),
(445,1163,cs),
(475,1132,o),
(517,1115,o),
(570,1115,cs),
(623,1115,o),
(665,1132,o),
(698,1163,c),
(730,1196,o),
(746,1235,o),
(746,1281,cs),
(746,1390,o),
(678,1459,o),
(570,1459,cs),
(465,1459,o),
(397,1390,o),
(397,1281,cs)
);
}
);
width = 682;
},
{
layerId = "D9C3C1F3-1F14-4B11-A064-AC4F771295DD";
shapes = (
{
closed = 1;
nodes = (
(-20,1234,o),
(-6,1201,o),
(22,1174,cs),
(49,1147,o),
(85,1133,o),
(129,1133,cs),
(173,1133,o),
(208,1147,o),
(235,1174,cs),
(262,1201,o),
(275,1234,o),
(275,1273,cs),
(275,1362,o),
(217,1421,o),
(129,1421,cs),
(41,1421,o),
(-20,1362,o),
(-20,1273,cs)
);
},
{
closed = 1;
nodes = (
(410,1234,o),
(423,1201,o),
(450,1174,cs),
(476,1147,o),
(511,1133,o),
(555,1133,cs),
(600,1133,o),
(636,1147,o),
(663,1174,cs),
(690,1201,o),
(703,1234,o),
(703,1273,cs),
(703,1362,o),
(646,1421,o),
(555,1421,cs),
(467,1421,o),
(410,1362,o),
(410,1273,cs)
);
}
);
width = 682;
},
{
layerId = "F307D2A1-D493-44D9-89F1-438E1120FCB6";
shapes = (
{
closed = 1;
nodes = (
(34,1233,o),
(44,1209,o),
(63,1190,cs),
(82,1170,o),
(108,1160,o),
(140,1160,cs),
(171,1160,o),
(196,1170,o),
(215,1190,cs),
(234,1209,o),
(243,1233,o),
(243,1261,cs),
(243,1320,o),
(203,1364,o),
(140,1364,cs),
(76,1364,o),
(34,1320,o),
(34,1261,cs)
);
},
{
closed = 1;
nodes = (
(429,1233,o),
(439,1209,o),
(458,1190,cs),
(477,1170,o),
(502,1160,o),
(533,1160,cs),
(566,1160,o),
(592,1170,o),
(611,1190,cs),
(630,1209,o),
(639,1233,o),
(639,1261,cs),
(639,1320,o),
(598,1364,o),
(533,1364,cs),
(470,1364,o),
(429,1320,o),
(429,1261,cs)
);
}
);
width = 682;
},
{
layerId = "4443E9CB-80E0-4C5A-B41E-D517E8EFB53E";
shapes = (
{
closed = 1;
nodes = (
(62,1232,o),
(70,1213,o),
(85,1198,c),
(99,1182,o),
(120,1174,o),
(146,1174,cs),
(170,1174,o),
(190,1182,o),
(205,1198,cs),
(220,1213,o),
(227,1232,o),
(227,1255,cs),
(227,1298,o),
(196,1334,o),
(146,1334,cs),
(95,1334,o),
(62,1298,o),
(62,1255,cs)
);
},
{
closed = 1;
nodes = (
(439,1232,o),
(447,1213,o),
(462,1198,cs),
(478,1182,o),
(497,1174,o),
(522,1174,cs),
(549,1174,o),
(569,1182,o),
(584,1198,cs),
(599,1213,o),
(606,1232,o),
(606,1255,cs),
(606,1298,o),
(573,1334,o),
(522,1334,cs),
(472,1334,o),
(439,1298,o),
(439,1255,cs)
);
}
);
width = 682;
}
);
unicode = 168;
},
{
glyphname = copyright;
layers = (
{
layerId = "5F7E89D3-0E96-4E8F-898E-E76CB8D7C13D";
shapes = (
{
closed = 1;
nodes = (
(31,149,o),
(380,-236,o),
(756,-236,cs),
(1158,-236,o),
(1482,149,o),
(1482,548,cs),
(1482,946,o),
(1158,1334,o),
(756,1334,cs),
(358,1334,o),
(31,946,o),
(31,548,cs)
);
},
{
closed = 1;
nodes = (
(275,819,o),
(492,1100,o),
(756,1100,cs),
(1018,1100,o),
(1239,819,o),
(1239,550,cs),
(1239,280,o),
(1018,-1,o),
(756,-1,cs),
(492,-1,o),
(275,280,o),
(275,550,cs)
);
},
{
closed = 1;
nodes = (
(1019,444,l),
(974,421,o),
(945,416,o),
(906,416,cs),
(837,416,o),
(803,456,o),
(803,551,cs),
(803,601,o),
(809,637,o),
(826,653,c),
(842,673,o),
(864,681,o),
(892,681,cs),
(925,681,o),
(958,681,o),
(999,659,c),
(1078,885,l),
(1009,928,o),
(917,958,o),
(808,958,cs),
(702,958,o),
(616,923,o),
(550,851,cs),
(485,778,o),
(453,680,o),
(453,551,cs),
(453,426,o),
(483,327,o),
(544,252,c),
(605,180,o),
(693,144,o),
(808,144,cs),
(917,144,o),
(1033,173,o),
(1093,218,c)
);
}
);
width = 1513;
},
{
layerId = "D9C3C1F3-1F14-4B11-A064-AC4F771295DD";
shapes = (
{
closed = 1;
nodes = (
(52,139,o),
(371,-196,o),
(765,-196,cs),
(1159,-196,o),
(1478,139,o),
(1478,552,cs),
(1478,965,o),
(1159,1301,o),
(765,1301,cs),
(371,1301,o),
(52,965,o),
(52,552,cs)
);
},
{
closed = 1;
nodes = (
(258,857,o),
(485,1104,o),
(765,1104,cs),
(1045,1104,o),
(1272,857,o),
(1272,553,cs),
(1272,249,o),
(1045,2,o),
(765,2,cs),
(485,2,o),
(258,249,o),
(258,553,cs)
);
},
{
closed = 1;
nodes = (
(997,412,l),
(953,389,o),
(918,381,o),
(869,381,cs),
(776,381,o),
(730,439,o),
(730,554,cs),
(730,619,o),
(741,664,o),
(764,687,c),
(787,712,o),
(817,724,o),
(854,724,cs),
(890,724,o),
(929,719,o),
(976,695,c),
(1045,881,l),
(972,921,o),
(898,947,o),
(794,947,cs),
(691,947,o),
(608,913,o),
(545,844,cs),
(482,775,o),
(451,679,o),
(451,554,cs),
(451,433,o),
(480,337,o),
(539,266,cs),
(598,196,o),
(683,161,o),
(794,161,cs),
(899,161,o),
(999,186,o),
(1059,227,c)
);
}
);
width = 1530;
},
{
layerId = "F307D2A1-D493-44D9-89F1-438E1120FCB6";
shapes = (
{
closed = 1;
nodes = (
(84,124,o),
(357,-136,o),
(778,-136,cs),
(1161,-136,o),
(1472,124,o),
(1472,558,cs),
(1472,993,o),
(1161,1252,o),
(778,1252,cs),
(391,1252,o),
(84,993,o),
(84,558,cs)
);
},
{
closed = 1;
nodes = (
(233,914,o),
(474,1110,o),
(778,1110,cs),
(1085,1110,o),
(1322,914,o),
(1322,558,cs),
(1322,202,o),
(1085,6,o),
(778,6,cs),
(474,6,o),
(233,202,o),
(233,558,cs)
);
},
{
closed = 1;
nodes = (
(964,364,l),
(921,341,o),
(877,329,o),
(814,329,cs),
(685,329,o),
(621,414,o),
(621,558,cs),
(621,646,o),
(639,705,o),
(671,738,cs),
(704,771,o),
(746,788,o),
(797,788,cs),
(838,788,o),
(886,776,o),
(942,749,c),
(995,875,l),
(917,910,o),
(869,930,o),
(773,930,cs),
(674,930,o),
(596,898,o),
(537,833,cs),
(478,770,o),
(448,678,o),
(448,558,cs),
(448,443,o),
(476,352,o),
(531,287,cs),
(587,220,o),
(668,187,o),
(773,187,cs),
(872,187,o),
(948,206,o),
(1008,241,c)
);
}
);
width = 1556;
},
{
layerId = "4443E9CB-80E0-4C5A-B41E-D517E8EFB53E";
shapes = (
{
closed = 1;
nodes = (
(100,116,o),
(350,-105,o),
(785,-105,cs),
(1162,-105,o),
(1469,116,o),
(1469,561,cs),
(1469,1007,o),
(1162,1226,o),
(785,1226,cs),
(401,1226,o),
(100,1007,o),
(100,561,cs)
);
},
{
closed = 1;
nodes = (
(220,944,o),
(468,1113,o),
(785,1113,cs),
(1106,1113,o),
(1348,944,o),
(1348,561,cs),
(1348,177,o),
(1106,8,o),
(785,8,cs),
(468,8,o),
(220,177,o),
(220,561,cs)
);
},
{
closed = 1;
nodes = (
(947,339,l),
(905,316,o),
(855,302,o),
(785,302,cs),
(638,302,o),
(564,401,o),
(564,560,cs),
(564,660,o),
(587,727,o),
(623,765,c),
(661,802,o),
(709,821,o),
(767,821,cs),
(811,821,o),
(863,806,o),
(925,777,c),
(969,872,l),
(888,904,o),
(854,921,o),
(762,921,cs),
(665,921,o),
(590,890,o),
(533,827,c),
(476,767,o),
(446,677,o),
(446,560,cs),
(446,448,o),
(474,360,o),
(527,298,c),
(581,232,o),
(660,200,o),
(762,200,cs),
(858,200,o),
(921,216,o),
(981,248,c)
);
}
);
width = 1569;
}
);
unicode = 169;
},
{
glyphname = ordfeminine;
layers = (
{
layerId = "5F7E89D3-0E96-4E8F-898E-E76CB8D7C13D";
shapes = (
{
closed = 1;
nodes = (
(69,1154,l),
(110,1168,o),
(187,1208,o),
(286,1208,cs),
(330,1208,o),
(369,1189,o),
(373,1143,c),
(353,1143,o),
(349,1145,o),
(329,1145,cs),
(74,1145,o),
(19,1052,o),
(19,932,cs),
(19,817,o),
(90,733,o),
(191,733,cs),
(264,733,o),
(322,760,o),
(373,829,c),
(381,829,l),
(389,741,l),
(597,741,l),
(585,790,o),
(582,841,o),
(582,901,cs),
(582,976,o),
(588,1031,o),
(588,1110,cs),
(588,1253,o),
(549,1371,o),
(359,1371,cs),
(177,1371,o),
(80,1332,o),
(15,1297,c)
);
},
{
closed = 1;
nodes = (
(253,913,o),
(235,930,o),
(235,969,cs),
(235,1000,o),
(231,1033,o),
(324,1033,cs),
(340,1033,o),
(354,1034,o),
(373,1031,c),
(373,956,l),
(371,963,o),
(342,913,o),
(284,913,cs)
);
}
);
width = 647;
},
{
layerId = "D9C3C1F3-1F14-4B11-A064-AC4F771295DD";
shapes = (
{
closed = 1;
nodes = (
(69,1173,l),
(114,1191,o),
(188,1226,o),
(282,1226,cs),
(348,1226,o),
(380,1201,o),
(378,1135,c),
(358,1135,o),
(353,1137,o),
(333,1137,cs),
(109,1137,o),
(14,1059,o),
(14,922,cs),
(14,808,o),
(85,728,o),
(200,728,cs),
(288,728,o),
(340,775,o),
(378,826,c),
(386,826,l),
(402,736,l),
(580,736,l),
(568,785,o),
(565,838,o),
(565,898,cs),
(565,978,o),
(571,1045,o),
(571,1133,cs),
(571,1280,o),
(515,1371,o),
(343,1371,cs),
(176,1371,o),
(91,1336,o),
(24,1301,c)
);
},
{
closed = 1;
nodes = (
(232,885,o),
(208,907,o),
(208,950,cs),
(208,1001,o),
(236,1028,o),
(320,1028,cs),
(341,1028,o),
(355,1028,o),
(378,1025,c),
(378,953,l),
(370,938,o),
(333,885,o),
(273,885,cs)
);
}
);
width = 614;
},
{
layerId = "F307D2A1-D493-44D9-89F1-438E1120FCB6";
shapes = (
{
closed = 1;
nodes = (
(69,1201,l),
(120,1226,o),
(189,1253,o),
(276,1253,cs),
(375,1253,o),
(396,1219,o),
(386,1123,c),
(366,1123,o),
(359,1125,o),
(339,1125,cs),
(162,1125,o),
(6,1069,o),
(6,907,cs),
(6,794,o),
(78,721,o),
(214,721,cs),
(324,721,o),
(367,798,o),
(386,822,c),
(394,822,l),
(421,729,l),
(555,729,l),
(542,778,o),
(539,833,o),
(539,893,cs),
(539,981,o),
(545,1066,o),
(545,1167,cs),
(545,1320,o),
(464,1371,o),
(319,1371,cs),
(174,1371,o),
(108,1342,o),
(38,1307,c)
);
},
{
closed = 1;
nodes = (
(201,843,o),
(168,872,o),
(168,921,cs),
(168,1003,o),
(243,1020,o),
(314,1020,cs),
(343,1020,o),
(357,1019,o),
(386,1016,c),
(386,948,l),
(368,901,o),
(320,843,o),
(256,843,cs)
);
}
);
width = 565;
},
{
layerId = "4443E9CB-80E0-4C5A-B41E-D517E8EFB53E";
shapes = (
{
closed = 1;
nodes = (
(69,1215,l),
(123,1245,o),
(190,1267,o),
(273,1267,cs),
(389,1267,o),
(404,1228,o),
(390,1117,c),
(370,1117,o),
(362,1119,o),
(342,1119,cs),
(190,1119,o),
(2,1074,o),
(2,899,cs),
(2,787,o),
(74,717,o),
(221,717,cs),
(343,717,o),
(381,810,o),
(390,820,c),
(398,820,l),
(431,725,l),
(542,725,l),
(529,774,o),
(526,830,o),
(526,890,cs),
(526,983,o),
(532,1077,o),
(532,1184,cs),
(532,1341,o),
(437,1371,o),
(307,1371,cs),
(173,1371,o),
(117,1345,o),
(45,1310,c)
);
},
{
closed = 1;
nodes = (
(185,821,o),
(147,853,o),
(147,906,cs),
(147,1004,o),
(247,1016,o),
(311,1016,cs),
(344,1016,o),
(358,1014,o),
(390,1011,c),
(390,945,l),
(367,881,o),
(313,821,o),
(247,821,cs)
);
}
);
width = 539;
}
);
unicode = 170;
},
